<?xml version="1.0" encoding="utf-8"?>
<!-- Generator: Adobe Illustrator 19.1.1, SVG Export Plug-In . SVG Version: 6.00 Build 0)  -->
<svg version="1.1" xmlns="http://www.w3.org/2000/svg" xmlns:xlink="http://www.w3.org/1999/xlink" x="0px" y="0px"
	 viewBox="0 0 457 230" style="enable-background:new 0 0 457 230;" xml:space="preserve">
<style type="text/css">
	.st0{fill:#034EA2;}
	.st1{fill-rule:evenodd;clip-rule:evenodd;fill:#034EA2;}
	.st2{fill-rule:evenodd;clip-rule:evenodd;fill:#FFF200;}
	.st3{fill-rule:evenodd;clip-rule:evenodd;fill:url(#SVGID_1_);}
</style>
<g>
	<g>
		<g>
			<path class="st0" d="M13.6,210.5v-22.2H27v2.5H17v6.8h9.7v2.5H17v7.9h10.1v2.5H13.6z"/>
			<path class="st0" d="M40.2,210.5v-1.3c-2.3,1.2-4.1,1.7-5.5,1.7c-1.7,0-2.9-0.6-3.5-1.6c-0.7-1-0.8-1.9-0.8-4.2v-10.4h3.3v9.6
				c0,2.2,0,3.7,2.4,3.7c1.2,0,2.6-0.3,4-0.8v-12.5h3.3v15.7H40.2z"/>
			<path class="st0" d="M55.1,197.4c-1.4,0-2.5,0.2-4,0.8v12.2h-3.3v-15.7H51v1.5c1.7-1.2,3-1.7,4.5-1.7c0.3,0,0.7,0,0.7,0v2.9
				C55.6,197.4,55.4,197.4,55.1,197.4z"/>
			<path class="st0" d="M64.5,210.8c-4.6,0-7.3-3-7.3-8.2c0-5.1,2.7-8.2,7.3-8.2c4.7,0,7.3,2.9,7.3,8.2
				C71.8,207.9,69.1,210.8,64.5,210.8z M64.5,196.9c-2.6,0-3.8,1.8-3.8,5.7c0,4.1,1.2,5.8,3.9,5.8c2.6,0,3.8-1.7,3.8-5.7
				C68.3,198.6,67.2,196.9,64.5,196.9z"/>
			<path class="st0" d="M83.3,210.9c-1.7,0-3.3-1-4.7-1.8v8.1h-3.3v-22.4h3.1v1.4c1.9-1,3.7-1.8,5.3-1.8c3.3,0,5.3,3.1,5.3,8.2
				C89.1,207.6,86.8,210.9,83.3,210.9z M82.3,197.2c-0.9,0-1.8,0.2-3.7,0.9v9c2,0.7,2.7,0.9,3.6,0.9c2.2,0,3.4-1.8,3.4-5.3
				C85.6,199,84.5,197.2,82.3,197.2z"/>
			<path class="st0" d="M95.1,203.1v0.5c0,3.2,1.3,4.6,3.8,4.6c1.4,0,2.7-0.3,5.3-1.1l0.6,1.9c-3.3,1.4-4.9,1.9-6.7,1.9
				c-3.9,0-6.4-2.9-6.4-7.7c0-5.3,2.6-8.8,7-8.8c4.2,0,6.4,2.6,6.4,7.9v0.7H95.1z M98.9,196.7c-2.1,0-3.4,1.5-3.7,4.5l6.6-0.3
				C101.8,198,100.9,196.7,98.9,196.7z"/>
			<path class="st0" d="M116.4,210.5v-1.4c-2,1.2-3.4,1.8-4.8,1.8c-2.2,0-4.1-1.7-4.1-4.9c0-2,0.8-3.3,2.1-4c1.5-0.9,3.9-1,6.7-1
				v-0.5c0-2.4,0-3.4-2.8-3.4c-1.2,0-2.6,0.2-4.6,0.5l-0.3-2.1c2.6-0.8,4.7-1.1,6.4-1.1c1.9,0,3.1,0.5,3.8,1.5
				c0.6,0.9,0.8,1.9,0.8,4.9v9.8H116.4z M116.2,202.9c-4.4,0.3-5.5,0.9-5.5,3c0,1.7,0.8,2.5,2.1,2.5c1.3,0,3.5-0.9,3.5-0.9V202.9z"
				/>
			<path class="st0" d="M133.5,210.5v-9.6c0-2.2,0-3.7-2.4-3.7c-1.2,0-2.6,0.3-4,0.8v12.5h-3.3v-15.7h3.1v1.3
				c2.3-1.2,4.1-1.7,5.6-1.7c1.6,0,2.8,0.6,3.5,1.6c0.6,0.9,0.8,1.7,0.8,4.2v10.3H133.5z"/>
			<path class="st0" d="M153.3,190.8v6.8h9.4v2.5h-9.4v10.4h-3.5v-22.2H163v2.5H153.3z"/>
			<path class="st0" d="M172,210.8c-4.6,0-7.3-3-7.3-8.2c0-5.1,2.7-8.2,7.3-8.2c4.7,0,7.3,2.9,7.3,8.2
				C179.3,207.9,176.7,210.8,172,210.8z M172,196.9c-2.6,0-3.8,1.8-3.8,5.7c0,4.1,1.2,5.8,3.9,5.8c2.7,0,3.8-1.7,3.8-5.7
				C175.9,198.6,174.8,196.9,172,196.9z"/>
			<path class="st0" d="M189.2,210.8c-4.6,0-7.3-3-7.3-8.2c0-5.1,2.7-8.2,7.3-8.2c4.7,0,7.3,2.9,7.3,8.2
				C196.5,207.9,193.9,210.8,189.2,210.8z M189.2,196.9c-2.6,0-3.8,1.8-3.8,5.7c0,4.1,1.2,5.8,3.9,5.8c2.7,0,3.8-1.7,3.8-5.7
				C193,198.6,191.9,196.9,189.2,196.9z"/>
			<path class="st0" d="M209.7,210.5v-1.4c-1.9,1.1-3.7,1.8-5.2,1.8c-3.4,0-5.4-3.1-5.4-8.2c0-5,2.3-8.3,5.7-8.3
				c1.7,0,3.3,0.9,4.7,1.7v-9.2h3.3v23.6H209.7z M209.5,198.1c-2-0.7-2.6-0.9-3.6-0.9c-2.2,0-3.4,1.8-3.4,5.3c0,3.8,1.1,5.5,3.3,5.5
				c0.9,0,1.8-0.2,3.7-0.9V198.1z"/>
			<path class="st0" d="M230.9,210.8c-2.1,0-4-0.3-6.6-1.1l0.6-2.5c2.2,0.5,4,0.8,5.6,0.8c2.5,0,4.8-1.3,4.8-3.6
				c0-1.5-0.5-2.3-2.5-3c-3.8-1.4-8.3-2-8.3-7c0-3.9,2.8-6.3,7.1-6.3c1.8,0,3.8,0.3,6.2,0.9l-0.5,2.4c-1.6-0.3-3.8-0.7-5.3-0.7
				c-2.2,0-4.1,1.1-4.1,3.4c0,1.8,0.7,2.4,4.2,3.4c4.7,1.3,6.6,2.6,6.6,6.4C238.8,208.2,235.8,210.8,230.9,210.8z"/>
			<path class="st0" d="M250.1,210.5v-1.4c-2,1.2-3.4,1.8-4.8,1.8c-2.2,0-4.1-1.7-4.1-4.9c0-2,0.8-3.3,2.1-4c1.5-0.9,3.9-1,6.7-1
				v-0.5c0-2.4,0-3.4-2.8-3.4c-1.2,0-2.6,0.2-4.6,0.5l-0.3-2.1c2.6-0.8,4.7-1.1,6.4-1.1c1.9,0,3.1,0.5,3.8,1.5
				c0.6,0.9,0.8,1.9,0.8,4.9v9.8H250.1z M250,202.9c-4.4,0.3-5.5,0.9-5.5,3c0,1.7,0.8,2.5,2.1,2.5c1.3,0,3.4-0.9,3.4-0.9V202.9z"/>
			<path class="st0" d="M266.6,189.1c-0.3-0.1-1.4-0.2-2.7-0.2c-1.7,0-2.1,0.7-2.1,2.9v3h4.4v2.2h-4.4v13.5h-3.2V197h-2.8v-1.9
				l2.8-0.4v-2.6c0-2.3,0.2-3.2,0.8-4c0.8-1.1,2-1.7,3.6-1.7c1.7,0,3.5,0.5,4,0.6L266.6,189.1z"/>
			<path class="st0" d="M270.5,203.1v0.5c0,3.2,1.3,4.6,3.8,4.6c1.4,0,2.7-0.3,5.3-1.1l0.6,1.9c-3.3,1.4-4.8,1.9-6.7,1.9
				c-3.9,0-6.4-2.9-6.4-7.7c0-5.3,2.6-8.8,7-8.8c4.2,0,6.4,2.6,6.4,7.9v0.7H270.5z M274.3,196.7c-2.1,0-3.4,1.5-3.7,4.5l6.7-0.3
				C277.2,198,276.3,196.7,274.3,196.7z"/>
			<path class="st0" d="M288.1,210.9c-1.5,0-2.7-0.6-3.2-1.7c-0.4-0.7-0.5-1.5-0.5-3.6V197h-2.7v-1.8l2.7-0.3v-4.3h3.3v4.3h4.3v2.2
				h-4.3v7.6c0,2.7,0,2.7,0.3,3.1c0.2,0.4,0.7,0.6,1.4,0.6c0.8,0,1.5-0.1,2.8-0.5l0.5,2C290.7,210.6,289.4,210.9,288.1,210.9z"/>
			<path class="st0" d="M301.7,212.5c-1.5,4.1-2.5,5-5.4,5c-0.7,0-1.3-0.1-2.4-0.2l0.2-2.1c0.6,0.1,1,0.1,1.3,0.1
				c2.2,0,2.3-0.2,3.6-3.5l0.6-1.3l-6.4-15.6h3.6l4.5,11.9l4-11.9h3L301.7,212.5z"/>
			<path class="st0" d="M333.1,210.5l-1.9-5.6H322l-1.9,5.6h-3.1l7.8-22.2h4l8,22.2H333.1z M326.5,191.2l-3.7,11.3h7.5L326.5,191.2z
				"/>
			<path class="st0" d="M348.9,210.5v-1.3c-2.3,1.2-4.1,1.7-5.5,1.7c-1.7,0-2.9-0.6-3.6-1.6c-0.7-1-0.8-1.9-0.8-4.2v-10.4h3.3v9.6
				c0,2.2,0,3.7,2.4,3.7c1.2,0,2.6-0.3,4-0.8v-12.5h3.3v15.7H348.9z"/>
			<path class="st0" d="M360.8,210.9c-1.5,0-2.6-0.6-3.2-1.7c-0.4-0.7-0.5-1.5-0.5-3.6V197h-2.7v-1.8l2.7-0.3v-4.3h3.3v4.3h4.3v2.2
				h-4.3v7.6c0,2.7,0,2.7,0.3,3.1c0.2,0.4,0.7,0.6,1.4,0.6c0.8,0,1.5-0.1,2.8-0.5l0.5,2C363.4,210.6,362.1,210.9,360.8,210.9z"/>
			<path class="st0" d="M377.8,210.5v-9.6c0-2.2,0-3.7-2.4-3.7c-1.2,0-2.6,0.3-4,0.8v12.5h-3.2v-23.6h3.2v9.1
				c2.2-1.1,3.9-1.6,5.4-1.6c1.6,0,2.8,0.6,3.5,1.6c0.6,0.9,0.8,1.7,0.8,4.2v10.3H377.8z"/>
			<path class="st0" d="M391.7,210.8c-4.6,0-7.3-3-7.3-8.2c0-5.1,2.7-8.2,7.3-8.2c4.7,0,7.3,2.9,7.3,8.2
				C399,207.9,396.4,210.8,391.7,210.8z M391.7,196.9c-2.6,0-3.8,1.8-3.8,5.7c0,4.1,1.2,5.8,3.9,5.8c2.7,0,3.8-1.7,3.8-5.7
				C395.6,198.6,394.5,196.9,391.7,196.9z"/>
			<path class="st0" d="M409.8,197.4c-1.4,0-2.5,0.2-4,0.8v12.2h-3.3v-15.7h3.1v1.5c1.6-1.2,3-1.7,4.5-1.7c0.3,0,0.7,0,0.7,0v2.9
				C410.4,197.4,410.1,197.4,409.8,197.4z"/>
			<path class="st0" d="M415,191.7c-1.1,0-2-0.9-2-2c0-1.1,0.9-2,2-2c1.1,0,1.9,0.9,1.9,2C416.9,190.8,416.1,191.7,415,191.7z
				 M413.4,210.5v-15.7h3.3v15.7H413.4z"/>
			<path class="st0" d="M425.5,210.9c-1.5,0-2.6-0.6-3.2-1.7c-0.4-0.7-0.5-1.5-0.5-3.6V197h-2.7v-1.8l2.7-0.3v-4.3h3.3v4.3h4.3v2.2
				H425v7.6c0,2.7,0,2.7,0.3,3.1c0.2,0.4,0.7,0.6,1.4,0.6c0.8,0,1.5-0.1,2.7-0.5l0.5,2C428.1,210.6,426.8,210.9,425.5,210.9z"/>
			<path class="st0" d="M439.1,212.5c-1.5,4.1-2.5,5-5.4,5c-0.7,0-1.3-0.1-2.4-0.2l0.2-2.1c0.6,0.1,1,0.1,1.3,0.1
				c2.2,0,2.3-0.2,3.7-3.5l0.5-1.3l-6.4-15.6h3.6l4.5,11.9l4-11.9h3L439.1,212.5z"/>
		</g>
		<g>
			<polygon class="st1" points="446.2,160.6 446.2,118.2 382.5,118.2 382.5,160.6 446.2,160.6 			"/>
			<polygon class="st2" points="414.3,122.5 415,124.4 416.9,124.4 415.4,125.6 416,127.5 414.3,126.4 412.7,127.5 413.3,125.6 
				411.7,124.4 413.7,124.4 414.3,122.5 			"/>
			<polygon class="st2" points="414.5,150.7 415.2,152.6 417.2,152.6 415.6,153.8 416.2,155.7 414.6,154.6 412.9,155.7 413.5,153.8 
				411.9,152.6 413.9,152.6 414.5,150.7 			"/>
			<polygon class="st2" points="421.3,124.3 422,126.1 423.9,126.2 422.4,127.4 423,129.3 421.3,128.1 419.7,129.3 420.3,127.4 
				418.7,126.2 420.7,126.1 421.3,124.3 			"/>
			<polygon class="st2" points="421.5,148.8 422.2,150.7 424.1,150.7 422.6,151.9 423.2,153.8 421.5,152.7 419.9,153.8 420.5,152 
				418.9,150.8 420.8,150.7 421.5,148.8 			"/>
			<polygon class="st2" points="407.4,124.4 408,126.2 410,126.3 408.4,127.5 409,129.4 407.4,128.2 405.8,129.4 406.3,127.5 
				404.8,126.3 406.7,126.3 407.4,124.4 			"/>
			<polygon class="st2" points="407.6,148.8 408.2,150.7 410.2,150.7 408.6,151.9 409.2,153.8 407.6,152.7 406,153.8 406.5,151.9 
				404.9,150.8 406.9,150.7 407.6,148.8 			"/>
			<polygon class="st2" points="426.6,129.3 427.2,131.2 429.2,131.2 427.7,132.4 428.3,134.3 426.6,133.2 425,134.4 425.6,132.5 
				424,131.3 425.9,131.2 426.6,129.3 			"/>
			<polygon class="st2" points="426.7,143.6 427.4,145.5 429.3,145.5 427.8,146.7 428.4,148.6 426.7,147.5 425.1,148.6 425.7,146.8 
				424.1,145.6 426.1,145.5 426.7,143.6 			"/>
			<polygon class="st2" points="402.3,129.5 403,131.4 405,131.4 403.4,132.6 404,134.5 402.3,133.4 400.7,134.5 401.3,132.6 
				399.7,131.5 401.7,131.4 402.3,129.5 			"/>
			<polygon class="st2" points="402.4,143.7 403.1,145.6 405.1,145.6 403.5,146.8 404.1,148.7 402.5,147.6 400.8,148.7 401.4,146.8 
				399.8,145.6 401.8,145.6 402.4,143.7 			"/>
			<polygon class="st2" points="428.7,136.4 429.3,138.3 431.3,138.3 429.7,139.5 430.3,141.4 428.7,140.3 427.1,141.4 427.6,139.5 
				426.1,138.3 428,138.3 428.7,136.4 			"/>
			<polygon class="st2" points="400.5,136.6 401.1,138.5 403.1,138.5 401.5,139.7 402.1,141.6 400.5,140.5 398.9,141.6 399.4,139.7 
				397.9,138.6 399.8,138.5 400.5,136.6 			"/>
		</g>
		<g>
			<path class="st0" d="M165.5,130.1v2.2c0,13,5.5,18.8,15.6,18.8c5.9,0,11.2-1.1,21.7-4.5l2.5,7.9c-13.4,5.9-19.9,7.6-27.7,7.6
				c-15.8,0-26.2-11.7-26.2-31.7c0-21.7,10.7-35.9,28.5-35.9c17.3,0,26.1,10.5,26.1,32.5v3H165.5z M180.9,104
				c-8.7,0-13.9,6.3-15,18.3l27.3-1.1C192.9,109.5,189.1,104,180.9,104z"/>
			<path class="st0" d="M257.3,72.6c-1.2-0.3-5.6-0.8-11.2-0.8c-7,0-8.7,2.7-8.7,11.9v12.4h18v9.2h-18v55.4h-13.2v-55.4h-11.3v-7.8
				l11.3-1.5V85.3c0-9.6,0.7-13,3.1-16.5c3.1-4.6,8.1-7,14.9-7c6.8,0,14.5,1.9,16.5,2.5L257.3,72.6z"/>
			<path class="st0" d="M282,162c-6.6,0-12.3-1-20.5-3l2.2-9c6.6,1.5,11.5,2.1,16,2.1c9,0,13.7-3.3,13.7-9.3c0-5-1.9-7.1-10.8-9.6
				c-11.9-3.3-20.5-7.2-20.5-18.8c0-12.4,8.6-19.6,22.8-19.6c5.3,0,11.6,1.1,18.7,3.4l-1.9,8.5c-4.5-1-10.4-2-15.1-2
				c-7,0-11.1,2.9-11.1,8.3c0,13.7,31.5,4.8,31.5,27.9C307,154.2,297.9,162,282,162z"/>
			<path class="st0" d="M352.6,160.6v-5.9c-8.2,4.8-14.1,7.4-19.8,7.4c-9,0-16.8-6.8-16.8-20.2c0-8.3,3.3-13.4,8.5-16.4
				c6.1-3.6,15.8-4.1,27.6-4.1v-2.2c0-9.8,0-13.8-11.6-13.8c-4.8,0-10.8,0.7-19,2.2l-1.4-8.5c10.7-3.1,19.4-4.6,26.3-4.6
				c7.6,0,12.6,1.9,15.4,6c2.6,3.7,3.3,7.9,3.3,19.9v40.1H352.6z M352.1,129.2c-18,1.2-22.7,3.8-22.7,12.3c0,6.8,3.4,10.1,8.5,10.1
				c5.2,0,14.2-3.8,14.2-3.8V129.2z"/>
		</g>
	</g>
	<linearGradient id="SVGID_1_" gradientUnits="userSpaceOnUse" x1="12.3018" y1="70.8834" x2="178.1719" y2="70.8834">
		<stop  offset="5.618000e-003" style="stop-color:#F58220"/>
		<stop  offset="0.1794" style="stop-color:#F58524"/>
		<stop  offset="0.3726" style="stop-color:#F68C32"/>
		<stop  offset="0.5751" style="stop-color:#F79948"/>
		<stop  offset="0.784" style="stop-color:#F8AA67"/>
		<stop  offset="0.9959" style="stop-color:#FAC08E"/>
		<stop  offset="1" style="stop-color:#FAC18F"/>
	</linearGradient>
	<path class="st3" d="M72.9,12.4L83,20.4l11.7-1.8l-5,7l9.9,8l-13.4-3.4l-5.6,6.9l-3.2-9.3L64,24l11.4-2.3L72.9,12.4L72.9,12.4z
		 M110.3,18.9l2.4,7.6l-9.6,1.9l11.3,3.1l2.9,7.5l4.6-5.6l11.4,2.7l-8.6-6.5l4.2-5.8l-9.9,1.5L110.3,18.9L110.3,18.9z M25.4,17.4
		L29,31.2l-16.7,3.6l19.4,5.4l4.5,13.7l8.3-10.4L64,48.3L49.6,36.7l7.5-10.6L40.1,29L25.4,17.4L25.4,17.4z M142.7,38.5l2.1,6
		l-7.9,1.6l9.4,2.3l2.5,5.9l3.7-4.5l9.5,2l-7.2-5l3.3-4.6l-8.1,1.3L142.7,38.5L142.7,38.5z M23.9,59.5l2.6,10l-12.2,2.8L28.5,76
		l3.2,9.9l6.1-7.6l14.3,3.2l-10.5-8.2l5.5-7.8l-12.5,2.4L23.9,59.5L23.9,59.5z M82.4,114.5l1.7,5.5l-7.2,1.9l8.5,1.6l2.1,5.4
		l3.5-4.4l8.6,1.4l-6.4-4.3l3.2-4.5l-7.4,1.7L82.4,114.5L82.4,114.5z M48.4,92.4l2.2,7.9l-10,2.5l11.6,2.6l2.7,7.8l4.9-6.2l11.7,2.2
		l-8.6-6.4l4.5-6.3l-10.2,2.2L48.4,92.4L48.4,92.4z M164.2,62.8l1.5,4.3l-5.7,1.1l6.8,1.7l1.8,4.3l2.7-3.3l6.9,1.5l-5.2-3.6l2.4-3.3
		l-5.9,0.9L164.2,62.8L164.2,62.8z M120.8,117.9l1.5,4.3l-5.7,1.1l6.8,1.7l1.8,4.3l2.7-3.3l6.9,1.5l-5.2-3.6l2.4-3.3l-5.9,0.9
		L120.8,117.9L120.8,117.9z"/>
</g>
</svg>
