<?xml version="1.0" encoding="UTF-8" standalone="no"?>
<!-- Created with Inkscape (http://www.inkscape.org/) -->
<svg
   xmlns:dc="http://purl.org/dc/elements/1.1/"
   xmlns:cc="http://web.resource.org/cc/"
   xmlns:rdf="http://www.w3.org/1999/02/22-rdf-syntax-ns#"
   xmlns:svg="http://www.w3.org/2000/svg"
   xmlns="http://www.w3.org/2000/svg"
   xmlns:xlink="http://www.w3.org/1999/xlink"
   xmlns:sodipodi="http://sodipodi.sourceforge.net/DTD/sodipodi-0.dtd"
   xmlns:inkscape="http://www.inkscape.org/namespaces/inkscape"
   id="svg2309"
   sodipodi:version="0.32"
   inkscape:version="0.45.1"
   width="1187.9243"
   height="563.8587"
   version="1.0"
   sodipodi:docbase="C:\Documents and Settings\Sigurd\Skrivebord\BILDER TIL WIKIPEDIA"
   sodipodi:docname="EFSA logo.svg"
   inkscape:output_extension="org.inkscape.output.svg.inkscape">
  <metadata
     id="metadata2314">
    <rdf:RDF>
      <cc:Work
         rdf:about="">
        <dc:format>image/svg+xml</dc:format>
        <dc:type
           rdf:resource="http://purl.org/dc/dcmitype/StillImage" />
      </cc:Work>
    </rdf:RDF>
  </metadata>
  <defs
     id="defs2312">
    <g
       id="s">
      <g
         id="c">
        <path
           transform="matrix(0.9510565,0.309017,-0.309017,0.9510565,0,-1)"
           d="M 0,0 L 0,1 L 0.5,1 L 0,0 z "
           id="t" />
        <use
           id="use3693"
           transform="scale(-1,1)"
           xlink:href="#t"
           x="0"
           y="0"
           width="1280"
           height="580" />
      </g>
      <g
         id="a">
        <use
           id="use3696"
           transform="matrix(0.309017,0.9510565,-0.9510565,0.309017,0,0)"
           xlink:href="#c"
           x="0"
           y="0"
           width="1280"
           height="580" />
        <use
           id="use3698"
           transform="matrix(-0.809017,0.5877853,-0.5877853,-0.809017,0,0)"
           xlink:href="#c"
           x="0"
           y="0"
           width="1280"
           height="580" />
      </g>
      <use
         id="use3700"
         transform="scale(-1,1)"
         xlink:href="#a"
         x="0"
         y="0"
         width="1280"
         height="580" />
    </g>
  </defs>
  <sodipodi:namedview
     inkscape:window-height="975"
     inkscape:window-width="1280"
     inkscape:pageshadow="2"
     inkscape:pageopacity="0.0"
     guidetolerance="10.0"
     gridtolerance="10.0"
     objecttolerance="10.0"
     borderopacity="1.0"
     bordercolor="#666666"
     pagecolor="#ffffff"
     id="base"
     inkscape:zoom="0.89855421"
     inkscape:cx="692.47091"
     inkscape:cy="275.53231"
     inkscape:window-x="-4"
     inkscape:window-y="-4"
     inkscape:current-layer="svg2309" />
  <path
     style="fill:#ef8104;fill-opacity:1;fill-rule:evenodd;stroke:none;stroke-width:1px;stroke-linecap:butt;stroke-linejoin:miter;stroke-opacity:1"
     d="M 8.9031912,66.508036 L 53.848092,57.7383 L 43.982138,18.274483 L 82.349735,51.160996 L 128.39086,44.583694 L 107.56273,70.892904 L 147.02655,103.77942 L 96.600562,89.528596 L 72.483782,116.93402 L 60.425391,79.662642 L 8.9031912,66.508036 z "
     id="path2318" />
  <path
     id="path2320"
     d="M 149.06373,37.255715 L 179.84144,31.250308 L 173.08536,4.2259776 L 199.35901,26.746253 L 230.88741,22.242198 L 216.62456,40.258418 L 243.6489,62.778697 L 209.11781,53.019908 L 192.60293,71.786805 L 184.3455,46.263826 L 149.06373,37.255715 z "
     style="fill:#f1902b;fill-opacity:1;fill-rule:evenodd;stroke:none;stroke-width:0.68478757px;stroke-linecap:butt;stroke-linejoin:miter;stroke-opacity:1" />
  <path
     style="fill:#ef8104;fill-opacity:1;fill-rule:evenodd;stroke:none;stroke-width:0.68478757px;stroke-linecap:butt;stroke-linejoin:miter;stroke-opacity:1"
     d="M 17.517684,166.60933 L 48.295391,160.60393 L 41.539313,133.5796 L 67.81296,156.09987 L 99.341354,151.59582 L 85.07851,169.61204 L 112.10284,192.13231 L 77.571755,182.37353 L 61.056881,201.14042 L 52.79945,175.61744 L 17.517684,166.60933 z "
     id="path2322" />
  <path
     id="path2324"
     d="M 87.5756,247.85 L 113.21584,242.80938 L 106.67685,220.12657 L 129.45315,239.02891 L 155.77172,235.24844 L 144.3791,250.37031 L 167.7855,269.27265 L 138.48836,261.08164 L 125.22963,276.83359 L 117.4787,255.41094 L 87.5756,247.85 z "
     style="fill:#f08617;fill-opacity:1;fill-rule:evenodd;stroke:none;stroke-width:0.5747748px;stroke-linecap:butt;stroke-linejoin:miter;stroke-opacity:1" />
  <path
     style="fill:#f4a04a;fill-opacity:1;fill-rule:evenodd;stroke:none;stroke-width:0.5747748px;stroke-linecap:butt;stroke-linejoin:miter;stroke-opacity:1"
     d="M 254.20059,49.434697 L 279.84084,44.394083 L 273.30184,21.71127 L 296.07815,40.613612 L 322.39671,36.833142 L 311.0041,51.955013 L 334.4105,70.857355 L 305.11335,62.666343 L 291.85463,78.418286 L 284.1037,56.995637 L 254.20059,49.434697 z "
     id="path2326" />
  <path
     id="path2328"
     d="M 348.77449,97.812968 L 368.0954,93.930096 L 361.12225,76.457108 L 380.28062,91.017922 L 400.23161,88.105758 L 392.74638,99.754413 L 412.39013,114.31523 L 389.12287,108.00555 L 380.25391,120.13955 L 372.45475,103.6373 L 348.77449,97.812968 z "
     style="fill:#f7b169;fill-opacity:1;fill-rule:evenodd;stroke:none;stroke-width:0.44275948px;stroke-linecap:butt;stroke-linejoin:miter;stroke-opacity:1" />
  <path
     id="path2330"
     d="M 407.65404,157.31174 L 423.13441,154.20069 L 417.54736,140.20093 L 432.89749,151.86739 L 448.88269,149.5341 L 442.88535,158.86727 L 458.62438,170.53374 L 439.98211,165.47828 L 432.87608,175.20032 L 426.62722,161.97833 L 407.65404,157.31174 z "
     style="fill:#f8b978;fill-opacity:1;fill-rule:evenodd;stroke:none;stroke-width:0.35474926px;stroke-linecap:butt;stroke-linejoin:miter;stroke-opacity:1" />
  <path
     style="fill:#f4a14d;fill-opacity:1;fill-rule:evenodd;stroke:none;stroke-width:0.33274671px;stroke-linecap:butt;stroke-linejoin:miter;stroke-opacity:1"
     d="M 291.93948,306.42139 L 306.45971,303.5033 L 301.21918,290.37184 L 315.61725,301.31471 L 330.61101,299.12614 L 324.98564,307.88044 L 339.74848,318.82332 L 322.26247,314.08141 L 315.59718,323.20046 L 309.73588,310.79854 L 291.93948,306.42139 z "
     id="path2332" />
  <path
     style="fill:#f1902c;fill-opacity:1;fill-rule:evenodd;stroke:none;stroke-width:0.44275948px;stroke-linecap:butt;stroke-linejoin:miter;stroke-opacity:1"
     d="M 182.14948,299.51692 L 201.47039,295.63405 L 194.49725,278.16105 L 213.65561,292.72187 L 233.60661,289.80971 L 226.12137,301.45837 L 245.76512,316.01918 L 222.49786,309.7095 L 213.6289,321.8435 L 205.82974,305.34125 L 182.14948,299.51692 z "
     id="path2334" />
  <g
     id="g3734"
     transform="matrix(0.2115684,0,0,0.2115684,1007.6508,290.56426)"
     style="fill:#004494;fill-opacity:1">
    <rect
       id="rect3702"
       height="540"
       width="810"
       x="0"
       y="0"
       style="fill:#004494;fill-opacity:1" />
    <g
       id="g3704"
       transform="matrix(30,0,0,30,405,270)"
       style="fill:#ffec00;fill-opacity:1">
      <use
         id="use3706"
         y="-6"
         xlink:href="#s"
         x="0"
         width="1280"
         height="580"
         style="fill:#ffec00;fill-opacity:1" />
      <use
         id="use3708"
         y="6"
         xlink:href="#s"
         x="0"
         width="1280"
         height="580"
         style="fill:#ffec00;fill-opacity:1" />
      <g
         id="l"
         style="fill:#ffec00;fill-opacity:1">
        <use
           id="use3711"
           x="-6"
           xlink:href="#s"
           y="0"
           width="1280"
           height="580"
           style="fill:#ffec00;fill-opacity:1" />
        <use
           id="use3713"
           transform="matrix(-0.809017,-0.5877853,0.5877853,-0.809017,-3,-5.1961524)"
           xlink:href="#s"
           x="0"
           y="0"
           width="1280"
           height="580"
           style="fill:#ffec00;fill-opacity:1" />
        <use
           id="use3715"
           transform="matrix(-0.809017,0.5877853,-0.5877853,-0.809017,-5.1961524,-3)"
           xlink:href="#s"
           x="0"
           y="0"
           width="1280"
           height="580"
           style="fill:#ffec00;fill-opacity:1" />
        <use
           id="use3717"
           transform="matrix(0.309017,0.9510565,-0.9510565,0.309017,-5.1961524,3)"
           xlink:href="#s"
           x="0"
           y="0"
           width="1280"
           height="580"
           style="fill:#ffec00;fill-opacity:1" />
        <use
           id="use3719"
           transform="matrix(0.309017,0.9510565,-0.9510565,0.309017,-3,5.1961524)"
           xlink:href="#s"
           x="0"
           y="0"
           width="1280"
           height="580"
           style="fill:#ffec00;fill-opacity:1" />
      </g>
      <use
         id="use3721"
         transform="scale(-1,1)"
         xlink:href="#l"
         x="0"
         y="0"
         width="1280"
         height="580"
         style="fill:#ffec00;fill-opacity:1" />
    </g>
  </g>
  <path
     transform="scale(0.9906244,1.0094644)"
     style="font-size:365.75961304px;font-style:normal;font-weight:normal;fill:#004494;fill-opacity:1;stroke:#004494;stroke-width:2.26552415;stroke-linecap:butt;stroke-linejoin:miter;stroke-miterlimit:4;stroke-opacity:1;font-family:Bitstream Vera Sans"
     d="M 462.96394,250.5764 C 456.65354,250.57655 450.78973,251.8267 445.37247,254.32687 C 439.95506,256.82732 435.22234,260.22059 431.17428,264.5067 C 427.12611,268.79308 423.85189,273.82346 421.35164,279.59785 C 418.85128,285.37249 417.30347,291.53397 416.7082,298.08229 L 502.43311,298.08229 C 502.43298,291.4149 501.56978,285.1939 499.84351,279.41926 C 498.11697,273.64486 495.5869,268.61448 492.25328,264.3281 C 488.91942,260.042 484.81177,256.67849 479.93033,254.23757 C 475.04866,251.79694 469.39321,250.57655 462.96394,250.5764 L 462.96394,250.5764 z M 478.14439,381.30689 C 487.31207,381.30691 495.6762,380.56277 503.23679,379.07447 C 510.7971,377.58621 518.32779,375.47286 525.82887,372.7344 L 525.82887,395.77297 C 519.75654,398.74953 512.25562,401.10101 503.32608,402.82741 C 494.39628,404.55381 484.81177,405.41701 474.57252,405.41702 C 462.42806,405.41701 451.02785,403.8692 440.37185,400.77359 C 429.71571,397.67797 420.39909,392.67735 412.42196,385.77173 C 404.44475,378.86613 398.16421,369.84716 393.58034,358.7148 C 388.99642,347.58252 386.70447,334.15825 386.70449,318.44195 C 386.70447,302.96394 388.84759,289.53967 393.13385,278.16911 C 397.42007,266.79878 403.13506,257.30357 410.27884,249.68343 C 417.42253,242.0636 425.63783,236.34861 434.92475,232.53845 C 444.21154,228.72863 453.91511,226.82363 464.0355,226.82346 C 473.56038,226.82363 482.46029,228.40121 490.73524,231.55619 C 499.00994,234.71151 506.18344,239.68235 512.25576,246.46875 C 518.32779,253.25545 523.12005,262.00653 526.63254,272.722 C 530.14472,283.43773 531.90089,296.29646 531.90105,311.29821 C 531.90089,312.72705 531.90089,313.94744 531.90105,314.95938 C 531.90089,315.97149 531.84136,318.26344 531.72246,321.83523 L 415.27946,321.83523 C 415.27941,332.66998 416.91652,341.86753 420.19078,349.42794 C 423.46494,356.98844 427.92978,363.12015 433.5853,367.82307 C 439.24069,372.52607 445.87841,375.94911 453.49848,378.0922 C 461.11838,380.23535 469.33367,381.30691 478.14439,381.30689 L 478.14439,381.30689 z M 677.09762,164.13712 C 673.52563,163.42298 669.59657,162.8872 665.31045,162.52977 C 661.02409,162.17283 657.33316,161.99423 654.23764,161.99399 C 648.0463,161.99423 642.48014,162.76814 637.53915,164.31571 C 632.59798,165.86376 628.46056,168.3343 625.12689,171.72734 C 621.79308,175.12085 619.23324,179.58568 617.44737,185.12186 C 615.66137,190.65847 614.7684,197.35572 614.76847,205.21364 L 614.76847,231.2883 L 665.31045,231.2883 L 665.31045,255.04124 L 614.76847,255.04124 L 614.76847,400.95218 L 587.08647,400.95218 L 587.08647,255.04124 L 557.26134,255.04124 L 557.26134,231.2883 L 587.08647,231.2883 L 587.08647,205.39223 C 587.08643,193.12901 588.72354,182.80036 591.99779,174.40625 C 595.27196,166.01258 599.76656,159.10697 605.4816,153.68939 C 611.19654,148.27231 617.92355,144.28372 625.66267,141.72363 C 633.40165,139.16405 641.73601,137.88413 650.66577,137.88386 C 656.38066,137.88413 661.64917,138.18178 666.4713,138.77683 C 671.29321,139.3724 674.83531,140.02725 677.09762,140.74136 L 677.09762,164.13712 z M 712.99492,276.47247 C 712.99487,281.11602 714.0069,284.92601 716.03101,287.90245 C 718.05502,290.87912 720.76368,293.29013 724.15701,295.13549 C 727.55023,296.98106 731.47929,298.49911 735.94419,299.68963 C 740.40896,300.88035 745.02262,301.95191 749.78519,302.90431 C 756.33353,304.33316 762.52477,305.91073 768.35892,307.63704 C 774.19287,309.36354 779.58044,311.95314 784.52164,315.40586 C 789.46261,318.85875 793.45119,323.53195 796.48741,329.42546 C 799.52337,335.31911 801.04141,342.96886 801.04154,352.37473 C 801.04141,360.94726 799.37454,368.53748 796.04092,375.14541 C 792.70705,381.75339 788.00409,387.28979 781.93203,391.75461 C 775.85974,396.21945 768.59695,399.61273 760.14362,401.93444 C 751.69011,404.25616 742.40325,405.41701 732.28302,405.41702 C 726.09172,405.41701 720.46603,405.08959 715.40593,404.43475 C 710.34574,403.77991 705.8809,402.94647 702.01141,401.93444 C 698.14186,400.92241 694.83788,399.88062 692.09947,398.80906 C 689.36102,397.7375 687.09883,396.72547 685.31292,395.77297 L 685.31292,372.5558 C 692.45663,375.41333 699.54084,377.67551 706.56555,379.34236 C 713.59018,381.00925 721.32923,381.84269 729.78271,381.84267 C 736.45014,381.84269 742.46278,381.24738 747.82066,380.05673 C 753.17838,378.86613 757.79205,377.10996 761.66166,374.78822 C 765.53109,372.46653 768.50765,369.54951 770.59134,366.03714 C 772.67483,362.52484 773.71662,358.44695 773.71673,353.80348 C 773.71662,349.04104 772.76412,345.11198 770.85923,342.0163 C 768.95413,338.92074 766.39429,336.36091 763.17971,334.33678 C 759.96493,332.31279 756.24424,330.64592 752.01761,329.33616 C 747.79082,328.02655 743.35575,326.83593 738.71239,325.76429 C 732.64014,324.45468 726.47867,322.90687 720.22796,321.12086 C 713.97714,319.335 708.29191,316.8347 703.17227,313.61993 C 698.05256,310.40533 693.91515,306.0298 690.76002,300.4933 C 687.60485,294.95701 686.02727,287.84304 686.02729,279.15137 C 686.02727,270.22182 687.63461,262.48278 690.84932,255.93421 C 694.06397,249.38593 698.40975,243.9686 703.88665,239.68219 C 709.36347,235.39611 715.7333,232.18143 722.99616,230.03814 C 730.2589,227.89519 737.93842,226.82363 746.03473,226.82346 C 755.44057,226.82363 764.16188,227.7166 772.19868,229.50236 C 780.23528,231.28847 787.52784,233.55065 794.07639,236.28892 L 794.07639,259.86327 C 786.93253,257.12497 779.6995,254.89256 772.37728,253.16601 C 765.05484,251.43975 757.52416,250.51702 749.78519,250.39781 C 743.23669,250.39796 737.64076,251.0528 732.9974,252.36234 C 728.3539,253.67217 724.54391,255.48787 721.56741,257.80944 C 718.5908,260.1313 716.41791,262.86973 715.04874,266.02474 C 713.67948,269.18003 712.99487,272.6626 712.99492,276.47247 L 712.99492,276.47247 z M 942.30907,382.19986 L 941.5947,382.19986 C 939.33239,385.05737 936.47489,387.8851 933.0222,390.68305 C 929.56928,393.48102 925.5807,395.98133 921.05644,398.18398 C 916.53197,400.38663 911.59088,402.1428 906.23317,403.45249 C 900.87528,404.76217 895.16029,405.41701 889.08819,405.41702 C 880.87282,405.41701 873.34213,404.19663 866.4961,401.75585 C 859.64997,399.31507 853.75639,395.74321 848.81534,391.04024 C 843.87422,386.33729 840.03447,380.59253 837.29606,373.80596 C 834.5576,367.01944 833.18839,359.33992 833.1884,350.76739 C 833.18839,342.31402 834.70643,334.75357 837.74254,328.08601 C 840.77861,321.41859 845.03508,315.76314 850.51198,311.11962 C 855.98881,306.47628 862.567,302.90441 870.24657,300.404 C 877.92603,297.9038 886.40921,296.65364 895.69615,296.65354 C 904.50668,296.77271 912.66244,297.54661 920.16347,298.97526 C 927.66429,300.4041 934.33177,302.19004 940.16595,304.33306 L 940.88032,304.33306 L 940.88032,292.54589 C 940.8802,287.90257 940.58254,283.79492 939.98735,280.22293 C 939.39192,276.65118 938.37989,273.49604 936.95126,270.75747 C 933.85552,265.04261 928.91444,260.30989 922.128,256.55928 C 915.34134,252.80897 906.17355,250.93374 894.62459,250.93359 C 886.05203,250.93374 877.98556,251.73741 870.42516,253.3446 C 862.86465,254.95209 855.33397,257.18451 847.83308,260.04186 L 847.83308,236.8247 C 850.69054,235.39611 854.05405,234.05666 857.92361,232.80634 C 861.79309,231.55636 865.87098,230.4848 870.15727,229.59166 C 874.44346,228.69886 878.96782,228.01425 883.73038,227.53783 C 888.4928,227.06176 893.25529,226.82363 898.01787,226.82346 C 915.16275,226.82363 929.18233,229.85972 940.07665,235.93173 C 950.97072,242.00407 958.79907,250.04077 963.5617,260.04186 C 965.34749,263.85199 966.62741,268.04894 967.40146,272.63271 C 968.17522,277.21673 968.56217,282.24711 968.56232,287.72386 L 968.56232,400.95218 L 945.34516,400.95218 L 942.30907,382.19986 z M 940.88032,326.47866 C 935.76052,325.04999 929.68834,323.68078 922.66378,322.37101 C 915.639,321.06141 907.89995,320.34703 899.44661,320.22789 C 887.65937,320.22797 878.43204,322.72828 871.76461,327.72882 C 865.09707,332.72951 861.76333,340.40902 861.76337,350.76739 C 861.76333,356.00618 862.59676,360.59007 864.26368,364.51909 C 865.93051,368.44818 868.22246,371.69263 871.13954,374.25244 C 874.05651,376.81231 877.50931,378.7173 881.49796,379.96744 C 885.48648,381.21761 889.74296,381.84269 894.2674,381.84267 C 900.22044,381.84269 905.75683,380.97949 910.8766,379.25306 C 915.99619,377.52668 920.55032,375.47286 924.53901,373.09158 C 928.52749,370.71037 931.92076,368.32912 934.71884,365.94784 C 937.51669,363.56663 939.57051,361.72117 940.88032,360.41144 L 940.88032,326.47866 z "
     id="text3747" />
  <path
     transform="scale(0.9828868,1.0174111)"
     style="font-size:345.55584717px;font-style:normal;font-weight:normal;fill:#004494;fill-opacity:1;stroke:#004494;stroke-width:1.28051364;stroke-linecap:butt;stroke-linejoin:miter;stroke-miterlimit:4;stroke-opacity:1;font-family:Bitstream Vera Sans"
     d="M 12.781545,531.80035 L 12.781545,471.8475 L 56.130814,471.8475 L 56.130814,478.92243 L 20.715279,478.92243 L 20.715279,497.28452 L 53.88156,497.28452 L 53.88156,504.31855 L 20.715279,504.31855 L 20.715279,524.72543 L 57.521262,524.72543 L 57.521262,531.80035 L 12.781545,531.80035 z M 96.085754,531.80035 L 96.085754,525.42065 C 92.705026,530.32812 88.111099,532.78185 82.303959,532.78185 C 79.741154,532.78185 77.348767,532.2911 75.126792,531.30961 C 72.90479,530.32812 71.255339,529.09444 70.178432,527.60856 C 69.101509,526.1227 68.344942,524.30285 67.90873,522.14901 C 67.608824,520.70404 67.458873,518.4139 67.458879,515.27856 L 67.458879,488.36929 L 74.820075,488.36929 L 74.820075,512.45677 C 74.820063,516.30096 74.970013,518.89101 75.269926,520.22692 C 75.733395,522.16265 76.714887,523.6826 78.214405,524.78677 C 79.71389,525.89095 81.567819,526.44304 83.776198,526.44304 C 85.984533,526.44304 88.056571,525.87732 89.992319,524.74587 C 91.928012,523.61444 93.298011,522.07404 94.102321,520.12468 C 94.906567,518.17534 95.308706,515.34673 95.308739,511.63885 L 95.308739,488.36929 L 102.66994,488.36929 L 102.66994,531.80035 L 96.085754,531.80035 z M 114.16158,531.80035 L 114.16158,488.36929 L 120.78666,488.36929 L 120.78666,494.95348 C 122.477,491.87272 124.03784,489.84158 125.4692,488.86004 C 126.90053,487.87859 128.475,487.38785 130.19263,487.3878 C 132.67361,487.38785 135.1955,488.17849 137.75831,489.75974 L 135.22279,496.5893 C 133.42336,495.52605 131.62396,494.99441 129.82457,494.99437 C 128.216,494.99441 126.77102,495.47834 125.48965,496.44616 C 124.20824,497.41406 123.29491,498.75679 122.74965,500.47437 C 121.93172,503.09172 121.52277,505.9544 121.52278,509.06244 L 121.52278,531.80035 L 114.16158,531.80035 z M 139.47592,510.08482 C 139.47592,502.04207 141.71154,496.08495 146.18279,492.21347 C 149.9179,488.9964 154.47094,487.38785 159.8419,487.3878 C 165.81262,487.38785 170.69282,489.34401 174.4825,493.25631 C 178.27211,497.16869 180.16694,502.57371 180.16698,509.47139 C 180.16694,515.06046 179.32858,519.45673 177.65191,522.6602 C 175.97515,525.86369 173.53505,528.3515 170.33161,530.12364 C 167.12809,531.89578 163.63153,532.78185 159.8419,532.78185 C 153.76208,532.78185 148.84781,530.83249 145.09906,526.93379 C 141.3503,523.03509 139.47592,517.41877 139.47592,510.08482 L 139.47592,510.08482 z M 147.0416,510.08482 C 147.04159,515.64663 148.25482,519.81116 150.6813,522.57841 C 153.10775,525.34568 156.16128,526.72931 159.8419,526.72931 C 163.49521,526.72931 166.53511,525.33887 168.96161,522.55796 C 171.38804,519.77708 172.60127,515.53758 172.60131,509.83945 C 172.60127,504.46853 171.38122,500.39943 168.94116,497.63213 C 166.50103,494.86491 163.46795,493.48127 159.8419,493.48124 C 156.16128,493.48127 153.10775,494.85809 150.6813,497.61169 C 148.25482,500.36535 147.04159,504.52306 147.0416,510.08482 L 147.0416,510.08482 z M 188.83684,548.44484 L 188.83684,488.36929 L 195.5437,488.36929 L 195.5437,494.01288 C 197.12498,491.80456 198.91075,490.14829 200.90102,489.04407 C 202.89125,487.93993 205.30408,487.38785 208.13953,487.3878 C 211.84736,487.38785 215.119,488.34207 217.95446,490.25049 C 220.78984,492.15899 222.93004,494.85127 224.37506,498.32736 C 225.81999,501.80351 226.54248,505.6136 226.54252,509.75766 C 226.54248,514.20166 225.74501,518.2026 224.15013,521.7605 C 222.55517,525.31842 220.23775,528.04478 217.19789,529.93961 C 214.15796,531.83443 210.96129,532.78185 207.60789,532.78185 C 205.15413,532.78185 202.95259,532.26384 201.00326,531.22782 C 199.05389,530.1918 197.45215,528.88314 196.19803,527.30184 L 196.19803,548.44484 L 188.83684,548.44484 z M 195.50281,510.3302 C 195.5028,515.91927 196.63424,520.04971 198.89714,522.72154 C 201.16001,525.39339 203.9,526.72931 207.11714,526.72931 C 210.38876,526.72931 213.1901,525.34568 215.52117,522.57841 C 217.85218,519.81116 219.01771,515.52395 219.01774,509.71676 C 219.01771,504.18226 217.87945,500.03819 215.60296,497.28452 C 213.32642,494.53093 210.60687,493.15411 207.4443,493.15407 C 204.30896,493.15411 201.53488,494.61953 199.12206,497.55034 C 196.70921,500.48122 195.5028,504.74117 195.50281,510.3302 L 195.50281,510.3302 z M 265.1888,517.81408 L 272.79537,518.75468 C 271.59573,523.19867 269.37374,526.64752 266.1294,529.10125 C 262.88499,531.55498 258.74091,532.78185 253.69716,532.78185 C 247.3447,532.78185 242.30774,530.82568 238.58625,526.91334 C 234.86476,523.00101 233.00401,517.51419 233.00401,510.45288 C 233.00401,503.14624 234.8852,497.4754 238.6476,493.44034 C 242.40997,489.40536 247.29017,487.38785 253.2882,487.3878 C 259.09534,487.38785 263.83921,489.36446 267.51985,493.31765 C 271.2004,497.27092 273.0407,502.83271 273.04074,510.00303 C 273.0407,510.43927 273.02707,511.0936 272.99985,511.96602 L 240.61058,511.96602 C 240.88321,516.73718 242.23276,520.39051 244.65924,522.92602 C 247.08569,525.46155 250.11196,526.72931 253.73805,526.72931 C 256.43713,526.72931 258.74091,526.02046 260.6494,524.60274 C 262.55782,523.18504 264.07096,520.92215 265.1888,517.81408 L 265.1888,517.81408 z M 241.01954,505.91348 L 265.27059,505.91348 C 264.94339,502.26017 264.01643,499.52018 262.4897,497.69348 C 260.14499,494.85809 257.10509,493.44038 253.36999,493.44034 C 249.98927,493.44038 247.14704,494.57182 244.84327,496.83467 C 242.53948,499.09759 241.2649,502.12386 241.01954,505.91348 L 241.01954,505.91348 z M 310.41925,526.44304 C 307.69285,528.76046 305.06872,530.39628 302.54686,531.3505 C 300.02494,532.30473 297.31902,532.78185 294.42909,532.78185 C 289.65793,532.78185 285.99097,531.61632 283.42819,529.28528 C 280.8654,526.95424 279.58401,523.97568 279.58401,520.3496 C 279.58401,518.22305 280.06794,516.28051 281.03581,514.52199 C 282.00366,512.7635 283.27142,511.35261 284.83909,510.2893 C 286.40674,509.22604 288.17206,508.42176 290.13506,507.87647 C 291.58002,507.4948 293.76112,507.12674 296.67835,506.77229 C 302.62181,506.06346 306.99762,505.21828 309.80582,504.23676 C 309.83305,503.22803 309.84668,502.58734 309.84671,502.31467 C 309.84668,499.3157 309.15145,497.20276 307.76104,495.97586 C 305.87981,494.31282 303.08529,493.48127 299.37745,493.48124 C 295.91495,493.48127 293.35898,494.08789 291.70954,495.30109 C 290.06007,496.51436 288.84002,498.66137 288.04939,501.74213 L 280.85178,500.76064 C 281.5061,497.67988 282.58301,495.19207 284.08252,493.29721 C 285.58202,491.40242 287.74948,489.94381 290.58491,488.92138 C 293.42032,487.89904 296.70559,487.38785 300.44074,487.3878 C 304.14857,487.38785 307.16121,487.82406 309.47865,488.69646 C 311.79603,489.56894 313.50001,490.6663 314.59059,491.98855 C 315.6811,493.31088 316.44448,494.98078 316.88074,496.99825 C 317.12608,498.25242 317.24876,500.5153 317.2488,503.78691 L 317.2488,513.60184 C 317.24876,520.44504 317.40553,524.77314 317.7191,526.58617 C 318.03259,528.39921 318.65284,530.13727 319.57985,531.80035 L 311.89149,531.80035 C 311.12807,530.27359 310.63732,528.48782 310.41925,526.44304 L 310.41925,526.44304 z M 309.80582,510.00303 C 307.13394,511.0936 303.12618,512.02057 297.78253,512.78393 C 294.75624,513.22017 292.61604,513.71091 291.36193,514.25617 C 290.10778,514.80146 289.13992,515.59892 288.45835,516.64856 C 287.77674,517.69822 287.43595,518.86375 287.43596,520.14513 C 287.43595,522.10812 288.17888,523.74394 289.66476,525.05259 C 291.15062,526.36125 293.3249,527.01558 296.1876,527.01558 C 299.023,527.01558 301.54489,526.39533 303.75328,525.15483 C 305.96161,523.91434 307.58379,522.21718 308.61984,520.06334 C 309.41046,518.40026 309.80578,515.94653 309.80582,512.70214 L 309.80582,510.00303 z M 328.69955,531.80035 L 328.69955,488.36929 L 335.32463,488.36929 L 335.32463,494.54452 C 338.51447,489.77342 343.12202,487.38785 349.14732,487.3878 C 351.76461,487.38785 354.17062,487.85814 356.36538,488.7987 C 358.56007,489.73934 360.20271,490.97302 361.29329,492.49974 C 362.3838,494.02655 363.14719,495.83958 363.58344,497.93885 C 363.85604,499.30207 363.99236,501.68764 363.9924,505.09557 L 363.9924,531.80035 L 356.6312,531.80035 L 356.6312,505.38184 C 356.63117,502.38286 356.3449,500.14042 355.7724,498.65452 C 355.19983,497.16869 354.18426,495.98272 352.72568,495.09661 C 351.26704,494.21058 349.55625,493.76754 347.59329,493.76751 C 344.45794,493.76754 341.75203,494.76267 339.47553,496.75288 C 337.19899,498.74316 336.06074,502.51918 336.06075,508.08094 L 336.06075,531.80035 L 328.69955,531.80035 z M 399.89868,531.80035 L 399.89868,471.8475 L 440.34437,471.8475 L 440.34437,478.92243 L 407.83242,478.92243 L 407.83242,497.489 L 435.96855,497.489 L 435.96855,504.56393 L 407.83242,504.56393 L 407.83242,531.80035 L 399.89868,531.80035 z M 447.01033,510.08482 C 447.01033,502.04207 449.24595,496.08495 453.7172,492.21347 C 457.45231,488.9964 462.00534,487.38785 467.37631,487.3878 C 473.34703,487.38785 478.22722,489.34401 482.01691,493.25631 C 485.80652,497.16869 487.70135,502.57371 487.70139,509.47139 C 487.70135,515.06046 486.86299,519.45673 485.18632,522.6602 C 483.50956,525.86369 481.06946,528.3515 477.86601,530.12364 C 474.6625,531.89578 471.16594,532.78185 467.37631,532.78185 C 461.29649,532.78185 456.38221,530.83249 452.63347,526.93379 C 448.88471,523.03509 447.01033,517.41877 447.01033,510.08482 L 447.01033,510.08482 z M 454.57601,510.08482 C 454.576,515.64663 455.78923,519.81116 458.21571,522.57841 C 460.64216,525.34568 463.69569,526.72931 467.37631,526.72931 C 471.02962,526.72931 474.06952,525.33887 476.49601,522.55796 C 478.92245,519.77708 480.13568,515.53758 480.13572,509.83945 C 480.13568,504.46853 478.91563,500.39943 476.47557,497.63213 C 474.03544,494.86491 471.00235,493.48127 467.37631,493.48124 C 463.69569,493.48127 460.64216,494.85809 458.21571,497.61169 C 455.78923,500.36535 454.576,504.52306 454.57601,510.08482 L 454.57601,510.08482 z M 493.63124,510.08482 C 493.63124,502.04207 495.86686,496.08495 500.33811,492.21347 C 504.07322,488.9964 508.62626,487.38785 513.99722,487.3878 C 519.96794,487.38785 524.84814,489.34401 528.63782,493.25631 C 532.42743,497.16869 534.32226,502.57371 534.3223,509.47139 C 534.32226,515.06046 533.4839,519.45673 531.80723,522.6602 C 530.13047,525.86369 527.69037,528.3515 524.48693,530.12364 C 521.28341,531.89578 517.78685,532.78185 513.99722,532.78185 C 507.9174,532.78185 503.00312,530.83249 499.25438,526.93379 C 495.50562,523.03509 493.63124,517.41877 493.63124,510.08482 L 493.63124,510.08482 z M 501.19692,510.08482 C 501.19691,515.64663 502.41014,519.81116 504.83662,522.57841 C 507.26307,525.34568 510.3166,526.72931 513.99722,526.72931 C 517.65053,526.72931 520.69043,525.33887 523.11692,522.55796 C 525.54336,519.77708 526.75659,515.53758 526.75663,509.83945 C 526.75659,504.46853 525.53654,500.39943 523.09648,497.63213 C 520.65635,494.86491 517.62326,493.48127 513.99722,493.48124 C 510.3166,493.48127 507.26307,494.85809 504.83662,497.61169 C 502.41014,500.36535 501.19691,504.52306 501.19692,510.08482 L 501.19692,510.08482 z M 571.16921,531.80035 L 571.16921,526.32035 C 568.41555,530.62802 564.36689,532.78185 559.02324,532.78185 C 555.56073,532.78185 552.3777,531.82762 549.47413,529.91916 C 546.57054,528.0107 544.32128,525.34568 542.72636,521.92408 C 541.13143,518.5025 540.33397,514.56972 540.33398,510.12572 C 540.33397,505.79082 541.05646,501.85804 542.50144,498.32736 C 543.94641,494.79675 546.11387,492.09083 549.00383,490.20959 C 551.89377,488.32844 555.12451,487.38785 558.69607,487.3878 C 561.31336,487.38785 563.6444,487.93993 565.68921,489.04407 C 567.73395,490.14829 569.39704,491.58645 570.67846,493.35855 L 570.67846,471.8475 L 577.99876,471.8475 L 577.99876,531.80035 L 571.16921,531.80035 z M 547.89965,510.12572 C 547.89964,515.68753 549.07198,519.84524 551.41667,522.59886 C 553.76133,525.3525 556.52859,526.72931 559.71846,526.72931 C 562.93555,526.72931 565.66873,525.41384 567.91801,522.78289 C 570.16724,520.15195 571.29186,516.13738 571.2919,510.73915 C 571.29186,504.7957 570.14679,500.43351 567.85667,497.65258 C 565.56649,494.87172 562.7447,493.48127 559.3913,493.48124 C 556.11963,493.48127 553.38645,494.81719 551.19174,497.489 C 548.997,500.16087 547.89964,504.37311 547.89965,510.12572 L 547.89965,510.12572 z M 611.08323,512.53856 L 618.56711,511.88423 C 618.92152,514.88325 619.74625,517.3438 621.04129,519.26587 C 622.3363,521.18797 624.34699,522.742 627.07338,523.92796 C 629.79973,525.11394 632.86689,525.70693 636.27488,525.70692 C 639.30111,525.70693 641.97295,525.25707 644.2904,524.35737 C 646.60778,523.45767 648.3322,522.22399 649.46369,520.65632 C 650.59509,519.08867 651.16081,517.37788 651.16085,515.52393 C 651.16081,513.64275 650.61553,512.00012 649.52503,510.59602 C 648.43444,509.19196 646.63504,508.01281 644.12682,507.05855 C 642.51823,506.43151 638.96032,505.45684 633.45308,504.13452 C 627.9458,502.81226 624.08799,501.56495 621.87965,500.39258 C 619.01695,498.89311 616.88357,497.03237 615.4795,494.81034 C 614.07541,492.58839 613.37337,490.10058 613.37338,487.34691 C 613.37337,484.32068 614.23217,481.49208 615.94979,478.86108 C 617.6674,476.23019 620.17565,474.23313 623.47457,472.86989 C 626.77346,471.50676 630.44042,470.82517 634.47547,470.82511 C 638.91942,470.82517 642.83857,471.54084 646.23294,472.97212 C 649.62723,474.40353 652.23772,476.50964 654.06443,479.29049 C 655.89105,482.07143 656.87254,485.22038 657.00891,488.73735 L 649.40234,489.30989 C 648.99335,485.52028 647.60972,482.6576 645.25145,480.72183 C 642.8931,478.78616 639.41017,477.8183 634.80264,477.81825 C 630.0042,477.8183 626.50764,478.69755 624.31293,480.45601 C 622.11819,482.21457 621.02083,484.33432 621.02084,486.81526 C 621.02083,488.96914 621.79784,490.74128 623.35189,492.13168 C 624.87864,493.52217 628.86595,494.9467 635.31383,496.40527 C 641.76166,497.86391 646.18519,499.13848 648.58443,500.229 C 652.07414,501.83759 654.65056,503.87555 656.31369,506.34288 C 657.97672,508.81027 658.80827,511.65251 658.80832,514.8696 C 658.80827,518.05947 657.89493,521.06529 656.06832,523.88707 C 654.2416,526.70886 651.61747,528.90359 648.19592,530.47125 C 644.77429,532.03891 640.9233,532.82274 636.64294,532.82274 C 631.21744,532.82274 626.67122,532.0321 623.00427,530.4508 C 619.3373,528.86951 616.46098,526.49076 614.37532,523.31453 C 612.28964,520.13832 611.19228,516.54633 611.08323,512.53856 L 611.08323,512.53856 z M 697.12747,526.44304 C 694.40107,528.76046 691.77694,530.39628 689.25508,531.3505 C 686.73316,532.30473 684.02725,532.78185 681.13731,532.78185 C 676.36616,532.78185 672.69919,531.61632 670.13642,529.28528 C 667.57362,526.95424 666.29223,523.97568 666.29224,520.3496 C 666.29223,518.22305 666.77616,516.28051 667.74403,514.52199 C 668.71188,512.7635 669.97964,511.35261 671.54731,510.2893 C 673.11496,509.22604 674.88029,508.42176 676.84328,507.87647 C 678.28824,507.4948 680.46934,507.12674 683.38657,506.77229 C 689.33003,506.06346 693.70585,505.21828 696.51404,504.23676 C 696.54127,503.22803 696.5549,502.58734 696.55493,502.31467 C 696.5549,499.3157 695.85968,497.20276 694.46926,495.97586 C 692.58804,494.31282 689.79351,493.48127 686.08567,493.48124 C 682.62317,493.48127 680.0672,494.08789 678.41776,495.30109 C 676.76829,496.51436 675.54825,498.66137 674.75761,501.74213 L 667.56,500.76064 C 668.21432,497.67988 669.29124,495.19207 670.79074,493.29721 C 672.29024,491.40242 674.4577,489.94381 677.29313,488.92138 C 680.12854,487.89904 683.41381,487.38785 687.14896,487.3878 C 690.85679,487.38785 693.86943,487.82406 696.18687,488.69646 C 698.50425,489.56894 700.20823,490.6663 701.29881,491.98855 C 702.38932,493.31088 703.15271,494.98078 703.58896,496.99825 C 703.8343,498.25242 703.95698,500.5153 703.95702,503.78691 L 703.95702,513.60184 C 703.95698,520.44504 704.11375,524.77314 704.42732,526.58617 C 704.74081,528.39921 705.36106,530.13727 706.28807,531.80035 L 698.59971,531.80035 C 697.83629,530.27359 697.34555,528.48782 697.12747,526.44304 L 697.12747,526.44304 z M 696.51404,510.00303 C 693.84216,511.0936 689.83441,512.02057 684.49075,512.78393 C 681.46446,513.22017 679.32426,513.71091 678.07015,514.25617 C 676.81601,514.80146 675.84815,515.59892 675.16657,516.64856 C 674.48496,517.69822 674.14417,518.86375 674.14418,520.14513 C 674.14417,522.10812 674.8871,523.74394 676.37298,525.05259 C 677.85884,526.36125 680.03312,527.01558 682.89582,527.01558 C 685.73122,527.01558 688.25311,526.39533 690.4615,525.15483 C 692.66983,523.91434 694.29201,522.21718 695.32807,520.06334 C 696.11868,518.40026 696.514,515.94653 696.51404,512.70214 L 696.51404,510.00303 z M 717.16628,531.80035 L 717.16628,494.09467 L 710.66389,494.09467 L 710.66389,488.36929 L 717.16628,488.36929 L 717.16628,483.7481 C 717.16627,480.83093 717.42528,478.66347 717.9433,477.24571 C 718.65214,475.33731 719.89946,473.79009 721.68524,472.60406 C 723.471,471.41815 725.97244,470.82517 729.18957,470.82511 C 731.26159,470.82517 733.55174,471.07054 736.06002,471.56123 L 734.95584,477.98183 C 733.42905,477.70925 731.98408,477.57293 730.62091,477.57287 C 728.38527,477.57293 726.80398,478.05004 725.87703,479.00422 C 724.95005,479.9585 724.48657,481.74427 724.48658,484.36153 L 724.48658,488.36929 L 732.95196,488.36929 L 732.95196,494.09467 L 724.48658,494.09467 L 724.48658,531.80035 L 717.16628,531.80035 z M 768.36747,517.81408 L 775.97404,518.75468 C 774.77439,523.19867 772.5524,526.64752 769.30806,529.10125 C 766.06365,531.55498 761.91957,532.78185 756.87582,532.78185 C 750.52336,532.78185 745.4864,530.82568 741.76492,526.91334 C 738.04342,523.00101 736.18268,517.51419 736.18268,510.45288 C 736.18268,503.14624 738.06387,497.4754 741.82626,493.44034 C 745.58864,489.40536 750.46884,487.38785 756.46687,487.3878 C 762.274,487.38785 767.01788,489.36446 770.69851,493.31765 C 774.37907,497.27092 776.21937,502.83271 776.21941,510.00303 C 776.21937,510.43927 776.20573,511.0936 776.17851,511.96602 L 743.78925,511.96602 C 744.06187,516.73718 745.41143,520.39051 747.83791,522.92602 C 750.26436,525.46155 753.29062,526.72931 756.91672,526.72931 C 759.61579,526.72931 761.91957,526.02046 763.82806,524.60274 C 765.73649,523.18504 767.24962,520.92215 768.36747,517.81408 L 768.36747,517.81408 z M 744.1982,505.91348 L 768.44926,505.91348 C 768.12206,502.26017 767.19509,499.52018 765.66836,497.69348 C 763.32365,494.85809 760.28375,493.44038 756.54866,493.44034 C 753.16794,493.44038 750.3257,494.57182 748.02194,496.83467 C 745.71814,499.09759 744.44357,502.12386 744.1982,505.91348 L 744.1982,505.91348 z M 801.32927,525.21617 L 802.39255,531.71856 C 800.32049,532.15478 798.46656,532.37289 796.83076,532.37289 C 794.1589,532.37289 792.08686,531.9503 790.61464,531.10513 C 789.14239,530.25996 788.10637,529.14896 787.50658,527.77214 C 786.90677,526.39533 786.60687,523.49857 786.60687,519.08184 L 786.60687,494.09467 L 781.20866,494.09467 L 781.20866,488.36929 L 786.60687,488.36929 L 786.60687,477.61377 L 793.92718,473.19705 L 793.92718,488.36929 L 801.32927,488.36929 L 801.32927,494.09467 L 793.92718,494.09467 L 793.92718,519.4908 C 793.92716,521.59011 794.05666,522.93966 794.31568,523.53946 C 794.57467,524.13926 794.99726,524.61638 795.58344,524.9708 C 796.1696,525.32523 797.00796,525.50245 798.09852,525.50244 C 798.91641,525.50245 799.99333,525.40702 801.32927,525.21617 L 801.32927,525.21617 z M 808.1588,548.52663 L 807.34088,541.61528 C 808.94944,542.05149 810.35352,542.2696 811.55312,542.26961 C 813.18894,542.2696 814.49759,541.99696 815.4791,541.4517 C 816.46058,540.90642 817.26485,540.14304 817.89193,539.16155 C 818.3554,538.42542 819.10515,536.59876 820.14119,533.68155 C 820.27749,533.27259 820.4956,532.67279 820.79552,531.88215 L 804.31461,488.36929 L 812.24835,488.36929 L 821.28626,513.52005 C 822.45858,516.70992 823.50823,520.06335 824.43522,523.58035 C 825.28037,520.19967 826.28913,516.90076 827.46149,513.68363 L 836.74478,488.36929 L 844.10597,488.36929 L 827.58418,532.53647 C 825.81201,537.30761 824.4352,540.59289 823.45373,542.3923 C 822.14505,544.81875 820.64555,546.59771 818.95522,547.72917 C 817.26485,548.86059 815.24734,549.42631 812.90268,549.42633 C 811.48496,549.42631 809.90366,549.12641 808.1588,548.52663 L 808.1588,548.52663 z M 867.94809,531.80035 L 890.97228,471.8475 L 899.51944,471.8475 L 924.05676,531.80035 L 915.01885,531.80035 L 908.02571,513.64274 L 882.95675,513.64274 L 876.37257,531.80035 L 867.94809,531.80035 z M 885.2469,507.18124 L 905.57198,507.18124 L 899.31496,490.57765 C 897.40648,485.53392 895.98877,481.38984 895.06183,478.14541 C 894.29842,481.98964 893.2215,485.80655 891.83108,489.59616 L 885.2469,507.18124 z M 958.0001,531.80035 L 958.0001,525.42065 C 954.61937,530.32812 950.02544,532.78185 944.2183,532.78185 C 941.65549,532.78185 939.26311,532.2911 937.04113,531.30961 C 934.81913,530.32812 933.16968,529.09444 932.09277,527.60856 C 931.01585,526.1227 930.25928,524.30285 929.82307,522.14901 C 929.52316,520.70404 929.37321,518.4139 929.37322,515.27856 L 929.37322,488.36929 L 936.73442,488.36929 L 936.73442,512.45677 C 936.7344,516.30096 936.88435,518.89101 937.18427,520.22692 C 937.64774,522.16265 938.62923,523.6826 940.12875,524.78677 C 941.62823,525.89095 943.48216,526.44304 945.69054,526.44304 C 947.89887,526.44304 949.97091,525.87732 951.90666,524.74587 C 953.84235,523.61444 955.21235,522.07404 956.01666,520.12468 C 956.82091,518.17534 957.22305,515.34673 957.22308,511.63885 L 957.22308,488.36929 L 964.58428,488.36929 L 964.58428,531.80035 L 958.0001,531.80035 z M 992.22966,525.21617 L 993.29294,531.71856 C 991.22088,532.15478 989.36695,532.37289 987.73115,532.37289 C 985.05929,532.37289 982.98725,531.9503 981.51503,531.10513 C 980.04278,530.25996 979.00676,529.14896 978.40697,527.77214 C 977.80716,526.39533 977.50726,523.49857 977.50727,519.08184 L 977.50727,494.09467 L 972.10905,494.09467 L 972.10905,488.36929 L 977.50727,488.36929 L 977.50727,477.61377 L 984.82757,473.19705 L 984.82757,488.36929 L 992.22966,488.36929 L 992.22966,494.09467 L 984.82757,494.09467 L 984.82757,519.4908 C 984.82755,521.59011 984.95705,522.93966 985.21607,523.53946 C 985.47506,524.13926 985.89765,524.61638 986.48384,524.9708 C 987.06999,525.32523 987.90835,525.50245 988.99891,525.50244 C 989.8168,525.50245 990.89372,525.40702 992.22966,525.21617 L 992.22966,525.21617 z M 999.38635,531.80035 L 999.38635,471.8475 L 1006.7475,471.8475 L 1006.7475,493.35855 C 1010.1828,489.37809 1014.5177,487.38785 1019.7523,487.3878 C 1022.9694,487.38785 1025.7639,488.02173 1028.1359,489.28944 C 1030.5078,490.55725 1032.205,492.30894 1033.2274,494.54452 C 1034.2498,496.78018 1034.7609,500.02455 1034.761,504.27766 L 1034.761,531.80035 L 1027.3998,531.80035 L 1027.3998,504.27766 C 1027.3998,500.59709 1026.6023,497.91844 1025.0074,496.24168 C 1023.4124,494.56501 1021.1564,493.72665 1018.2392,493.72661 C 1016.0581,493.72665 1014.0065,494.29237 1012.0844,495.42377 C 1010.1623,496.55525 1008.7923,498.08883 1007.9744,500.02452 C 1007.1565,501.96027 1006.7475,504.63211 1006.7475,508.04005 L 1006.7475,531.80035 L 999.38635,531.80035 z M 1043.2673,510.08482 C 1043.2673,502.04207 1045.5029,496.08495 1049.9742,492.21347 C 1053.7093,488.9964 1058.2623,487.38785 1063.6333,487.3878 C 1069.604,487.38785 1074.4842,489.34401 1078.2739,493.25631 C 1082.0635,497.16869 1083.9583,502.57371 1083.9584,509.47139 C 1083.9583,515.06046 1083.12,519.45673 1081.4433,522.6602 C 1079.7665,525.86369 1077.3265,528.3515 1074.123,530.12364 C 1070.9195,531.89578 1067.4229,532.78185 1063.6333,532.78185 C 1057.5535,532.78185 1052.6392,530.83249 1048.8905,526.93379 C 1045.1417,523.03509 1043.2673,517.41877 1043.2673,510.08482 L 1043.2673,510.08482 z M 1050.833,510.08482 C 1050.833,515.64663 1052.0462,519.81116 1054.4727,522.57841 C 1056.8992,525.34568 1059.9527,526.72931 1063.6333,526.72931 C 1067.2866,526.72931 1070.3265,525.33887 1072.753,522.55796 C 1075.1794,519.77708 1076.3927,515.53758 1076.3927,509.83945 C 1076.3927,504.46853 1075.1726,500.39943 1072.7326,497.63213 C 1070.2924,494.86491 1067.2593,493.48127 1063.6333,493.48124 C 1059.9527,493.48127 1056.8992,494.85809 1054.4727,497.61169 C 1052.0462,500.36535 1050.833,504.52306 1050.833,510.08482 L 1050.833,510.08482 z M 1092.5464,531.80035 L 1092.5464,488.36929 L 1099.1715,488.36929 L 1099.1715,494.95348 C 1100.8618,491.87272 1102.4226,489.84158 1103.854,488.86004 C 1105.2853,487.87859 1106.8598,487.38785 1108.5774,487.3878 C 1111.0584,487.38785 1113.5803,488.17849 1116.1431,489.75974 L 1113.6076,496.5893 C 1111.8082,495.52605 1110.0088,494.99441 1108.2094,494.99437 C 1106.6008,494.99441 1105.1558,495.47834 1103.8744,496.44616 C 1102.593,497.41406 1101.6797,498.75679 1101.1344,500.47437 C 1100.3165,503.09172 1099.9076,505.9544 1099.9076,509.06244 L 1099.9076,531.80035 L 1092.5464,531.80035 z M 1120.6416,480.31287 L 1120.6416,471.8475 L 1128.0028,471.8475 L 1128.0028,480.31287 L 1120.6416,480.31287 z M 1120.6416,531.80035 L 1120.6416,488.36929 L 1128.0028,488.36929 L 1128.0028,531.80035 L 1120.6416,531.80035 z M 1155.3211,525.21617 L 1156.3844,531.71856 C 1154.3123,532.15478 1152.4584,532.37289 1150.8226,532.37289 C 1148.1507,532.37289 1146.0787,531.9503 1144.6065,531.10513 C 1143.1342,530.25996 1142.0982,529.14896 1141.4984,527.77214 C 1140.8986,526.39533 1140.5987,523.49857 1140.5987,519.08184 L 1140.5987,494.09467 L 1135.2005,494.09467 L 1135.2005,488.36929 L 1140.5987,488.36929 L 1140.5987,477.61377 L 1147.919,473.19705 L 1147.919,488.36929 L 1155.3211,488.36929 L 1155.3211,494.09467 L 1147.919,494.09467 L 1147.919,519.4908 C 1147.919,521.59011 1148.0485,522.93966 1148.3075,523.53946 C 1148.5665,524.13926 1148.9891,524.61638 1149.5753,524.9708 C 1150.1614,525.32523 1150.9998,525.50245 1152.0903,525.50244 C 1152.9082,525.50245 1153.9851,525.40702 1155.3211,525.21617 L 1155.3211,525.21617 z M 1162.1506,548.52663 L 1161.3327,541.61528 C 1162.9413,542.05149 1164.3453,542.2696 1165.5449,542.26961 C 1167.1808,542.2696 1168.4894,541.99696 1169.4709,541.4517 C 1170.4524,540.90642 1171.2567,540.14304 1171.8838,539.16155 C 1172.3472,538.42542 1173.097,536.59876 1174.133,533.68155 C 1174.2693,533.27259 1174.4874,532.67279 1174.7873,531.88215 L 1158.3064,488.36929 L 1166.2402,488.36929 L 1175.2781,513.52005 C 1176.4504,516.70992 1177.5001,520.06335 1178.427,523.58035 C 1179.2722,520.19967 1180.2809,516.90076 1181.4533,513.68363 L 1190.7366,488.36929 L 1198.0978,488.36929 L 1181.576,532.53647 C 1179.8038,537.30761 1178.427,540.59289 1177.4455,542.3923 C 1176.1369,544.81875 1174.6374,546.59771 1172.947,547.72917 C 1171.2567,548.86059 1169.2392,549.42631 1166.8945,549.42633 C 1165.4768,549.42631 1163.8955,549.12641 1162.1506,548.52663 L 1162.1506,548.52663 z "
     id="text3751" />
</svg>
