<?xml version="1.0" encoding="utf-8"?>
<!-- Generator: Adobe Illustrator 16.0.0, SVG Export Plug-In . SVG Version: 6.00 Build 0)  -->
<!DOCTYPE svg PUBLIC "-//W3C//DTD SVG 1.1//EN" "http://www.w3.org/Graphics/SVG/1.1/DTD/svg11.dtd">
<svg version="1.1" id="Layer_1" xmlns="http://www.w3.org/2000/svg" xmlns:xlink="http://www.w3.org/1999/xlink" x="0px" y="0px"
	 width="557.667px" height="267px" viewBox="0 0 557.667 267" enable-background="new 0 0 557.667 267" xml:space="preserve">
<g>
	<defs>
		<rect id="SVGID_1_" x="-783.333" y="-158.67" width="1944.93" height="5830.67"/>
	</defs>
	<clipPath id="SVGID_2_">
		<use xlink:href="#SVGID_1_"  overflow="visible"/>
	</clipPath>
	<g clip-path="url(#SVGID_2_)">
		<defs>
			<rect id="SVGID_3_" x="-783.333" y="-158.672" width="1944.931" height="5830.672"/>
		</defs>
		<clipPath id="SVGID_4_">
			<use xlink:href="#SVGID_3_"  overflow="visible"/>
		</clipPath>
	</g>
	<g clip-path="url(#SVGID_2_)">
		<defs>
			<rect id="SVGID_60_" x="-783.333" y="-158.672" width="1944.931" height="5830.672"/>
		</defs>
		<clipPath id="SVGID_6_">
			<use xlink:href="#SVGID_60_"  overflow="visible"/>
		</clipPath>
	</g>
	<g clip-path="url(#SVGID_2_)">
		<defs>
			<rect id="SVGID_72_" x="-783.333" y="-158.672" width="1944.931" height="5830.672"/>
		</defs>
		<clipPath id="SVGID_8_">
			<use xlink:href="#SVGID_72_"  overflow="visible"/>
		</clipPath>
	</g>
	<g clip-path="url(#SVGID_2_)">
		<defs>
			<rect id="SVGID_79_" x="-783.333" y="-158.672" width="1944.931" height="5830.672"/>
		</defs>
		<clipPath id="SVGID_10_">
			<use xlink:href="#SVGID_79_"  overflow="visible"/>
		</clipPath>
	</g>
	<g clip-path="url(#SVGID_2_)">
		<defs>
			<rect id="SVGID_86_" x="-783.333" y="-158.672" width="1944.931" height="5830.672"/>
		</defs>
		<clipPath id="SVGID_12_">
			<use xlink:href="#SVGID_86_"  overflow="visible"/>
		</clipPath>
	</g>
	<g clip-path="url(#SVGID_2_)">
		<defs>
			<rect id="SVGID_93_" x="-783.333" y="-158.672" width="1944.931" height="5830.672"/>
		</defs>
		<clipPath id="SVGID_14_">
			<use xlink:href="#SVGID_93_"  overflow="visible"/>
		</clipPath>
	</g>
	<g clip-path="url(#SVGID_2_)">
		<defs>
			<rect id="SVGID_1337_" x="-783.333" y="-158.672" width="1944.931" height="5830.672"/>
		</defs>
		<clipPath id="SVGID_16_">
			<use xlink:href="#SVGID_1337_"  overflow="visible"/>
		</clipPath>
	</g>
	<g clip-path="url(#SVGID_2_)">
		<defs>
			<rect id="SVGID_1344_" x="-783.333" y="-158.672" width="1944.931" height="5830.672"/>
		</defs>
		<clipPath id="SVGID_18_">
			<use xlink:href="#SVGID_1344_"  overflow="visible"/>
		</clipPath>
	</g>
	<g clip-path="url(#SVGID_2_)">
		<defs>
			<rect id="SVGID_1350_" x="-783.333" y="-158.672" width="1944.931" height="5830.672"/>
		</defs>
		<clipPath id="SVGID_20_">
			<use xlink:href="#SVGID_1350_"  overflow="visible"/>
		</clipPath>
	</g>
	<g clip-path="url(#SVGID_2_)">
		<defs>
			<rect id="SVGID_1357_" x="-783.333" y="-158.672" width="1944.931" height="5830.672"/>
		</defs>
		<clipPath id="SVGID_22_">
			<use xlink:href="#SVGID_1357_"  overflow="visible"/>
		</clipPath>
	</g>
	<g clip-path="url(#SVGID_2_)">
		<defs>
			<rect id="SVGID_1364_" x="-783.333" y="-158.672" width="1944.931" height="5830.672"/>
		</defs>
		<clipPath id="SVGID_24_">
			<use xlink:href="#SVGID_1364_"  overflow="visible"/>
		</clipPath>
	</g>
	<g clip-path="url(#SVGID_2_)">
		<defs>
			<rect id="SVGID_1371_" x="-783.333" y="-158.672" width="1944.931" height="5830.672"/>
		</defs>
		<clipPath id="SVGID_26_">
			<use xlink:href="#SVGID_1371_"  overflow="visible"/>
		</clipPath>
	</g>
	<g clip-path="url(#SVGID_2_)">
		<defs>
			<rect id="SVGID_2615_" x="-783.333" y="-158.672" width="1944.931" height="5830.672"/>
		</defs>
		<clipPath id="SVGID_28_">
			<use xlink:href="#SVGID_2615_"  overflow="visible"/>
		</clipPath>
	</g>
	<g clip-path="url(#SVGID_2_)">
		<defs>
			<rect id="SVGID_2622_" x="-783.333" y="-158.672" width="1944.931" height="5830.672"/>
		</defs>
		<clipPath id="SVGID_30_">
			<use xlink:href="#SVGID_2622_"  overflow="visible"/>
		</clipPath>
	</g>
	<g clip-path="url(#SVGID_2_)">
		<defs>
			<rect id="SVGID_2628_" x="-783.333" y="-158.672" width="1944.931" height="5830.672"/>
		</defs>
		<clipPath id="SVGID_32_">
			<use xlink:href="#SVGID_2628_"  overflow="visible"/>
		</clipPath>
	</g>
	<g clip-path="url(#SVGID_2_)">
		<defs>
			<rect id="SVGID_2635_" x="-783.333" y="-158.672" width="1944.931" height="5830.672"/>
		</defs>
		<clipPath id="SVGID_34_">
			<use xlink:href="#SVGID_2635_"  overflow="visible"/>
		</clipPath>
	</g>
	<g clip-path="url(#SVGID_2_)">
		<defs>
			<rect id="SVGID_2641_" x="-783.333" y="-158.672" width="1944.931" height="5830.672"/>
		</defs>
		<clipPath id="SVGID_36_">
			<use xlink:href="#SVGID_2641_"  overflow="visible"/>
		</clipPath>
	</g>
	<g clip-path="url(#SVGID_2_)">
		<defs>
			<rect id="SVGID_2647_" x="-783.333" y="-158.672" width="1944.931" height="5830.672"/>
		</defs>
		<clipPath id="SVGID_38_">
			<use xlink:href="#SVGID_2647_"  overflow="visible"/>
		</clipPath>
	</g>
	<g clip-path="url(#SVGID_2_)">
		<defs>
			<rect id="SVGID_3067_" x="-783.333" y="-158.672" width="1944.931" height="5830.672"/>
		</defs>
		<clipPath id="SVGID_40_">
			<use xlink:href="#SVGID_3067_"  overflow="visible"/>
		</clipPath>
	</g>
	<g clip-path="url(#SVGID_2_)">
		<defs>
			<rect id="SVGID_3144_" x="-783.333" y="-158.672" width="1944.931" height="5830.672"/>
		</defs>
		<clipPath id="SVGID_42_">
			<use xlink:href="#SVGID_3144_"  overflow="visible"/>
		</clipPath>
	</g>
	<g clip-path="url(#SVGID_2_)">
		<defs>
			<rect id="SVGID_3151_" x="-783.333" y="-158.672" width="1944.931" height="5830.672"/>
		</defs>
		<clipPath id="SVGID_44_">
			<use xlink:href="#SVGID_3151_"  overflow="visible"/>
		</clipPath>
	</g>
	<g clip-path="url(#SVGID_2_)">
		<defs>
			<rect id="SVGID_3155_" x="-783.333" y="-158.672" width="1944.931" height="5830.672"/>
		</defs>
		<clipPath id="SVGID_46_">
			<use xlink:href="#SVGID_3155_"  overflow="visible"/>
		</clipPath>
	</g>
	<g clip-path="url(#SVGID_2_)">
		<defs>
			<rect id="SVGID_3157_" x="-783.333" y="-158.672" width="1944.931" height="5830.672"/>
		</defs>
		<clipPath id="SVGID_48_">
			<use xlink:href="#SVGID_3157_"  overflow="visible"/>
		</clipPath>
	</g>
	<g clip-path="url(#SVGID_2_)">
		<defs>
			<rect id="SVGID_3577_" x="-783.333" y="-158.672" width="1944.931" height="5830.672"/>
		</defs>
		<clipPath id="SVGID_50_">
			<use xlink:href="#SVGID_3577_"  overflow="visible"/>
		</clipPath>
	</g>
	<g clip-path="url(#SVGID_2_)">
		<defs>
			<rect id="SVGID_3654_" x="-783.333" y="-158.672" width="1944.931" height="5830.672"/>
		</defs>
		<clipPath id="SVGID_52_">
			<use xlink:href="#SVGID_3654_"  overflow="visible"/>
		</clipPath>
	</g>
	<g clip-path="url(#SVGID_2_)">
		<defs>
			<rect id="SVGID_3666_" x="-783.333" y="-158.672" width="1944.931" height="5830.672"/>
		</defs>
		<clipPath id="SVGID_54_">
			<use xlink:href="#SVGID_3666_"  overflow="visible"/>
		</clipPath>
	</g>
	<g clip-path="url(#SVGID_2_)">
		<defs>
			<rect id="SVGID_3668_" x="-783.333" y="-158.672" width="1944.931" height="5830.672"/>
		</defs>
		<clipPath id="SVGID_56_">
			<use xlink:href="#SVGID_3668_"  overflow="visible"/>
		</clipPath>
	</g>
	<g clip-path="url(#SVGID_2_)">
		<defs>
			<rect id="SVGID_3676_" x="-783.333" y="-158.672" width="1944.931" height="5830.672"/>
		</defs>
		<clipPath id="SVGID_58_">
			<use xlink:href="#SVGID_3676_"  overflow="visible"/>
		</clipPath>
	</g>
	<g clip-path="url(#SVGID_2_)">
		<defs>
			<rect id="SVGID_3682_" x="-783.333" y="-158.672" width="1944.931" height="5830.672"/>
		</defs>
		<clipPath id="SVGID_59_">
			<use xlink:href="#SVGID_3682_"  overflow="visible"/>
		</clipPath>
	</g>
	<g clip-path="url(#SVGID_2_)">
		<defs>
			<rect id="SVGID_3688_" x="-783.333" y="-158.672" width="1944.931" height="5830.672"/>
		</defs>
		<clipPath id="SVGID_61_">
			<use xlink:href="#SVGID_3688_"  overflow="visible"/>
		</clipPath>
	</g>
	<g clip-path="url(#SVGID_2_)">
		<defs>
			<rect id="SVGID_3694_" x="-783.333" y="-158.672" width="1944.931" height="5830.672"/>
		</defs>
		<clipPath id="SVGID_63_">
			<use xlink:href="#SVGID_3694_"  overflow="visible"/>
		</clipPath>
	</g>
	<g clip-path="url(#SVGID_2_)">
		<defs>
			<rect id="SVGID_3696_" x="-783.333" y="-158.672" width="1944.931" height="5830.672"/>
		</defs>
		<clipPath id="SVGID_65_">
			<use xlink:href="#SVGID_3696_"  overflow="visible"/>
		</clipPath>
	</g>
	<g clip-path="url(#SVGID_2_)">
		<defs>
			<rect id="SVGID_3702_" x="-783.333" y="-158.672" width="1944.931" height="5830.672"/>
		</defs>
		<clipPath id="SVGID_66_">
			<use xlink:href="#SVGID_3702_"  overflow="visible"/>
		</clipPath>
	</g>
	<g clip-path="url(#SVGID_2_)">
		<defs>
			<rect id="SVGID_3704_" x="-783.333" y="-158.672" width="1944.931" height="5830.672"/>
		</defs>
		<clipPath id="SVGID_68_">
			<use xlink:href="#SVGID_3704_"  overflow="visible"/>
		</clipPath>
	</g>
	<g clip-path="url(#SVGID_2_)">
		<defs>
			<rect id="SVGID_3710_" x="-783.333" y="-158.672" width="1944.931" height="5830.672"/>
		</defs>
		<clipPath id="SVGID_70_">
			<use xlink:href="#SVGID_3710_"  overflow="visible"/>
		</clipPath>
	</g>
	<g clip-path="url(#SVGID_2_)">
		<defs>
			<rect id="SVGID_3712_" x="-783.333" y="-158.672" width="1944.931" height="5830.672"/>
		</defs>
		<clipPath id="SVGID_71_">
			<use xlink:href="#SVGID_3712_"  overflow="visible"/>
		</clipPath>
	</g>
	<g clip-path="url(#SVGID_2_)">
		<defs>
			<rect id="SVGID_3718_" x="-783.333" y="-158.672" width="1944.931" height="5830.672"/>
		</defs>
		<clipPath id="SVGID_73_">
			<use xlink:href="#SVGID_3718_"  overflow="visible"/>
		</clipPath>
	</g>
	<g clip-path="url(#SVGID_2_)">
		<defs>
			<rect id="SVGID_3725_" x="-783.333" y="-158.672" width="1944.931" height="5830.672"/>
		</defs>
		<clipPath id="SVGID_75_">
			<use xlink:href="#SVGID_3725_"  overflow="visible"/>
		</clipPath>
	</g>
	<g clip-path="url(#SVGID_2_)">
		<defs>
			<rect id="SVGID_3731_" x="-783.333" y="-158.672" width="1944.931" height="5830.672"/>
		</defs>
		<clipPath id="SVGID_77_">
			<use xlink:href="#SVGID_3731_"  overflow="visible"/>
		</clipPath>
	</g>
	<g clip-path="url(#SVGID_2_)">
		<defs>
			<rect id="SVGID_3737_" x="-783.333" y="-158.672" width="1944.931" height="5830.672"/>
		</defs>
		<clipPath id="SVGID_78_">
			<use xlink:href="#SVGID_3737_"  overflow="visible"/>
		</clipPath>
	</g>
	<g clip-path="url(#SVGID_2_)">
		<defs>
			<rect id="SVGID_4157_" x="-783.333" y="-158.672" width="1944.931" height="5830.672"/>
		</defs>
		<clipPath id="SVGID_80_">
			<use xlink:href="#SVGID_4157_"  overflow="visible"/>
		</clipPath>
	</g>
	<g clip-path="url(#SVGID_2_)">
		<defs>
			<rect id="SVGID_4241_" x="-783.333" y="-158.672" width="1944.931" height="5830.672"/>
		</defs>
		<clipPath id="SVGID_82_">
			<use xlink:href="#SVGID_4241_"  overflow="visible"/>
		</clipPath>
	</g>
	<g clip-path="url(#SVGID_2_)">
		<defs>
			<rect id="SVGID_4243_" x="-783.333" y="-158.672" width="1944.931" height="5830.672"/>
		</defs>
		<clipPath id="SVGID_84_">
			<use xlink:href="#SVGID_4243_"  overflow="visible"/>
		</clipPath>
	</g>
	<g clip-path="url(#SVGID_2_)">
		<defs>
			<rect id="SVGID_4249_" x="-783.333" y="-158.672" width="1944.931" height="5830.672"/>
		</defs>
		<clipPath id="SVGID_85_">
			<use xlink:href="#SVGID_4249_"  overflow="visible"/>
		</clipPath>
	</g>
	<g clip-path="url(#SVGID_2_)">
		<defs>
			<rect id="SVGID_4251_" x="-783.333" y="-158.672" width="1944.931" height="5830.672"/>
		</defs>
		<clipPath id="SVGID_87_">
			<use xlink:href="#SVGID_4251_"  overflow="visible"/>
		</clipPath>
	</g>
	<g clip-path="url(#SVGID_2_)">
		<defs>
			<rect id="SVGID_4257_" x="-783.333" y="-158.672" width="1944.931" height="5830.672"/>
		</defs>
		<clipPath id="SVGID_89_">
			<use xlink:href="#SVGID_4257_"  overflow="visible"/>
		</clipPath>
	</g>
	<g clip-path="url(#SVGID_2_)">
		<defs>
			<rect id="SVGID_4259_" x="-783.333" y="-158.672" width="1944.931" height="5830.672"/>
		</defs>
		<clipPath id="SVGID_91_">
			<use xlink:href="#SVGID_4259_"  overflow="visible"/>
		</clipPath>
	</g>
	<g clip-path="url(#SVGID_2_)">
		<defs>
			<rect id="SVGID_4265_" x="-783.333" y="-158.672" width="1944.931" height="5830.672"/>
		</defs>
		<clipPath id="SVGID_92_">
			<use xlink:href="#SVGID_4265_"  overflow="visible"/>
		</clipPath>
	</g>
	<g clip-path="url(#SVGID_2_)">
		<defs>
			<rect id="SVGID_4267_" x="-783.333" y="-158.672" width="1944.931" height="5830.672"/>
		</defs>
		<clipPath id="SVGID_94_">
			<use xlink:href="#SVGID_4267_"  overflow="visible"/>
		</clipPath>
	</g>
	<g clip-path="url(#SVGID_2_)">
		<defs>
			<rect id="SVGID_4273_" x="-783.333" y="-158.672" width="1944.931" height="5830.672"/>
		</defs>
		<clipPath id="SVGID_96_">
			<use xlink:href="#SVGID_4273_"  overflow="visible"/>
		</clipPath>
	</g>
	<g clip-path="url(#SVGID_2_)">
		<defs>
			<rect id="SVGID_4275_" x="-783.333" y="-158.672" width="1944.931" height="5830.672"/>
		</defs>
		<clipPath id="SVGID_98_">
			<use xlink:href="#SVGID_4275_"  overflow="visible"/>
		</clipPath>
	</g>
	<g clip-path="url(#SVGID_2_)">
		<defs>
			<rect id="SVGID_4281_" x="-783.333" y="-158.672" width="1944.931" height="5830.672"/>
		</defs>
		<clipPath id="SVGID_100_">
			<use xlink:href="#SVGID_4281_"  overflow="visible"/>
		</clipPath>
	</g>
	<g clip-path="url(#SVGID_2_)">
		<defs>
			<rect id="SVGID_4283_" x="-783.333" y="-158.672" width="1944.931" height="5830.672"/>
		</defs>
		<clipPath id="SVGID_102_">
			<use xlink:href="#SVGID_4283_"  overflow="visible"/>
		</clipPath>
	</g>
	<g clip-path="url(#SVGID_2_)">
		<defs>
			<rect id="SVGID_4289_" x="-783.333" y="-158.672" width="1944.931" height="5830.672"/>
		</defs>
		<clipPath id="SVGID_104_">
			<use xlink:href="#SVGID_4289_"  overflow="visible"/>
		</clipPath>
	</g>
	<g clip-path="url(#SVGID_2_)">
		<defs>
			<rect id="SVGID_4291_" x="-783.333" y="-158.672" width="1944.931" height="5830.672"/>
		</defs>
		<clipPath id="SVGID_106_">
			<use xlink:href="#SVGID_4291_"  overflow="visible"/>
		</clipPath>
	</g>
	<g clip-path="url(#SVGID_2_)">
		<defs>
			<rect id="SVGID_4293_" x="-783.333" y="-158.672" width="1944.931" height="5830.672"/>
		</defs>
		<clipPath id="SVGID_108_">
			<use xlink:href="#SVGID_4293_"  overflow="visible"/>
		</clipPath>
	</g>
	<g clip-path="url(#SVGID_2_)">
		<defs>
			<rect id="SVGID_4299_" x="-783.333" y="-158.672" width="1944.931" height="5830.672"/>
		</defs>
		<clipPath id="SVGID_110_">
			<use xlink:href="#SVGID_4299_"  overflow="visible"/>
		</clipPath>
	</g>
	<g clip-path="url(#SVGID_2_)">
		<defs>
			<rect id="SVGID_4301_" x="-783.333" y="-158.672" width="1944.931" height="5830.672"/>
		</defs>
		<clipPath id="SVGID_112_">
			<use xlink:href="#SVGID_4301_"  overflow="visible"/>
		</clipPath>
	</g>
	<g clip-path="url(#SVGID_2_)">
		<defs>
			<rect id="SVGID_4307_" x="-783.333" y="-158.672" width="1944.931" height="5830.672"/>
		</defs>
		<clipPath id="SVGID_114_">
			<use xlink:href="#SVGID_4307_"  overflow="visible"/>
		</clipPath>
	</g>
	<g clip-path="url(#SVGID_2_)">
		<defs>
			<rect id="SVGID_4309_" x="-783.333" y="-158.672" width="1944.931" height="5830.672"/>
		</defs>
		<clipPath id="SVGID_116_">
			<use xlink:href="#SVGID_4309_"  overflow="visible"/>
		</clipPath>
	</g>
	<g clip-path="url(#SVGID_2_)">
		<defs>
			<rect id="SVGID_4315_" x="-783.333" y="-158.672" width="1944.931" height="5830.672"/>
		</defs>
		<clipPath id="SVGID_118_">
			<use xlink:href="#SVGID_4315_"  overflow="visible"/>
		</clipPath>
	</g>
	<g clip-path="url(#SVGID_2_)">
		<defs>
			<rect id="SVGID_4317_" x="-783.333" y="-158.672" width="1944.931" height="5830.672"/>
		</defs>
		<clipPath id="SVGID_120_">
			<use xlink:href="#SVGID_4317_"  overflow="visible"/>
		</clipPath>
	</g>
	<g clip-path="url(#SVGID_2_)">
		<defs>
			<rect id="SVGID_4323_" x="-783.333" y="-158.672" width="1944.931" height="5830.672"/>
		</defs>
		<clipPath id="SVGID_122_">
			<use xlink:href="#SVGID_4323_"  overflow="visible"/>
		</clipPath>
	</g>
	<g clip-path="url(#SVGID_2_)">
		<defs>
			<rect id="SVGID_4325_" x="-783.333" y="-158.672" width="1944.931" height="5830.672"/>
		</defs>
		<clipPath id="SVGID_124_">
			<use xlink:href="#SVGID_4325_"  overflow="visible"/>
		</clipPath>
	</g>
	<g clip-path="url(#SVGID_2_)">
		<defs>
			<rect id="SVGID_4331_" x="-783.333" y="-158.672" width="1944.931" height="5830.672"/>
		</defs>
		<clipPath id="SVGID_126_">
			<use xlink:href="#SVGID_4331_"  overflow="visible"/>
		</clipPath>
	</g>
	<g clip-path="url(#SVGID_2_)">
		<defs>
			<rect id="SVGID_4333_" x="-783.333" y="-158.672" width="1944.931" height="5830.672"/>
		</defs>
		<clipPath id="SVGID_128_">
			<use xlink:href="#SVGID_4333_"  overflow="visible"/>
		</clipPath>
	</g>
	<g clip-path="url(#SVGID_2_)">
		<defs>
			<rect id="SVGID_4335_" x="-783.333" y="-158.672" width="1944.931" height="5830.672"/>
		</defs>
		<clipPath id="SVGID_130_">
			<use xlink:href="#SVGID_4335_"  overflow="visible"/>
		</clipPath>
	</g>
	<g clip-path="url(#SVGID_2_)">
		<defs>
			<rect id="SVGID_4341_" x="-783.333" y="-158.672" width="1944.931" height="5830.672"/>
		</defs>
		<clipPath id="SVGID_132_">
			<use xlink:href="#SVGID_4341_"  overflow="visible"/>
		</clipPath>
	</g>
	<g clip-path="url(#SVGID_2_)">
		<defs>
			<rect id="SVGID_4343_" x="-783.333" y="-158.672" width="1944.931" height="5830.672"/>
		</defs>
		<clipPath id="SVGID_134_">
			<use xlink:href="#SVGID_4343_"  overflow="visible"/>
		</clipPath>
	</g>
	<g clip-path="url(#SVGID_2_)">
		<defs>
			<rect id="SVGID_4349_" x="-783.333" y="-158.672" width="1944.931" height="5830.672"/>
		</defs>
		<clipPath id="SVGID_136_">
			<use xlink:href="#SVGID_4349_"  overflow="visible"/>
		</clipPath>
	</g>
	<g clip-path="url(#SVGID_2_)">
		<defs>
			<rect id="SVGID_4351_" x="-783.333" y="-158.672" width="1944.931" height="5830.672"/>
		</defs>
		<clipPath id="SVGID_138_">
			<use xlink:href="#SVGID_4351_"  overflow="visible"/>
		</clipPath>
	</g>
	<g clip-path="url(#SVGID_2_)">
		<defs>
			<rect id="SVGID_4357_" x="-783.333" y="-158.672" width="1944.931" height="5830.672"/>
		</defs>
		<clipPath id="SVGID_140_">
			<use xlink:href="#SVGID_4357_"  overflow="visible"/>
		</clipPath>
	</g>
	<g clip-path="url(#SVGID_2_)">
		<defs>
			<rect id="SVGID_4359_" x="-783.333" y="-158.672" width="1944.931" height="5830.672"/>
		</defs>
		<clipPath id="SVGID_142_">
			<use xlink:href="#SVGID_4359_"  overflow="visible"/>
		</clipPath>
	</g>
	<g clip-path="url(#SVGID_2_)">
		<defs>
			<rect id="SVGID_4365_" x="-783.333" y="-158.672" width="1944.931" height="5830.672"/>
		</defs>
		<clipPath id="SVGID_144_">
			<use xlink:href="#SVGID_4365_"  overflow="visible"/>
		</clipPath>
	</g>
	<g clip-path="url(#SVGID_2_)">
		<defs>
			<rect id="SVGID_4367_" x="-783.333" y="-158.672" width="1944.931" height="5830.672"/>
		</defs>
		<clipPath id="SVGID_146_">
			<use xlink:href="#SVGID_4367_"  overflow="visible"/>
		</clipPath>
	</g>
	<g clip-path="url(#SVGID_2_)">
		<defs>
			<rect id="SVGID_4373_" x="-783.333" y="-158.672" width="1944.931" height="5830.672"/>
		</defs>
		<clipPath id="SVGID_148_">
			<use xlink:href="#SVGID_4373_"  overflow="visible"/>
		</clipPath>
	</g>
	<g clip-path="url(#SVGID_2_)">
		<defs>
			<rect id="SVGID_4375_" x="-783.333" y="-158.672" width="1944.931" height="5830.672"/>
		</defs>
		<clipPath id="SVGID_150_">
			<use xlink:href="#SVGID_4375_"  overflow="visible"/>
		</clipPath>
	</g>
	<polygon clip-path="url(#SVGID_2_)" fill="#0F3F93" points="13.158,250.484 13.158,223.268 29.69,223.268 29.69,226.322 
		17.425,226.322 17.425,234.731 29.323,234.731 29.323,237.775 17.425,237.775 17.425,247.417 29.85,247.417 29.85,250.484 	"/>
	<g clip-path="url(#SVGID_2_)">
		<defs>
			<rect id="SVGID_4382_" x="11.589" y="7.328" width="533.96" height="251.672"/>
		</defs>
		<clipPath id="SVGID_152_">
			<use xlink:href="#SVGID_4382_"  overflow="visible"/>
		</clipPath>
		<path clip-path="url(#SVGID_152_)" fill="#0F3F93" d="M45.89,250.484v-1.627c-2.816,1.425-5.03,2.095-6.754,2.095
			c-2.076,0-3.518-0.707-4.365-1.918c-0.813-1.185-0.988-2.333-0.988-5.108v-12.74h4.007v11.757c0,2.663,0,4.524,2.949,4.524
			c1.434,0,3.196-0.315,4.943-0.931v-15.35h4.006v19.298H45.89z"/>
		<path clip-path="url(#SVGID_152_)" fill="#0F3F93" d="M64.229,234.443c-1.723,0-3.099,0.24-4.873,1.025v15.017h-4.018v-19.298
			h3.817v1.832c2.042-1.513,3.646-2.129,5.479-2.129c0.414,0,0.863,0.038,0.863,0.038v3.558
			C64.896,234.408,64.608,234.443,64.229,234.443"/>
		<path clip-path="url(#SVGID_152_)" fill="#0F3F93" d="M75.798,250.869c-5.685,0-8.96-3.685-8.96-10.052
			c0-6.255,3.364-10.096,8.96-10.096c5.777,0,8.972,3.62,8.972,10.096C84.77,247.271,81.522,250.869,75.798,250.869 M75.798,233.757
			c-3.188,0-4.699,2.205-4.699,7.021c0,5.016,1.511,7.07,4.749,7.07c3.258,0,4.656-2.055,4.656-6.995
			C80.505,235.907,79.165,233.757,75.798,233.757"/>
		<path clip-path="url(#SVGID_152_)" fill="#0F3F93" d="M98.972,250.952c-2.084,0-4.058-1.203-5.768-2.214v9.929h-4.013v-27.48
			h3.815v1.709c2.278-1.257,4.571-2.172,6.493-2.172c4.09,0,6.543,3.761,6.543,10.011
			C106.043,246.887,103.228,250.952,98.972,250.952 M97.778,234.167c-1.098,0-2.205,0.279-4.574,1.102v11.105
			c2.408,0.86,3.265,1.092,4.457,1.092c2.699,0,4.138-2.207,4.138-6.529C101.798,236.296,100.455,234.167,97.778,234.167"/>
		<path clip-path="url(#SVGID_152_)" fill="#0F3F93" d="M113.503,241.344v0.659c0,3.874,1.63,5.635,4.66,5.635
			c1.76,0,3.345-0.322,6.499-1.349l0.745,2.389c-4.021,1.726-5.98,2.274-8.293,2.274c-4.762,0-7.877-3.535-7.877-9.472
			c0-6.507,3.192-10.757,8.555-10.757c5.201,0,7.821,3.152,7.821,9.737v0.884H113.503z M118.126,233.54
			c-2.627,0-4.183,1.881-4.497,5.483l8.171-0.339C121.729,235.179,120.587,233.54,118.126,233.54"/>
		<path clip-path="url(#SVGID_152_)" fill="#0F3F93" d="M139.65,250.486v-1.75c-2.454,1.423-4.196,2.216-5.92,2.216
			c-2.71,0-5.042-2.061-5.042-6.056c0-2.487,0.962-3.996,2.525-4.885c1.858-1.077,4.747-1.233,8.272-1.233v-0.649
			c0-2.951,0-4.139-3.47-4.139c-1.431,0-3.25,0.205-5.697,0.652l-0.405-2.535c3.192-0.923,5.81-1.385,7.903-1.385
			c2.286,0,3.756,0.575,4.628,1.814c0.763,1.098,0.967,2.363,0.967,5.956v11.992H139.65z M139.486,241.105
			c-5.402,0.374-6.791,1.146-6.791,3.67c0,2.049,1.035,3.018,2.529,3.018c1.554,0,4.262-1.13,4.262-1.13V241.105z"/>
		<path clip-path="url(#SVGID_152_)" fill="#0F3F93" d="M160.736,250.484v-11.743c0-2.66,0-4.546-2.955-4.546
			c-1.429,0-3.192,0.329-4.943,0.95v15.339h-4.019v-19.298h3.798v1.632c2.829-1.436,4.998-2.097,6.834-2.097
			c1.958,0,3.481,0.755,4.349,2.013c0.766,1.14,0.946,2.07,0.946,5.143v12.607H160.736z"/>
		<polygon clip-path="url(#SVGID_152_)" fill="#0F3F93" points="185.083,226.322 185.083,234.73 196.704,234.73 196.704,237.776 
			185.083,237.776 185.083,250.486 180.823,250.486 180.823,223.27 196.994,223.27 196.994,226.322 		"/>
		<path clip-path="url(#SVGID_152_)" fill="#0F3F93" d="M208.147,250.869c-5.689,0-8.962-3.685-8.962-10.052
			c0-6.255,3.371-10.096,8.962-10.096c5.773,0,8.969,3.62,8.969,10.096C217.116,247.271,213.883,250.869,208.147,250.869
			 M208.147,233.757c-3.177,0-4.695,2.205-4.695,7.021c0,5.016,1.519,7.07,4.739,7.07c3.271,0,4.656-2.055,4.656-6.995
			C212.847,235.907,211.511,233.757,208.147,233.757"/>
		<path clip-path="url(#SVGID_152_)" fill="#0F3F93" d="M229.274,250.869c-5.696,0-8.968-3.685-8.968-10.052
			c0-6.255,3.354-10.096,8.968-10.096c5.765,0,8.949,3.62,8.949,10.096C238.223,247.271,235.002,250.869,229.274,250.869
			 M229.274,233.757c-3.2,0-4.723,2.205-4.723,7.021c0,5.016,1.522,7.07,4.762,7.07c3.27,0,4.674-2.055,4.674-6.995
			C233.987,235.907,232.628,233.757,229.274,233.757"/>
		<path clip-path="url(#SVGID_152_)" fill="#0F3F93" d="M254.489,250.486v-1.75c-2.307,1.312-4.5,2.216-6.436,2.216
			c-4.167,0-6.619-3.801-6.619-10.051c0-6.172,2.808-10.178,7.075-10.178c2.083,0,4.055,1.112,5.764,2.119v-11.339h4.018v28.983
			H254.489z M254.273,235.268c-2.452-0.86-3.226-1.071-4.422-1.071c-2.687,0-4.168,2.195-4.168,6.537
			c0,4.656,1.354,6.773,4.017,6.773c1.091,0,2.203-0.234,4.573-1.133V235.268z"/>
		<path clip-path="url(#SVGID_152_)" fill="#0F3F93" d="M280.545,250.829c-2.576,0-4.861-0.425-8.104-1.314l0.783-3.07
			c2.688,0.666,4.956,1.022,6.922,1.022c3.102,0,5.931-1.543,5.931-4.406c0-1.875-0.613-2.775-3.115-3.708
			c-4.713-1.758-10.236-2.402-10.236-8.628c0-4.808,3.408-7.731,8.771-7.731c2.207,0,4.621,0.354,7.649,1.152l-0.662,2.99
			c-1.998-0.403-4.69-0.863-6.494-0.863c-2.707,0-4.999,1.365-4.999,4.122c0,2.26,0.813,2.958,5.191,4.168
			c5.777,1.598,8.147,3.213,8.147,7.883C290.33,247.682,286.575,250.829,280.545,250.829"/>
		<path clip-path="url(#SVGID_152_)" fill="#0F3F93" d="M304.249,250.486v-1.75c-2.461,1.423-4.213,2.216-5.931,2.216
			c-2.692,0-5.042-2.061-5.042-6.056c0-2.487,0.992-3.996,2.538-4.885c1.853-1.077,4.763-1.233,8.263-1.233v-0.649
			c0-2.951,0-4.139-3.466-4.139c-1.436,0-3.254,0.205-5.7,0.652l-0.405-2.535c3.201-0.923,5.802-1.385,7.907-1.385
			c2.296,0,3.755,0.575,4.617,1.814c0.779,1.098,0.973,2.363,0.973,5.956v11.992H304.249z M304.077,241.105
			c-5.375,0.374-6.78,1.146-6.78,3.67c0,2.049,1.021,3.018,2.54,3.018c1.545,0,4.24-1.13,4.24-1.13V241.105z"/>
		<path clip-path="url(#SVGID_152_)" fill="#0F3F93" d="M324.547,224.144c-0.375-0.07-1.677-0.226-3.35-0.226
			c-2.085,0-2.626,0.806-2.626,3.545v3.722h5.394v2.743h-5.394v16.556h-3.976v-16.556h-3.39v-2.334l3.39-0.46v-3.189
			c0-2.845,0.224-3.872,0.941-4.925c0.95-1.383,2.418-2.087,4.471-2.087c2.04,0,4.349,0.57,4.96,0.736L324.547,224.144z"/>
		<path clip-path="url(#SVGID_152_)" fill="#0F3F93" d="M329.33,241.344v0.659c0,3.874,1.641,5.635,4.681,5.635
			c1.752,0,3.342-0.322,6.5-1.349l0.727,2.389c-4.013,1.726-5.954,2.274-8.29,2.274c-4.757,0-7.885-3.535-7.885-9.472
			c0-6.507,3.217-10.757,8.557-10.757c5.212,0,7.824,3.152,7.824,9.737v0.884H329.33z M333.96,233.54
			c-2.636,0-4.173,1.881-4.502,5.483l8.188-0.339C337.568,235.179,336.417,233.54,333.96,233.54"/>
		<path clip-path="url(#SVGID_152_)" fill="#0F3F93" d="M350.981,250.952c-1.881,0-3.279-0.793-3.968-2.132
			c-0.446-0.85-0.577-1.842-0.577-4.44v-10.45h-3.278v-2.217l3.278-0.413v-5.336h4.021v5.222h5.317v2.743h-5.317v9.291
			c0,3.271,0.044,3.357,0.324,3.853c0.285,0.488,0.856,0.722,1.713,0.722c0.95,0,1.843-0.156,3.41-0.56l0.595,2.446
			C354.171,250.568,352.578,250.952,350.981,250.952"/>
		<path clip-path="url(#SVGID_152_)" fill="#0F3F93" d="M367.73,252.909c-1.836,4.979-3.064,6.092-6.682,6.092
			c-0.905,0-1.63-0.063-2.953-0.296l0.286-2.53c0.749,0.093,1.207,0.093,1.656,0.093c2.648,0,2.814-0.294,4.48-4.341l0.682-1.59
			l-7.923-19.15h4.423l5.519,14.608l4.922-14.608h3.638L367.73,252.909z"/>
		<path clip-path="url(#SVGID_152_)" fill="#0F3F93" d="M406.304,250.485l-2.396-6.887h-11.258l-2.369,6.887h-3.852l9.623-27.217
			h4.869l9.896,27.217H406.304z M398.175,226.729l-4.542,13.886h9.2L398.175,226.729z"/>
		<path clip-path="url(#SVGID_152_)" fill="#0F3F93" d="M425.745,250.484v-1.627c-2.811,1.425-5.013,2.095-6.732,2.095
			c-2.096,0-3.526-0.707-4.384-1.918c-0.821-1.185-0.989-2.333-0.989-5.108v-12.74h4.012v11.757c0,2.663,0,4.524,2.944,4.524
			c1.427,0,3.188-0.315,4.959-0.931v-15.35h4.003v19.298H425.745z"/>
		<path clip-path="url(#SVGID_152_)" fill="#0F3F93" d="M440.434,250.952c-1.874,0-3.257-0.793-3.948-2.132
			c-0.462-0.85-0.581-1.842-0.581-4.44v-10.45h-3.271v-2.217l3.271-0.413v-5.336h4.009v5.222h5.319v2.743h-5.319v9.291
			c0,3.271,0.047,3.357,0.337,3.853c0.288,0.488,0.855,0.722,1.714,0.722c0.946,0,1.835-0.156,3.405-0.56l0.592,2.446
			C443.643,250.568,442.043,250.952,440.434,250.952"/>
		<path clip-path="url(#SVGID_152_)" fill="#0F3F93" d="M461.333,250.484v-11.743c0-2.66,0-4.546-2.957-4.546
			c-1.425,0-3.194,0.329-4.958,0.95v15.339h-3.997v-28.981h3.997v11.231c2.663-1.314,4.806-2.013,6.647-2.013
			c1.957,0,3.465,0.755,4.321,2.013c0.784,1.14,0.945,2.07,0.945,5.143v12.607H461.333z"/>
		<path clip-path="url(#SVGID_152_)" fill="#0F3F93" d="M478.468,250.869c-5.687,0-8.97-3.685-8.97-10.052
			c0-6.255,3.372-10.096,8.97-10.096c5.767,0,8.972,3.62,8.972,10.096C487.44,247.271,484.19,250.869,478.468,250.869
			 M478.468,233.757c-3.194,0-4.696,2.205-4.696,7.021c0,5.016,1.502,7.07,4.739,7.07c3.276,0,4.668-2.055,4.668-6.995
			C483.179,235.907,481.822,233.757,478.468,233.757"/>
		<path clip-path="url(#SVGID_152_)" fill="#0F3F93" d="M500.734,234.443c-1.724,0-3.105,0.24-4.872,1.025v15.017h-4.006v-19.298
			h3.816v1.832c2.021-1.513,3.64-2.129,5.476-2.129c0.396,0,0.86,0.038,0.86,0.038v3.558
			C501.399,234.408,501.111,234.443,500.734,234.443"/>
		<path clip-path="url(#SVGID_152_)" fill="#0F3F93" d="M507.116,227.424c-1.354,0-2.459-1.06-2.459-2.417
			c0-1.345,1.063-2.418,2.42-2.418c1.312,0,2.369,1.073,2.369,2.418C509.446,226.32,508.434,227.424,507.116,227.424
			 M505.083,231.184h4v19.3h-4V231.184z"/>
		<path clip-path="url(#SVGID_152_)" fill="#0F3F93" d="M519.961,250.952c-1.876,0-3.261-0.793-3.963-2.132
			c-0.452-0.85-0.562-1.842-0.562-4.44v-10.45h-3.276v-2.217l3.276-0.413v-5.336h3.998v5.222h5.319v2.743h-5.319v9.291
			c0,3.271,0.038,3.357,0.325,3.853c0.279,0.488,0.861,0.722,1.727,0.722c0.942,0,1.836-0.156,3.385-0.56l0.632,2.446
			C523.16,250.568,521.575,250.952,519.961,250.952"/>
		<path clip-path="url(#SVGID_152_)" fill="#0F3F93" d="M536.696,252.909c-1.832,4.979-3.053,6.092-6.655,6.092
			c-0.904,0-1.644-0.063-2.948-0.296l0.294-2.53c0.737,0.093,1.19,0.093,1.628,0.093c2.678,0,2.823-0.294,4.514-4.341l0.636-1.59
			l-7.896-19.15h4.437l5.518,14.608l4.904-14.608h3.652L536.696,252.909z"/>
		
			<rect x="467.078" y="137.145" clip-path="url(#SVGID_152_)" fill-rule="evenodd" clip-rule="evenodd" fill="#0F3F93" width="78.473" height="52.043"/>
		<polygon clip-path="url(#SVGID_152_)" fill-rule="evenodd" clip-rule="evenodd" fill="#FFED00" points="506.245,142.453 
			507.047,144.73 509.492,144.763 507.567,146.227 508.273,148.534 506.282,147.187 504.287,148.566 504.964,146.245 
			503.02,144.814 505.456,144.746 		"/>
		<polygon clip-path="url(#SVGID_152_)" fill-rule="evenodd" clip-rule="evenodd" fill="#FFED00" points="506.518,177.059 
			507.321,179.345 509.762,179.385 507.84,180.864 508.543,183.189 506.552,181.818 504.558,183.22 505.237,180.884 
			503.292,179.435 505.728,179.357 		"/>
		<polygon clip-path="url(#SVGID_152_)" fill-rule="evenodd" clip-rule="evenodd" fill="#FFED00" points="514.853,144.613 
			515.666,146.903 518.102,146.921 516.159,148.419 516.901,150.731 514.887,149.356 512.885,150.763 513.581,148.436 
			511.627,146.972 514.053,146.915 		"/>
		<polygon clip-path="url(#SVGID_152_)" fill-rule="evenodd" clip-rule="evenodd" fill="#FFED00" points="515.089,174.774 
			515.902,177.058 518.339,177.1 516.396,178.578 517.137,180.893 515.125,179.531 513.124,180.922 513.817,178.597 511.864,177.15 
			514.29,177.07 		"/>
		<polygon clip-path="url(#SVGID_152_)" fill-rule="evenodd" clip-rule="evenodd" fill="#FFED00" points="497.696,144.75 
			498.532,147.037 500.939,147.057 499.034,148.553 499.737,150.869 497.733,149.488 495.749,150.898 496.436,148.573 
			494.489,147.107 496.93,147.048 		"/>
		<polygon clip-path="url(#SVGID_152_)" fill-rule="evenodd" clip-rule="evenodd" fill="#FFED00" points="497.933,174.769 
			498.767,177.052 501.176,177.087 499.269,178.572 499.971,180.889 497.97,179.504 495.984,180.92 496.671,178.593 
			494.725,177.137 497.166,177.063 		"/>
		<polygon clip-path="url(#SVGID_152_)" fill-rule="evenodd" clip-rule="evenodd" fill="#FFED00" points="521.359,150.836 
			522.171,153.124 524.61,153.165 522.687,154.64 523.405,156.961 521.397,155.593 519.421,156.99 520.104,154.659 518.133,153.215 
			520.565,153.136 		"/>
		<polygon clip-path="url(#SVGID_152_)" fill-rule="evenodd" clip-rule="evenodd" fill="#FFED00" points="521.497,168.396 
			522.309,170.665 524.747,170.7 522.825,172.197 523.542,174.508 521.534,173.13 519.56,174.539 520.241,172.219 518.272,170.752 
			520.704,170.679 		"/>
		<polygon clip-path="url(#SVGID_152_)" fill-rule="evenodd" clip-rule="evenodd" fill="#FFED00" points="491.488,151.069 
			492.312,153.358 494.74,153.397 492.831,154.873 493.544,157.194 491.525,155.827 489.543,157.223 490.216,154.892 488.28,153.45 
			490.705,153.37 		"/>
		<polygon clip-path="url(#SVGID_152_)" fill-rule="evenodd" clip-rule="evenodd" fill="#FFED00" points="491.624,168.458 
			492.448,170.744 494.874,170.78 492.966,172.261 493.683,174.586 491.663,173.208 489.679,174.617 490.355,172.281 
			488.418,170.831 490.84,170.756 		"/>
		<polygon clip-path="url(#SVGID_152_)" fill-rule="evenodd" clip-rule="evenodd" fill="#FFED00" points="523.92,159.512 
			524.738,161.811 527.159,161.837 525.229,163.319 525.971,165.642 523.959,164.266 521.959,165.672 522.655,163.336 
			520.706,161.886 523.128,161.822 		"/>
		<polygon clip-path="url(#SVGID_152_)" fill-rule="evenodd" clip-rule="evenodd" fill="#FFED00" points="489.226,159.784 
			490.045,162.082 492.487,162.109 490.54,163.587 491.278,165.914 489.263,164.539 487.29,165.946 487.959,163.608 486.02,162.158 
			488.45,162.095 		"/>
		<path clip-path="url(#SVGID_152_)" fill="#0F3F93" d="M200.051,151.736v2.672c0,15.928,6.723,23.135,19.15,23.135
			c7.219,0,13.771-1.344,26.71-5.528l3.017,9.723c-16.456,7.203-24.523,9.379-34.101,9.379c-19.48,0-32.25-14.408-32.25-38.883
			c0-26.651,13.105-44.078,35.11-44.078c21.339,0,32.085,12.911,32.085,39.892v3.688H200.051z M219.032,119.721
			c-10.747,0-17.13,7.714-18.478,22.469l33.597-1.347C233.819,126.441,229.112,119.721,219.032,119.721"/>
		<path clip-path="url(#SVGID_152_)" fill="#0F3F93" d="M313.098,81.171c-1.514-0.332-6.887-1.006-13.771-1.006
			c-8.566,0-10.75,3.359-10.75,14.593v15.239h22.174v11.233h-22.174v68.043H272.28V121.23h-13.941v-9.553l13.941-1.846V96.766
			c0-11.741,0.844-15.926,3.861-20.278c3.871-5.706,9.911-8.546,18.311-8.546c8.402,0,17.814,2.342,20.327,3.02L313.098,81.171z"/>
		<path clip-path="url(#SVGID_152_)" fill="#0F3F93" d="M343.504,190.951c-8.066,0-15.118-1.166-25.199-3.685l2.692-11.068
			c8.066,1.843,14.106,2.521,19.647,2.521c11.09,0,16.797-4.02,16.797-11.399c0-6.196-2.345-8.715-13.271-11.735
			c-14.604-4.019-25.201-8.879-25.201-23.13c0-15.241,10.597-24.121,28.062-24.121c6.55,0,14.274,1.333,23.007,4.183l-2.349,10.39
			c-5.538-1.176-12.761-2.508-18.632-2.508c-8.578,0-13.619,3.519-13.619,10.214c0,16.758,38.805,5.869,38.805,34.196
			C374.243,181.403,362.986,190.951,343.504,190.951"/>
		<path clip-path="url(#SVGID_152_)" fill="#0F3F93" d="M430.351,189.274v-7.201c-10.082,5.858-17.302,9.044-24.357,9.044
			c-11.091,0-20.669-8.368-20.669-24.809c0-10.212,4.039-16.415,10.414-20.102c7.563-4.36,19.492-5.027,33.932-5.027v-2.686
			c0-12.055,0-16.929-14.275-16.929c-5.872,0-13.272,0.846-23.35,2.688l-1.68-10.402c13.105-3.852,23.862-5.693,32.416-5.693
			c9.415,0,15.465,2.352,18.994,7.382c3.194,4.516,4.025,9.723,4.025,24.465v49.271H430.351z M429.67,150.722
			c-22.16,1.51-27.882,4.697-27.882,15.097c0,8.372,4.205,12.4,10.415,12.4c6.387,0,17.467-4.693,17.467-4.693V150.722z"/>
	</g>
	<g clip-path="url(#SVGID_2_)">
		<defs>
			<path id="SVGID_4384_" d="M146.956,142.076l-7.046,1.401l8.381,2.079l2.212,5.257h0.003l3.32-3.994l8.459,1.784l-6.382-4.44
				l2.963-4.097l-7.215,1.168l-6.554-4.471L146.956,142.076z M99.962,139.277l-8.905,2.375l10.445,2.02l2.543,6.643l4.34-5.422
				l10.542,1.656l-7.827-5.251l3.892-5.542l-9.105,2.062l-8.013-5.244L99.962,139.277z M58.74,115.154l-12.26,3.073l14.238,3.221
				l3.363,9.596l6.056-7.6l14.401,2.731l-10.619-7.811l5.488-7.746l-12.525,2.652l-10.868-7.776L58.74,115.154z M200.357,74.518
				l-7.054,1.401l8.388,2.072l2.219,5.268l3.313-3.999l8.463,1.783l-6.394-4.444l2.969-4.092l-7.216,1.164l-6.547-4.466
				L200.357,74.518z M29.129,77.351l-15.024,3.483l17.423,4.506l3.975,12.132l7.495-9.355L60.562,92L47.675,81.889l6.769-9.583
				l-15.329,2.933l-13.229-10.11L29.129,77.351z M174.647,46.638l-9.716,1.926l11.554,2.859l3.053,7.249l4.57-5.501l11.654,2.45
				l-8.796-6.121l4.079-5.629l-9.933,1.601l-9.033-6.157L174.647,46.638z M135.131,24.629l-11.824,2.31l13.931,3.806l3.51,9.267
				l5.688-6.924l14.079,3.341l-10.533-7.936l5.126-7.085l-12.126,1.868l-10.758-7.979L135.131,24.629z M32.124,30.296L11.59,34.678
				l23.829,6.688l5.526,16.826l10.22-12.717l24.03,5.863L57.511,37.062l9.249-12.99L45.778,27.68L27.652,13.367L32.124,30.296z
				 M86.092,7.332l3.218,11.394l-14.072,2.791l16.414,4.701l3.938,11.38l6.878-8.484l16.544,4.125l-12.23-9.775l6.193-8.653
				l-14.344,2.256L86.094,7.332H86.092z"/>
		</defs>
		<clipPath id="SVGID_154_">
			<use xlink:href="#SVGID_4384_"  overflow="visible"/>
		</clipPath>
		
			<linearGradient id="SVGID_156_" gradientUnits="userSpaceOnUse" x1="-783.3311" y1="5671.835" x2="-781.8613" y2="5671.835" gradientTransform="matrix(138.8611 0 0 -138.8611 108785.8359 787676.25)">
			<stop  offset="0" style="stop-color:#EF7C00"/>
			<stop  offset="0.0056" style="stop-color:#EF7C00"/>
			<stop  offset="0.1515" style="stop-color:#EF7F05"/>
			<stop  offset="0.3281" style="stop-color:#F18614"/>
			<stop  offset="0.5205" style="stop-color:#F3922C"/>
			<stop  offset="0.7243" style="stop-color:#F5A44F"/>
			<stop  offset="0.9349" style="stop-color:#F9B97A"/>
			<stop  offset="1" style="stop-color:#FAC189"/>
		</linearGradient>
		<rect x="11.59" y="7.332" clip-path="url(#SVGID_154_)" fill="url(#SVGID_156_)" width="204.096" height="143.481"/>
	</g>
	<g clip-path="url(#SVGID_2_)">
		<defs>
			<rect id="SVGID_4387_" x="10.646" y="7.328" width="533.965" height="251.672"/>
		</defs>
		<clipPath id="SVGID_158_">
			<use xlink:href="#SVGID_4387_"  overflow="visible"/>
		</clipPath>
		<path clip-path="url(#SVGID_158_)" fill="#0F3F93" d="M44.948,250.484v-1.627c-2.816,1.425-5.029,2.095-6.754,2.095
			c-2.074,0-3.516-0.707-4.365-1.918c-0.813-1.185-0.988-2.333-0.988-5.108v-12.74h4.009v11.757c0,2.663,0,4.524,2.947,4.524
			c1.434,0,3.198-0.315,4.944-0.931v-15.35h4.007v19.298H44.948z"/>
		<path clip-path="url(#SVGID_158_)" fill="#0F3F93" d="M63.287,234.443c-1.722,0-3.098,0.24-4.872,1.025v15.017h-4.018v-19.298
			h3.818v1.832c2.039-1.513,3.644-2.129,5.478-2.129c0.412,0,0.863,0.038,0.863,0.038v3.558
			C63.955,234.408,63.665,234.443,63.287,234.443"/>
		<path clip-path="url(#SVGID_158_)" fill="#0F3F93" d="M74.856,250.869c-5.683,0-8.959-3.685-8.959-10.052
			c0-6.255,3.363-10.096,8.959-10.096c5.777,0,8.972,3.62,8.972,10.096C83.829,247.271,80.582,250.869,74.856,250.869
			 M74.856,233.757c-3.188,0-4.698,2.205-4.698,7.021c0,5.016,1.51,7.07,4.75,7.07c3.258,0,4.654-2.055,4.654-6.995
			C79.563,235.907,78.224,233.757,74.856,233.757"/>
		<path clip-path="url(#SVGID_158_)" fill="#0F3F93" d="M98.031,250.952c-2.084,0-4.06-1.203-5.769-2.214v9.929h-4.011v-27.48h3.813
			v1.709c2.28-1.257,4.573-2.172,6.495-2.172c4.091,0,6.543,3.761,6.543,10.011C105.102,246.887,102.287,250.952,98.031,250.952
			 M96.837,234.167c-1.098,0-2.204,0.279-4.575,1.102v11.105c2.411,0.86,3.267,1.092,4.458,1.092c2.699,0,4.138-2.207,4.138-6.529
			C100.857,236.296,99.514,234.167,96.837,234.167"/>
		<path clip-path="url(#SVGID_158_)" fill="#0F3F93" d="M112.563,241.344v0.659c0,3.874,1.629,5.635,4.66,5.635
			c1.76,0,3.344-0.322,6.499-1.349l0.745,2.389c-4.023,1.726-5.983,2.274-8.294,2.274c-4.762,0-7.876-3.535-7.876-9.472
			c0-6.507,3.192-10.757,8.556-10.757c5.202,0,7.821,3.152,7.821,9.737v0.884H112.563z M117.185,233.54
			c-2.626,0-4.183,1.881-4.497,5.483l8.173-0.339C120.789,235.179,119.643,233.54,117.185,233.54"/>
		<path clip-path="url(#SVGID_158_)" fill="#0F3F93" d="M138.708,250.486v-1.75c-2.455,1.423-4.196,2.216-5.92,2.216
			c-2.709,0-5.04-2.061-5.04-6.056c0-2.487,0.96-3.996,2.524-4.885c1.856-1.077,4.746-1.233,8.271-1.233v-0.649
			c0-2.951,0-4.139-3.469-4.139c-1.43,0-3.251,0.205-5.697,0.652l-0.404-2.535c3.19-0.923,5.81-1.385,7.903-1.385
			c2.286,0,3.754,0.575,4.628,1.814c0.761,1.098,0.966,2.363,0.966,5.956v11.992H138.708z M138.544,241.105
			c-5.402,0.374-6.791,1.146-6.791,3.67c0,2.049,1.035,3.018,2.531,3.018c1.552,0,4.26-1.13,4.26-1.13V241.105z"/>
		<path clip-path="url(#SVGID_158_)" fill="#0F3F93" d="M159.796,250.484v-11.743c0-2.66,0-4.546-2.955-4.546
			c-1.431,0-3.192,0.329-4.944,0.95v15.339h-4.019v-19.298h3.8v1.632c2.827-1.436,4.998-2.097,6.832-2.097
			c1.958,0,3.482,0.755,4.349,2.013c0.765,1.14,0.946,2.07,0.946,5.143v12.607H159.796z"/>
		<polygon clip-path="url(#SVGID_158_)" fill="#0F3F93" points="184.143,226.322 184.143,234.73 195.762,234.73 195.762,237.776 
			184.143,237.776 184.143,250.486 179.884,250.486 179.884,223.27 196.053,223.27 196.053,226.322 		"/>
		<path clip-path="url(#SVGID_158_)" fill="#0F3F93" d="M207.207,250.869c-5.69,0-8.963-3.685-8.963-10.052
			c0-6.255,3.371-10.096,8.963-10.096c5.771,0,8.967,3.62,8.967,10.096C216.173,247.271,212.943,250.869,207.207,250.869
			 M207.207,233.757c-3.177,0-4.695,2.205-4.695,7.021c0,5.016,1.519,7.07,4.739,7.07c3.271,0,4.656-2.055,4.656-6.995
			C211.907,235.907,210.57,233.757,207.207,233.757"/>
		<path clip-path="url(#SVGID_158_)" fill="#0F3F93" d="M228.333,250.869c-5.696,0-8.966-3.685-8.966-10.052
			c0-6.255,3.352-10.096,8.966-10.096c5.765,0,8.949,3.62,8.949,10.096C237.282,247.271,234.062,250.869,228.333,250.869
			 M228.333,233.757c-3.2,0-4.721,2.205-4.721,7.021c0,5.016,1.521,7.07,4.761,7.07c3.269,0,4.674-2.055,4.674-6.995
			C233.046,235.907,231.687,233.757,228.333,233.757"/>
		<path clip-path="url(#SVGID_158_)" fill="#0F3F93" d="M253.547,250.486v-1.75c-2.307,1.312-4.498,2.216-6.436,2.216
			c-4.167,0-6.618-3.801-6.618-10.051c0-6.172,2.809-10.178,7.073-10.178c2.084,0,4.056,1.112,5.765,2.119v-11.339h4.017v28.983
			H253.547z M253.332,235.268c-2.452-0.86-3.226-1.071-4.422-1.071c-2.687,0-4.167,2.195-4.167,6.537
			c0,4.656,1.353,6.773,4.016,6.773c1.091,0,2.204-0.234,4.573-1.133V235.268z"/>
		<path clip-path="url(#SVGID_158_)" fill="#0F3F93" d="M279.605,250.829c-2.575,0-4.862-0.425-8.104-1.314l0.781-3.07
			c2.688,0.666,4.957,1.022,6.923,1.022c3.103,0,5.93-1.543,5.93-4.406c0-1.875-0.612-2.775-3.115-3.708
			c-4.712-1.758-10.236-2.402-10.236-8.628c0-4.808,3.413-7.731,8.771-7.731c2.206,0,4.624,0.354,7.647,1.152l-0.66,2.99
			c-1.996-0.403-4.688-0.863-6.493-0.863c-2.707,0-4.999,1.365-4.999,4.122c0,2.26,0.813,2.958,5.19,4.168
			c5.778,1.598,8.149,3.213,8.149,7.883C289.389,247.682,285.633,250.829,279.605,250.829"/>
		<path clip-path="url(#SVGID_158_)" fill="#0F3F93" d="M303.307,250.486v-1.75c-2.46,1.423-4.214,2.216-5.931,2.216
			c-2.692,0-5.041-2.061-5.041-6.056c0-2.487,0.991-3.996,2.536-4.885c1.855-1.077,4.763-1.233,8.264-1.233v-0.649
			c0-2.951,0-4.139-3.465-4.139c-1.437,0-3.253,0.205-5.702,0.652l-0.406-2.535c3.202-0.923,5.806-1.385,7.909-1.385
			c2.298,0,3.755,0.575,4.617,1.814c0.778,1.098,0.973,2.363,0.973,5.956v11.992H303.307z M303.135,241.105
			c-5.373,0.374-6.78,1.146-6.78,3.67c0,2.049,1.021,3.018,2.54,3.018c1.545,0,4.24-1.13,4.24-1.13V241.105z"/>
		<path clip-path="url(#SVGID_158_)" fill="#0F3F93" d="M323.606,224.144c-0.375-0.07-1.676-0.226-3.35-0.226
			c-2.088,0-2.625,0.806-2.625,3.545v3.722h5.393v2.743h-5.393v16.556h-3.977v-16.556h-3.389v-2.334l3.389-0.46v-3.189
			c0-2.845,0.225-3.872,0.941-4.925c0.949-1.383,2.418-2.087,4.471-2.087c2.043,0,4.348,0.57,4.96,0.736L323.606,224.144z"/>
		<path clip-path="url(#SVGID_158_)" fill="#0F3F93" d="M328.387,241.344v0.659c0,3.874,1.642,5.635,4.681,5.635
			c1.752,0,3.343-0.322,6.503-1.349l0.727,2.389c-4.013,1.726-5.956,2.274-8.292,2.274c-4.757,0-7.884-3.535-7.884-9.472
			c0-6.507,3.217-10.757,8.556-10.757c5.211,0,7.821,3.152,7.821,9.737v0.884H328.387z M333.018,233.54
			c-2.633,0-4.171,1.881-4.5,5.483l8.188-0.339C336.628,235.179,335.475,233.54,333.018,233.54"/>
		<path clip-path="url(#SVGID_158_)" fill="#0F3F93" d="M350.039,250.952c-1.88,0-3.277-0.793-3.966-2.132
			c-0.448-0.85-0.578-1.842-0.578-4.44v-10.45h-3.277v-2.217l3.277-0.413v-5.336h4.021v5.222h5.317v2.743h-5.317v9.291
			c0,3.271,0.043,3.357,0.322,3.853c0.288,0.488,0.857,0.722,1.711,0.722c0.955,0,1.846-0.156,3.412-0.56l0.598,2.446
			C353.231,250.568,351.637,250.952,350.039,250.952"/>
		<path clip-path="url(#SVGID_158_)" fill="#0F3F93" d="M366.79,252.909c-1.838,4.979-3.066,6.092-6.684,6.092
			c-0.903,0-1.628-0.063-2.954-0.296l0.289-2.53c0.749,0.093,1.204,0.093,1.655,0.093c2.646,0,2.816-0.294,4.482-4.341l0.68-1.59
			l-7.922-19.15h4.423l5.518,14.608l4.922-14.608h3.638L366.79,252.909z"/>
		<path clip-path="url(#SVGID_158_)" fill="#0F3F93" d="M405.363,250.485l-2.396-6.887h-11.259l-2.366,6.887h-3.852l9.621-27.217
			h4.869l9.896,27.217H405.363z M397.234,226.729l-4.54,13.886h9.197L397.234,226.729z"/>
		<path clip-path="url(#SVGID_158_)" fill="#0F3F93" d="M424.803,250.484v-1.627c-2.811,1.425-5.012,2.095-6.732,2.095
			c-2.096,0-3.527-0.707-4.383-1.918c-0.822-1.185-0.989-2.333-0.989-5.108v-12.74h4.01v11.757c0,2.663,0,4.524,2.946,4.524
			c1.426,0,3.188-0.315,4.959-0.931v-15.35h4.004v19.298H424.803z"/>
		<path clip-path="url(#SVGID_158_)" fill="#0F3F93" d="M439.493,250.952c-1.875,0-3.257-0.793-3.948-2.132
			c-0.462-0.85-0.579-1.842-0.579-4.44v-10.45h-3.273v-2.217l3.273-0.413v-5.336h4.006v5.222h5.321v2.743h-5.321v9.291
			c0,3.271,0.049,3.357,0.339,3.853c0.287,0.488,0.854,0.722,1.714,0.722c0.945,0,1.836-0.156,3.404-0.56l0.593,2.446
			C442.702,250.568,441.102,250.952,439.493,250.952"/>
		<path clip-path="url(#SVGID_158_)" fill="#0F3F93" d="M460.392,250.484v-11.743c0-2.66,0-4.546-2.959-4.546
			c-1.426,0-3.191,0.329-4.957,0.95v15.339h-3.998v-28.981h3.998v11.231c2.664-1.314,4.806-2.013,6.647-2.013
			c1.959,0,3.464,0.755,4.32,2.013c0.785,1.14,0.948,2.07,0.948,5.143v12.607H460.392z"/>
		<path clip-path="url(#SVGID_158_)" fill="#0F3F93" d="M477.527,250.869c-5.687,0-8.969-3.685-8.969-10.052
			c0-6.255,3.37-10.096,8.969-10.096c5.767,0,8.972,3.62,8.972,10.096C486.499,247.271,483.249,250.869,477.527,250.869
			 M477.527,233.757c-3.194,0-4.696,2.205-4.696,7.021c0,5.016,1.502,7.07,4.74,7.07c3.276,0,4.668-2.055,4.668-6.995
			C482.239,235.907,480.88,233.757,477.527,233.757"/>
		<path clip-path="url(#SVGID_158_)" fill="#0F3F93" d="M499.792,234.443c-1.723,0-3.104,0.24-4.869,1.025v15.017h-4.008v-19.298
			h3.816v1.832c2.021-1.513,3.64-2.129,5.476-2.129c0.396,0,0.863,0.038,0.863,0.038v3.558
			C500.457,234.408,500.169,234.443,499.792,234.443"/>
		<path clip-path="url(#SVGID_158_)" fill="#0F3F93" d="M506.174,227.424c-1.352,0-2.456-1.06-2.456-2.417
			c0-1.345,1.062-2.418,2.416-2.418c1.313,0,2.372,1.073,2.372,2.418C508.506,226.32,507.492,227.424,506.174,227.424
			 M504.14,231.184h4.001v19.3h-4.001V231.184z"/>
		<path clip-path="url(#SVGID_158_)" fill="#0F3F93" d="M519.02,250.952c-1.877,0-3.262-0.793-3.963-2.132
			c-0.451-0.85-0.563-1.842-0.563-4.44v-10.45h-3.275v-2.217l3.275-0.413v-5.336h3.999v5.222h5.319v2.743h-5.319v9.291
			c0,3.271,0.038,3.357,0.325,3.853c0.279,0.488,0.861,0.722,1.727,0.722c0.943,0,1.836-0.156,3.386-0.56l0.63,2.446
			C522.217,250.568,520.634,250.952,519.02,250.952"/>
		<path clip-path="url(#SVGID_158_)" fill="#0F3F93" d="M535.755,252.909c-1.833,4.979-3.054,6.092-6.659,6.092
			c-0.902,0-1.641-0.063-2.945-0.296l0.294-2.53c0.738,0.093,1.189,0.093,1.626,0.093c2.68,0,2.825-0.294,4.516-4.341l0.636-1.59
			l-7.896-19.15h4.435l5.521,14.608l4.903-14.608h3.654L535.755,252.909z"/>
		
			<rect x="466.137" y="137.145" clip-path="url(#SVGID_158_)" fill-rule="evenodd" clip-rule="evenodd" fill="#0F3F93" width="78.472" height="52.043"/>
		<polygon clip-path="url(#SVGID_158_)" fill-rule="evenodd" clip-rule="evenodd" fill="#FFED00" points="505.303,142.453 
			506.106,144.73 508.551,144.763 506.624,146.227 507.33,148.534 505.34,147.187 503.344,148.566 504.022,146.245 502.079,144.814 
			504.515,144.746 		"/>
		<polygon clip-path="url(#SVGID_158_)" fill-rule="evenodd" clip-rule="evenodd" fill="#FFED00" points="505.576,177.059 
			506.379,179.345 508.823,179.385 506.899,180.864 507.604,183.189 505.611,181.818 503.619,183.22 504.295,180.884 
			502.352,179.435 504.787,179.357 		"/>
		<polygon clip-path="url(#SVGID_158_)" fill-rule="evenodd" clip-rule="evenodd" fill="#FFED00" points="513.911,144.613 
			514.723,146.903 517.161,146.921 515.219,148.419 515.96,150.731 513.947,149.356 511.946,150.763 512.638,148.436 
			510.686,146.972 513.112,146.915 		"/>
		<polygon clip-path="url(#SVGID_158_)" fill-rule="evenodd" clip-rule="evenodd" fill="#FFED00" points="514.148,174.774 
			514.96,177.058 517.4,177.1 515.454,178.578 516.196,180.893 514.184,179.531 512.184,180.922 512.875,178.597 510.923,177.15 
			513.349,177.07 		"/>
		<polygon clip-path="url(#SVGID_158_)" fill-rule="evenodd" clip-rule="evenodd" fill="#FFED00" points="496.756,144.75 
			497.59,147.037 499.999,147.057 498.092,148.553 498.793,150.869 496.791,149.488 494.807,150.898 495.495,148.573 
			493.546,147.107 495.989,147.048 		"/>
		<polygon clip-path="url(#SVGID_158_)" fill-rule="evenodd" clip-rule="evenodd" fill="#FFED00" points="496.991,174.769 
			497.827,177.052 500.235,177.087 498.329,178.572 499.03,180.889 497.027,179.504 495.042,180.92 495.732,178.593 
			493.784,177.137 496.226,177.063 		"/>
		<polygon clip-path="url(#SVGID_158_)" fill-rule="evenodd" clip-rule="evenodd" fill="#FFED00" points="520.417,150.836 
			521.23,153.124 523.667,153.165 521.746,154.64 522.463,156.961 520.456,155.593 518.481,156.99 519.163,154.659 517.194,153.215 
			519.623,153.136 		"/>
		<polygon clip-path="url(#SVGID_158_)" fill-rule="evenodd" clip-rule="evenodd" fill="#FFED00" points="520.555,168.396 
			521.366,170.665 523.804,170.7 521.884,172.197 522.602,174.508 520.592,173.13 518.621,174.539 519.301,172.219 517.332,170.752 
			519.76,170.679 		"/>
		<polygon clip-path="url(#SVGID_158_)" fill-rule="evenodd" clip-rule="evenodd" fill="#FFED00" points="490.546,151.069 
			491.37,153.358 493.798,153.397 491.888,154.873 492.604,157.194 490.584,155.827 488.602,157.223 489.277,154.892 
			487.338,153.45 489.762,153.37 		"/>
		<polygon clip-path="url(#SVGID_158_)" fill-rule="evenodd" clip-rule="evenodd" fill="#FFED00" points="490.682,168.458 
			491.508,170.744 493.932,170.78 492.023,172.261 492.74,174.586 490.719,173.208 488.739,174.617 489.413,172.281 
			487.477,170.831 489.9,170.756 		"/>
		<polygon clip-path="url(#SVGID_158_)" fill-rule="evenodd" clip-rule="evenodd" fill="#FFED00" points="522.981,159.512 
			523.797,161.811 526.219,161.837 524.287,163.319 525.03,165.642 523.015,164.266 521.018,165.672 521.713,163.336 
			519.765,161.886 522.186,161.822 		"/>
		<polygon clip-path="url(#SVGID_158_)" fill-rule="evenodd" clip-rule="evenodd" fill="#FFED00" points="488.285,159.784 
			489.102,162.082 491.545,162.109 489.598,163.587 490.337,165.914 488.324,164.539 486.348,165.946 487.017,163.608 
			485.081,162.158 487.508,162.095 		"/>
		<path clip-path="url(#SVGID_158_)" fill="#0F3F93" d="M199.112,151.736v2.672c0,15.928,6.722,23.135,19.148,23.135
			c7.22,0,13.771-1.344,26.711-5.528l3.014,9.723c-16.453,7.203-24.521,9.379-34.099,9.379c-19.481,0-32.25-14.408-32.25-38.883
			c0-26.651,13.104-44.078,35.11-44.078c21.339,0,32.084,12.911,32.084,39.892v3.688H199.112z M218.091,119.721
			c-10.747,0-17.132,7.714-18.479,22.469l33.597-1.347C232.877,126.441,228.171,119.721,218.091,119.721"/>
		<path clip-path="url(#SVGID_158_)" fill="#0F3F93" d="M312.157,81.171c-1.513-0.332-6.889-1.006-13.771-1.006
			c-8.567,0-10.751,3.359-10.751,14.593v15.239h22.173v11.233h-22.173v68.043H271.34V121.23h-13.943v-9.553l13.943-1.846V96.766
			c0-11.741,0.843-15.926,3.859-20.278c3.871-5.706,9.912-8.546,18.311-8.546c8.402,0,17.815,2.342,20.326,3.02L312.157,81.171z"/>
		<path clip-path="url(#SVGID_158_)" fill="#0F3F93" d="M342.563,190.951c-8.067,0-15.117-1.166-25.199-3.685l2.693-11.068
			c8.066,1.843,14.105,2.521,19.647,2.521c11.089,0,16.796-4.02,16.796-11.399c0-6.196-2.344-8.715-13.27-11.735
			c-14.606-4.019-25.201-8.879-25.201-23.13c0-15.241,10.595-24.121,28.059-24.121c6.553,0,14.276,1.333,23.009,4.183l-2.349,10.39
			c-5.539-1.176-12.76-2.508-18.633-2.508c-8.578,0-13.62,3.519-13.62,10.214c0,16.758,38.806,5.869,38.806,34.196
			C373.301,181.403,362.043,190.951,342.563,190.951"/>
		<path clip-path="url(#SVGID_158_)" fill="#0F3F93" d="M429.411,189.274v-7.201c-10.082,5.858-17.302,9.044-24.357,9.044
			c-11.09,0-20.672-8.368-20.672-24.809c0-10.212,4.041-16.415,10.414-20.102c7.564-4.36,19.493-5.027,33.935-5.027v-2.686
			c0-12.055,0-16.929-14.276-16.929c-5.871,0-13.271,0.846-23.35,2.688l-1.681-10.402c13.107-3.852,23.862-5.693,32.417-5.693
			c9.414,0,15.466,2.352,18.993,7.382c3.195,4.516,4.026,9.723,4.026,24.465v49.271H429.411z M428.73,150.722
			c-22.16,1.51-27.882,4.697-27.882,15.097c0,8.372,4.205,12.4,10.414,12.4c6.387,0,17.468-4.693,17.468-4.693V150.722z"/>
	</g>
	<g clip-path="url(#SVGID_2_)">
		<defs>
			<path id="SVGID_4389_" d="M146.015,142.076l-7.049,1.401l8.382,2.079l2.211,5.257h0.004l3.324-3.994l8.454,1.784l-6.381-4.44
				l2.961-4.097l-7.214,1.168l-6.553-4.471L146.015,142.076z M99.02,139.277l-8.904,2.375l10.45,2.02l2.538,6.643l4.343-5.422
				l10.536,1.656l-7.826-5.251l3.892-5.542l-9.104,2.062l-8.01-5.244L99.02,139.277z M57.799,115.154l-12.26,3.073l14.238,3.221
				l3.362,9.596l6.056-7.6l14.398,2.731l-10.622-7.811l5.495-7.746l-12.528,2.652l-10.868-7.776L57.799,115.154z M199.421,74.518
				l-7.058,1.401l8.385,2.072l2.217,5.268l3.314-3.999l8.466,1.783l-6.391-4.444l2.96-4.092l-7.212,1.164l-6.545-4.466
				L199.421,74.518z M28.187,77.351l-15.023,3.483l17.423,4.506l3.975,12.132l7.493-9.355L59.617,92L46.736,81.889l6.766-9.583
				l-15.325,2.933l-13.235-10.11L28.187,77.351z M173.706,46.638l-9.718,1.926l11.554,2.859l3.056,7.249l4.569-5.501l11.656,2.45
				l-8.8-6.121l4.083-5.629l-9.935,1.601l-9.031-6.157L173.706,46.638z M134.189,24.629l-11.825,2.31l13.934,3.806l3.509,9.267
				l5.687-6.924l14.082,3.341l-10.535-7.936l5.124-7.085l-12.126,1.868l-10.753-7.979L134.189,24.629z M31.186,30.296l-20.537,4.381
				v0.001l23.824,6.687l5.536,16.826l10.217-12.717l24.03,5.863L56.569,37.062l9.248-12.99L44.836,27.68L26.712,13.367
				L31.186,30.296z M85.152,7.332l3.222,11.394l-14.077,2.791l16.415,4.701l3.935,11.38l6.882-8.484l16.541,4.125l-12.224-9.775
				l6.189-8.653l-14.345,2.256L85.153,7.332H85.152z"/>
		</defs>
		<clipPath id="SVGID_160_">
			<use xlink:href="#SVGID_4389_"  overflow="visible"/>
		</clipPath>
		
			<linearGradient id="SVGID_162_" gradientUnits="userSpaceOnUse" x1="-783.3335" y1="5671.835" x2="-781.8638" y2="5671.835" gradientTransform="matrix(138.8627 0 0 -138.8627 108786.4609 787685.25)">
			<stop  offset="0" style="stop-color:#EF7C00"/>
			<stop  offset="0.0056" style="stop-color:#EF7C00"/>
			<stop  offset="0.1515" style="stop-color:#EF7F05"/>
			<stop  offset="0.3281" style="stop-color:#F18614"/>
			<stop  offset="0.5205" style="stop-color:#F3922C"/>
			<stop  offset="0.7243" style="stop-color:#F5A44F"/>
			<stop  offset="0.9349" style="stop-color:#F9B97A"/>
			<stop  offset="1" style="stop-color:#FAC189"/>
		</linearGradient>
		<rect x="10.649" y="7.332" clip-path="url(#SVGID_160_)" fill="url(#SVGID_162_)" width="204.096" height="143.48"/>
	</g>
</g>
</svg>
