<?xml version="1.0" encoding="UTF-8" standalone="no"?>
<!DOCTYPE svg PUBLIC "-//W3C//DTD SVG 1.1//EN" "http://www.w3.org/Graphics/SVG/1.1/DTD/svg11.dtd">
<svg xmlns="http://www.w3.org/2000/svg">
<metadata>Generated by Fontastic.me</metadata>
<defs>
<font id="efsaicons" horiz-adv-x="512">
<font-face font-family="efsaicons" units-per-em="512" ascent="480" descent="-32"/>
<missing-glyph horiz-adv-x="512"/>

<glyph unicode="a" d="M256 475c40 0 77-9 110-29 34-20 60-46 80-80 20-33 29-70 29-110 0-40-9-77-29-110-20-34-46-60-80-80-33-20-70-29-110-29-40 0-77 9-110 29-34 20-60 46-80 80-20 33-29 70-29 110 0 40 9 77 29 110 20 34 46 60 80 80 33 20 70 29 110 29z m78-148c0-1-1-2-2-3-2-2-3-3-4-3 0 0 1 1 1 2 0 1 1 2 1 3 1 1 1 2 1 2 2 1 4 2 7 4 2 1 7 2 15 3 6 2 11 1 14-3 0 1 1 2 3 4 2 2 3 3 4 3 1 1 2 1 4 2 3 0 4 1 5 2l0 6c-2 0-4 1-5 2-1 2-2 4-2 6 0 0 0-1-1-2 0 1-1 2-2 2-1 0-2 0-3 0-1-1-2-1-3 0-1 0-3 1-4 2-1 1-2 2-2 4-1 3-1 4-1 5-1 1-2 2-3 3-1 1-2 2-3 3 0 0 0 1 0 1-1 1-1 2-1 2-1 1-1 1-1 2-1 0-1 0-2 0-1 0-1 0-2-1-1-1-1-2-2-3-1-1-1-1-1-1-1 0-2 0-2 0-1 0-1 0-1 0-1 0-1-1-2-1 0 0-1-1-1-1-1 0-2-1-3-1-1 0-1 0-2 0 3 1 3 2 0 3-2 0-4 1-5 1 2 0 3 1 2 3 0 2-1 3-2 4l1 0c0 1-1 2-2 2-2 1-3 2-5 3-2 1-3 1-4 2-1 1-5 1-10 2-5 1-8 1-9 0-1-1-1-2-1-3 0 0 0-2 1-4 1-1 1-3 1-3 0-1 0-3-2-4-1-1-2-2-2-3 0-2 2-3 4-5 3-1 4-3 3-6 0-1-2-3-4-4-3-2-4-3-5-4-1-1-1-3 0-5 0-2 1-4 3-5 0 0 0-1 0-1 0 0 0-1-1-1 0-1-1-1-1-1-1-1-2-1-2-1l-1-1c-2-1-4 0-6 2-2 2-3 4-4 7-1 5-3 8-4 9-5 1-8 1-9-1-1 3-5 5-11 8-5 2-11 2-17 1 1 0 1 2 0 4-1 3-3 4-5 4 0 1 1 3 1 5 0 2 0 3 0 4 1 2 2 4 3 6 1 0 1 1 2 3 2 1 2 2 3 3 1 2 1 2 0 2 7-1 12 0 15 3 1 1 2 3 3 5 1 2 2 4 3 5 2 1 3 2 4 2 1-1 2-1 4-2 2-1 3-1 4-1 3-1 4 0 5 3 0 2-1 4-3 5 3 0 3 2 1 5-1 2-1 2-2 3-2 1-5 0-8-2-1 0-1-1 1-2 0 0-1-1-3-3-1-2-3-4-5-5-1-1-3-1-4 2 0 0-1 1-2 3-1 3-1 4-2 4-2 0-3-1-5-4 1 2 0 3-3 4-3 2-5 2-7 3 4 2 3 4-2 7-2 1-4 2-6 2-3 0-5 0-6-1-1-2-1-3-1-4 0-1 0-1 1-2 1-1 2-1 3-2 1 0 2 0 3-1 2 0 2 0 3-1 3-1 3-3 2-4 0 0-1 0-2-1-2 0-3 0-4-1-1 0-1-1-1-1-1-1-1-2 0-4 0-2 0-3-1-4-1 1-2 3-2 5-1 2-2 4-2 5 1-2-1-3-8-2l-2 0c-1 0-3 0-5 0-2-1-4-1-6-1-1 1-3 1-4 3 0 1 0 3 0 5 0 1 1 1 1 1 0 1-1 1-3 3-1 1-2 2-3 2-8-3-17-7-26-12 1 0 2 0 3 1 1 0 2 1 4 2 1 0 2 1 3 1 6 3 10 3 12 2l1 2c3-3 5-6 6-8-2 1-4 1-9 1-4-1-6-3-6-4 1-2 2-4 1-5 0 1-2 2-3 3-1 1-3 2-4 3-1 1-3 1-4 2-3 0-6-1-7-1-28-15-50-36-67-63 1-1 3-2 4-2 0-1 1-1 1-3 0-2 0-3 1-3 0-1 1 0 3 1 2-2 2-4 1-6 0 0 4-2 12-7 4-4 6-6 6-6 1-3 0-4-2-6-1 1-1 2-3 3-2 1-2 2-3 1 0-1 0-3 1-5 0-3 1-4 3-4-2 0-3-1-3-4-1-3-1-7-1-10 0-4 0-6 0-7l0 0c0-3 0-6 2-10 2-5 4-6 6-6-2 0 0-5 6-12 1-2 2-3 2-3 1 0 2-1 4-2 1-1 3-2 4-3 1-1 2-2 3-3 0-1 1-3 3-6 1-3 2-6 4-7-1-1 0-3 2-6 2-2 3-4 3-6 0 0 0 0 0 0-1-1-1-1-1-1 0-1 2-2 4-4 3-1 4-2 5-3 0-1 0-2 0-3 0-2 1-3 1-3 1-1 1-1 2-1 1 4-1 10-6 18-3 4-5 7-5 8-1 1-1 2-2 4 0 2-1 4-1 5 0 0 1-1 2-1 0 0 1 0 2-1 1 0 2-1 2-1 1 0 1-1 1-1-1-1-1-3 0-5 1-2 2-4 4-5 1-2 3-3 5-6 1-2 3-3 3-3 1-1 2-3 4-6 2-2 2-4 0-4 2 0 4-1 6-3 2-1 3-3 5-5 1-2 1-4 2-8 0-3 1-5 1-7 1-1 1-2 3-3 1-2 2-3 3-3l5-2c0 0 1-1 4-2 1-1 2-2 5-3 2-2 4-3 6-4 2 0 3-1 5-1 1 0 2 0 4 1 1 0 3 1 4 1 2 0 5-1 8-4 3-4 5-6 6-6 7-4 12-5 16-4-1 0-1 0 0-2 0-1 1-2 2-4 1-2 2-3 3-4 0-1 1-2 1-3 1-1 3-2 5-4 3-2 4-3 5-4 2 0 2 1 2 2 0-1 1-3 2-5 2-3 4-4 6-3 2 0 4 3 4 9-6-3-11-1-14 5 0 0-1 1-1 2-1 0-1 1-1 2-1 1-1 2-1 2 0 1 0 2 0 3 0 0 1 0 1 0 2 0 3 1 3 1 0 1 0 2 0 4-1 2-1 3-1 4-1 1-2 3-4 5-1 3-3 4-3 5-1-2-2-3-5-3-2 1-3 1-4 3 0 0 0-1-1-2 0 0 0-1 0-1-2 0-4 0-4 0 0 0 0 2 0 5 1 3 1 5 1 6 1 1 1 2 2 4 1 1 2 3 2 4 1 1 1 2 1 3 0 2 0 2-1 3-1 1-3 1-5 1-4 0-6-2-7-6-1 0-1-1-1-3-1-1-1-2-2-3 0-1-1-2-2-2-2-1-4-1-7-1-3 0-6 1-7 2-2 1-5 4-6 8-2 4-3 8-3 11 0 1 0 4 1 7 0 3 0 6 0 7 1 2 0 4-1 7 0 1 1 2 2 3 2 1 3 2 3 3 1 0 1 0 2 0 0 1 0 1 1 0 0 0 1 0 1 1 0 0 1 1 1 2 0 0-1 0-1 0-1 1-1 1-1 1 1 0 4 0 8 1 4 1 6 0 8-1 2-2 5-2 6 1 0 0 0 1-1 3 0 1 0 2 0 3 1-5 4-6 8-2 1-1 2-1 5-2 2 0 4 0 5-1 0 0 1-1 2-2 0 0 1-1 1-1 1 0 1 0 2 0 0 1 1 1 2 2 2-3 3-5 4-7 2-7 3-12 5-12 1-1 2-1 3-1 1 0 1 1 1 3 1 1 1 3 0 4 0 1 0 2 0 3l0 3 0 5-1 2c-2 1-4 2-5 4-1 1 0 3 1 5 1 2 2 3 4 5 0 0 1 1 2 1 1 1 3 1 5 2 1 1 2 2 3 2 4 4 6 7 4 10 2 0 3 1 4 3-1 0-1 0-2 1-1 0-1 1-2 1-1 1-1 1-1 1 1 1 2 2 0 4 1 1 2 2 2 3 1 2 2 3 3 3 1-2 3-2 6 0 1 1 1 3 0 4 1 2 3 3 6 3 3 1 4 2 5 3 1 0 2 0 2 1 0 0 1 1 1 3 0 2 0 3 0 3 1 1 3 2 5 3 2 1 3 1 3 1l5 4c1 0 1 1 0 1 4-1 7 0 9 3 2 2 1 4-2 6 1 1 1 2 0 2-2 1-3 1-5 2 1 0 2 0 4 0 1 0 2 0 3 0 2 2 2 4-2 5-4 1-8 0-13-3z m-46-251c39 7 72 25 100 54-1 1-2 1-4 1-1 1-3 1-3 1-4 2-6 2-7 3 0 1 0 2-1 3 0 1-1 2-2 3-1 0-2 1-4 2-1 1-2 2-3 2 0 1-1 1-2 2-1 1-1 1-2 1 0 1-1 1-2 2-1 0-2 0-2 0-1 0-2 0-3 0l-1 0c-1 0-1-1-2-1 0 0-1-1-1-1-1 0-1 0-1-1 0 0 0 0 0 0-4 3-8 5-11 6-1 0-2 1-3 1-1 1-2 2-3 2-1 1-2 1-3 1-1 0-2-1-3-2-1-1-1-3-2-4 0-2 0-4 0-4-1 1-1 2 0 5 1 2 1 4 0 5 0 1-1 2-3 1-1 0-2 0-3-1-1 0-2-1-3-2-2-1-2-2-3-2 0 0-1-1-2-2-2-1-2-1-3-2 0-1-1-2-1-3-1-2-1-3-2-3 0 0-1 1-3 1-2 1-3 1-3 2 1-2 1-5 1-10 1-5 1-8 2-11 1-6 0-10-4-14-5-4-8-8-8-11-1-4 0-7 3-7 0-2 0-4-2-6-1-3-2-5-2-6 0-2 0-3 1-5z"/>
<glyph unicode="f" d="M384 128l-256 0 0 255 64 1 0 64-128 0 0-384 384 0 0 160-64 0z m-128 320l64-64-96-96 64-64 96 96 64-64 0 192z"/>
<glyph unicode="g" d="M160 448l192-192-192-192z"/>
<glyph unicode="h" d="M0 496l0-479 512 0 0 479z m387-356l-96 0c0-21-12-38-28-38-15 0-27 17-27 38l-96 0c-8 0-14 6-14 14 0 7 6 13 14 13 19 0 34 16 34 35l0 82c0 43 30 78 71 87-1 2-2 5-2 9 0 11 9 20 20 20 12 0 21-9 21-20 0-4-1-6-2-9 41-9 71-44 71-87l0-82c0-19 15-35 34-35 8 0 14-6 14-13 0-8-6-14-14-14z"/>
<glyph unicode="i" d="M387 140l-96 0c0-21-12-38-28-38-15 0-27 17-27 38l-96 0c-8 0-14 6-14 14 0 7 6 13 14 13 19 0 34 16 34 35l0 82c0 43 30 78 71 87-1 2-2 5-2 9 0 11 9 20 20 20 12 0 21-9 21-20 0-4-1-6-2-9 41-9 71-44 71-87l0-82c0-19 15-35 34-35 8 0 14-6 14-13 0-8-6-14-14-14z"/>
<glyph unicode="j" d="M98 89l0 48 109 72 0 44c0 0-93 159 47 170 0 0 154 3 51-170l0-44 109-72 0-48z"/>
<glyph unicode="k" d="M493 96l-125 125c18 29 29 62 29 99 0 106-86 192-192 192-106 0-192-86-192-192 0-106 86-192 192-192 36 0 70 11 99 28l125-124c9-9 23-9 32 0l32 32c9 9 9 23 0 32z m-288 96c-71 0-128 57-128 128 0 71 57 128 128 128 70 0 128-57 128-128 0-71-58-128-128-128z"/>
<glyph unicode="l" d="M374 358c0 0-118-204-118-204 0 0-118 204-118 204 0 0 236 0 236 0"/>
<glyph unicode="m" d="M256 512c-107 0-194-87-194-194 0-108 152-318 194-318 31 0 194 210 194 318 0 107-87 194-194 194z m-1-290c-54 0-99 44-99 99 0 54 45 99 99 99 55 0 99-45 99-99 0-55-44-99-99-99z"/>
<glyph unicode="n" d="M161 427l42 0 0-62-42 0z m147 0l42 0 0-62-42 0z m60-44l0-40-81 0 0 40-64 0 0-41-84 0 0 42-41 0 0-293 313 0 0 292z m1-252l-229 0 0 190 229 0z m-198 61c6-3 19-9 31-9 16 0 24 8 24 18 0 13-13 19-26 19l-13 0 0 22 12 0c11 0 24 4 24 16 0 8-7 13-20 13-11 0-22-4-28-8l-6 23c8 5 24 10 41 10 28 0 44-15 44-33 0-14-8-25-24-31l0 0c16-3 29-15 29-32 0-24-21-41-55-41-17 0-31 4-39 9z m138 74l-1 0-25-12-5 23 35 17 26 0 0-133-30 0z"/>
<glyph unicode="o" d="M431 259c0-1 0-3 0-4 0-4-1-7-5-9-10-6-16-15-21-25-22-37-66-49-102-26-21 13-31 33-32 58 0 3 0 7-1 10-2 7-9 11-17 9-7-1-12-6-12-14 0-25-9-44-28-60-13-10-28-15-45-14-21 0-38 9-52 24-3 4-6 8-8 12-7 11-13 21-24 28-2 0-3 3-3 5 0 4 0 9 0 14 0 2 1 4 4 4 10 0 15 7 19 15 5 10 11 19 20 26 21 19 57 22 81 7 9-6 18-13 23-22 2-4 5-5 9-2 12 8 25 8 38 0 4-3 6-2 9 2 10 15 24 25 42 30 29 7 60-4 77-32 4-6 7-12 11-18 3-3 7-5 11-6 4-1 6-2 6-6 0-2 0-4 0-6z m-40-2c0 27-22 50-48 50-27-1-50-24-50-51 0-28 21-50 48-50 27-1 50 23 50 51z m-271 0c0-28 23-51 50-51 27 0 49 22 49 49 0 28-23 52-50 52-27-1-49-23-49-50z"/>
<glyph unicode="p" d="M301 303l66 0 0-11-66 0z m0-18l66 0 0-11-66 0z m0-18l66 0 0-11-66 0z m-154 29l66 0 0-11-66 0z m0 37l66 0 0-11-66 0z m0-19l66 0 0-10-66 0z m60-78l49 0 0-11-49 0z m0-18l49 0 0-11-49 0z m0-18l49 0 0-11-49 0z m65 144l0-78-28 0 0 106-128 0 0-167 60 0 0-65 164 0 0 50 56 0 0 154z m-96-123l-44 0 0 135 96 0 0-90-52 0z m148-65l-132 0 0 93 80 0 0-59 52 0z m56 50l-92 0 0 122 92 0z"/>
<glyph unicode="q" d="M243 264l0 48-73 0 0-53-39-41-54 0 0-71 73 0 0 54 38 40 55 0 33-19 0-48 74 0 0 58 33 62 52 0 0 71-73 0 0-56-35-65-51 0m-53 19l-33 0 0 31 33 0z m-127-64l33 0 0-31-33 0z m320 116l-33 0 0 31 33 0z m-119-90l33 0 0-31-33 0z"/>
<glyph unicode="r" d="M256 425c-93 0-169-76-169-169 0-93 76-169 169-169 93 0 169 76 169 169 0 93-76 169-169 169z m12-209c-11 1-16 6-24 11-5-24-11-48-27-60-6 37 7 65 13 94-10 18 1 52 23 43 26-10-23-63 10-70 35-7 49 60 27 82-31 31-90 1-83-44 2-11 14-15 5-30-20 4-26 20-25 41 1 34 31 58 60 61 37 4 72-14 77-49 6-39-17-82-56-79z"/>
<glyph unicode="s" d="M256 87l0 0c-46 0-88 18-120 50-31 32-49 75-49 121 1 92 76 167 169 167 45 0 88-18 120-50 32-33 49-76 49-121-1-92-77-167-169-167z m0 302c-74 0-133-59-133-131 0-37 13-71 38-96 25-25 59-39 95-39l0-18 0 18c73 0 133 59 133 131 1 36-13 70-38 96-26 25-59 39-95 39z m72-137c-36-23-71-47-107-70 0 47 0 94 0 141 36-23 71-47 107-71z"/>
<glyph unicode="t" d="M256 114c-20 16-44 25-69 31-29 7-58 9-88 9-2 0-3 0-5 0 0 82 0 163 0 243 42 2 121-6 162-39 2 1 5 3 7 5 18 12 38 19 59 25 31 7 62 10 94 10 1 0 1 0 2 0 0-81 0-162 0-244-9 0-19 0-28 0-33-2-66-7-97-19-13-5-26-12-37-21z m-121 244c0-55 0-110 0-164 35-3 69-10 100-26 0 2 1 2 1 3 0 52 0 105 0 157 0 3-2 4-4 5-15 8-32 13-48 17-16 3-33 5-49 8z m141-190c33 16 67 23 101 26 0 55 0 109 0 164-8-1-16-2-23-3-26-4-50-10-73-21-3-2-5-4-5-8 0-50 0-101 0-152 0-2 0-3 0-6z"/>
<glyph unicode="u" d="M256 426c-94 0-170-76-170-170 0-94 76-170 170-170 94 0 170 76 170 170 0 94-76 170-170 170z m-64-255c-12 0-21 9-21 21 0 12 9 21 21 21 12 0 21-9 21-21 0-12-9-21-21-21z m59 0c0 44-36 80-80 80l0 32c61 0 112-51 112-112z m64 0c0 38-15 74-43 101-27 28-63 43-101 43l0 32c47 0 91-19 124-52 33-33 52-77 52-124l-32 0z"/>
<glyph unicode="v" d="M365 108l-74 140 0 70 23 0 0 24-121 0 0-24 22 0 0-70-68-139 0-34 218 0z m-129 129l3 5 0 76 28 0 0-76 3-6 51-90-130 0z m-64 154l-4-17-16 0 20 66 20 0 20-66-16 0-5 17-19 0z m17 11l-4 14c-1 4-2 9-3 13l0 0c-1-4-2-9-4-13l-3-14z m45 37c4 1 12 2 19 2 9 0 15-1 20-4 4-2 8-7 8-13 0-6-4-11-11-14l0 0c7-2 13-8 13-17 0-5-3-10-7-14-5-3-13-5-26-5-7 0-13 0-16 0l0 65z m15-25l5 0c8 0 12 3 12 8 0 5-4 8-11 8-3 0-5 0-6-1z m0-29c1 0 3 0 6 0 6 0 12 2 12 9 0 7-6 9-13 9l-5 0z m103-9c-3-1-9-3-17-3-23 0-35 14-35 33 0 23 16 35 36 35 8 0 14-1 16-3l-3-12c-3 2-7 3-12 3-12 0-21-7-21-22 0-13 8-22 21-22 4 0 9 1 12 3z"/>
<glyph unicode="w" d="M256 426c-94 0-170-76-170-170 0-94 76-170 170-170 94 0 170 76 170 170 0 94-76 170-170 170z m85-127c0-1 0-3 0-5 0-58-44-125-125-125-24 0-47 8-67 20 4 0 7-1 11-1 20 0 39 7 54 19-19 1-35 13-41 31 3-1 6-1 9-1 4 0 7 0 11 1-20 4-35 22-35 43 0 0 0 0 0 1 6-4 13-6 20-6-12 8-20 21-20 37 0 8 3 15 6 22 22-27 54-44 90-46 0 3-1 6-1 10 0 24 20 44 44 44 13 0 24-6 32-14 10 2 19 5 28 10-4-10-11-18-20-24 9 1 18 4 26 7-6-9-14-16-22-23z"/>
<glyph unicode="x" d="M284 259l-39 19c-4 1-7-1-7-4l0-36c0-3 3-5 7-4l39 19c4 2 4 4 0 6z m-28 167c-94 0-170-76-170-170 0-94 76-170 170-170 94 0 170 76 170 170 0 94-76 170-170 170z m0-239c-87 0-89 8-89 69 0 61 2 69 89 69 87 0 89-8 89-69 0-61-2-69-89-69z"/>
<glyph unicode="y" d="M124 339l202 0 0-166-202 0z m183-85l81 83 0-164z"/>
<glyph unicode="z" d="M288 288l0 128-64 0 0-128-128 0 0-64 128 0 0-128 64 0 0 128 128 0 0 64z"/>
<glyph unicode="A" d="M416 352l-64 64-96-96-96 96-64-64 96-96-96-96 64-64 96 96 96-96 64 64-96 96z"/>
<glyph unicode="B" d="M394 321l-48 0 0 56-172 0 0-56-56 0 0-130 56 0 0-66 121 0 51 51 0 15 48 0 0 130z m-30-122l-18 0 0 46-18 0 0-54-53 0 0-48-83 0 0 102-18 0 0-46-18 0 0 66 172 0 0 56-136 0 0 38 136 0 0-94 36 0 0-66z"/>
<glyph unicode="C" d="M350 134c-4 1-8 3-12 4-2 0-4 0-5-1-14-9-30-16-47-19-2-1-4-1-4-4-4-11-14-18-26-18-12-1-22 7-26 18 0 3-1 3-4 4-17 3-33 10-47 20-2 1-4 0-5 0-11-5-24-4-31 4-9 9-11 21-5 32 1 2 1 3 0 5-10 15-17 31-21 48 0 1-1 3-3 3-11 5-19 14-19 26 0 12 8 21 19 26 2 0 3 2 4 3 3 17 10 33 19 48 2 2 2 3 1 5-6 11-4 22 5 32 6 7 19 9 29 5 3-2 6-1 9 1 14 8 29 15 45 18 2 1 4 1 5 4 3 11 13 19 25 18 12 0 22-7 26-18 0-2 1-3 3-4 18-3 34-10 49-20 1 0 3 0 5 0 17 8 37-3 38-22 1-4-1-9-3-14-1-2-1-3 1-5 9-15 16-31 19-48 1-1 2-3 4-3 11-5 19-14 19-26 0-12-8-21-19-26-2 0-3-2-4-3-3-17-10-33-19-48-2-2-2-3-1-6 10-18-3-38-24-39z m-132 150c-13 13-28 27-42 41-1 1-3 2-4 1-6-3-12-2-19-1-1 0-3-1-3-2-8-12-14-25-17-40-1-2 0-3 2-4 6-3 10-7 12-14 1-1 2-2 3-2 20 0 39 0 58 0 1 0 3 1 3 2 2 6 4 11 7 19z m64 95c-4-4-7-10-12-12-7-2-8-6-7-12 0-1 0-2 0-3 0-16 0-32 0-47 0-2 1-4 2-4 6-2 12-4 19-7 13 13 27 28 41 42 1 1 1 3 1 5-2 5-3 11-1 17 1 3 0 4-2 5-13 8-27 14-41 16z m12-96c3-6 5-12 7-18 0-1 2-2 3-2 19 0 38 0 58 0 1 0 2 1 3 2 2 6 6 11 12 14 2 1 3 2 2 4-3 14-9 28-17 40 0 1-2 2-4 2-6-1-12-2-18 1-1 0-3 0-4-1-6-6-13-13-19-19-8-8-16-16-23-23z m-10-65c-7-3-12-5-18-7-3 0-3-1-3-4 0-19 0-37 0-56 0-2 0-4 3-4 6-2 10-6 13-12 1-1 1-2 2-2 15 2 29 8 42 16 1 1 3 2 2 4-2 7-2 13 1 19 0 1 0 3-1 4-14 14-28 28-41 42z m-66 10c-2 5-5 10-6 15-1 2-2 3-4 3-19 0-38 0-57 0-2 0-3-2-4-3-3-5-7-9-12-12-2-1-2-2-2-4 3-14 9-27 17-39 1-2 2-3 4-2 6 1 12 1 18-1 1 0 3 1 4 1 10 10 21 21 31 31 4 3 7 7 11 11z m11 67c4 1 9 4 14 5 2 1 3 2 3 4 0 19 0 38 0 58 0 1-1 2-2 3-7 3-11 8-14 14-16-3-31-9-44-17 0-7 1-13 0-19-1-4 0-7 3-10 13-13 27-25 40-38z m-1-77c-14-14-28-28-41-42-1-1-1-3-1-4 2-6 2-12 0-19 0-1 1-3 2-3 13-9 26-15 42-17 3 6 8 11 14 14 1 1 2 2 2 3 0 20 0 39 0 58 0 1-1 3-2 3-5 2-11 5-16 7z m152 12c-7 3-12 8-15 14-1 1-2 2-3 2-19 0-39 0-58 0-1 0-3-1-3-2-2-5-5-11-7-16 14-14 28-28 43-42 0 0 2-1 3 0 6 2 12 2 19 1 1 0 3 0 3 1 8 13 15 26 18 42z m-123-4c18 1 31 15 29 31-1 18-16 31-32 29-17-1-30-15-29-31 2-17 16-31 32-29z m-107 125c0-7 5-12 12-12 7 0 11 5 11 11-1 8-5 12-12 12-6 0-11-5-11-11z m228-95c0-6 5-11 12-11 6 0 11 5 11 11 0 6-5 11-11 11-6 0-12-5-12-11z m-267 0c0-6 5-11 11-11 6 0 12 5 12 11 0 6-5 11-12 11-5 1-11-5-11-11z m145 123c6-1 11 4 11 10 1 6-4 12-11 12-6 0-11-5-11-11-1-6 4-11 11-11z m1-245c-7 0-12-5-12-11-1-6 4-12 10-12 6 0 12 5 12 11 1 6-4 11-10 12z m105 216c0 7-5 12-11 12-6 0-12-5-12-11 0-6 5-11 11-12 7 0 12 5 12 11z m-201-179c-7 0-11-4-11-10 0-6 5-11 12-11 7 1 11 5 11 11 0 6-5 10-12 10z m180-10c0-7 4-11 10-11 6 0 11 5 11 11 0 6-4 10-12 10-6 0-9-3-9-10z"/>
<glyph unicode="D" d="M254 192l-51 0-64 128 81 0z m119 0l-51 0-64 128 80 0z"/>
<glyph unicode="E" d="M370 338l0-196-204 0 0-23 219 0 0 0 8 0 0 219z m-38 55l-213 0 0-213 213 0 0 213z m-151-160l-19 0 0 106 19 0z m29 3l0 103 91-48z"/>
<glyph unicode="F" d="M292 320l81 0-64-128-51 0z m-118 0l80 0-64-128-51 0z"/>
<glyph unicode="G" d="M118 394l73 0 0-73-73 0z m101 0l74 0 0-73-74 0z m102 0l73 0 0-73-73 0z m-203-101l73 0 0-74-73 0z m101 0l74 0 0-74-74 0z m102 0l73 0 0-74-73 0z m-203-102l73 0 0-73-73 0z m101 0l74 0 0-73-74 0z m102 0l73 0 0-73-73 0z"/>
<glyph unicode="H" d="M341 183c0 14 0 28 0 42 15 0 29 0 43 0 0-28 0-56 0-85-85 0-171 0-256 0 0 29 0 57 0 85 14 0 28 0 43 0 0-14 0-28 0-42 57 0 113 0 170 0z m0 118c-15 0-29 0-44 0 0 28 0 57 0 85-14 0-27 0-41 0 0 0 0 0 0 0-14 0-27 0-41 0 0-28 0-57 0-85-15 0-29 0-44 0 29-29 57-57 85-86l0 0c0 0 0 0 0 0 0 0 0 0 0 0 0 0 0 0 0 0 0 0 0 0 0 0l0 0c28 29 56 57 85 86z"/>
<glyph unicode="I" d="M331 392l-212 0 2-274 274 0 0 186z m-46-18l0-60-105 0 0 60z m-104-235l0 86 155 0 0-86z m197-4l-25 0 0 108-190 0 0-108-25 0-2 239 27 0 0-78 140 0 0 78 19 0 56-76z m-129 232l17 0 0-43-17 0z m-52-158l99 0 0-17-99 0z m0-32l80 0 0-17-80 0z"/>
<glyph unicode="J" d="M118 347l0-184 277 0 0 184z m189-57l3 8 2-8 9 0-7-5 3-8-7 4-7-4 2 8-7 5z m-84 22l3 8 3-8 9 0-7-6 2-8-7 5-7-5 3 8-7 6z m-22-23l3 8 3-8 9 0-7-5 2-8-7 5-7-5 3 8-7 5z m-16-31l8 1 3 8 3-8 9-1-7-5 2-8-7 5-7-5 3 8z m20-39l-7-5 2 8-7 6 9 0 3 8 3-8 8 0-7-5 3-9z m29-27l-7 5-7-5 2 8-6 5 8 1 3 8 3-8 8-1-6-5z m19 128l3 8 3-8 9 0-7-5 2-9-7 5-7-5 3 9-7 5z m11-136l-7 5-7-5 3 8-7 5 8 0 3 9 3-9 9 0-7-5z m20 128l3 8 3-8 8 0-7-5 3-8-7 5-7-5 2 8-7 5z m11-120l-7 5-7-5 2 8-7 5 9 1 2 8 3-8 9-1-7-5z m22 23l-7 4-7-5 3 9-7 5 8 0 3 8 3-8 9 0-7-5z m9 31l-7 5-7-5 2 8-7 5 9 0 3 9 3-8 8-1-7-5z"/>
<glyph unicode="K" d="M290 371l102 0 0-103-102 0z m-170-63l142 0 0-40-142 0z m0 63l142 0 0-40-142 0z m170-127l102 0 0-103-102 0z m-170-63l142 0 0-40-142 0z m0 63l142 0 0-40-142 0z"/>
<glyph unicode="L" d="M344 218c-15 0-29-7-38-18l-89 45c0 4 1 7 1 11 0 1 0 3-1 5l92 48c9-9 21-15 35-15 27 0 49 22 49 50 0 27-22 49-49 49-28 0-50-22-50-49 0-2 0-4 1-6l-91-48c-9 9-22 15-36 15-27 0-49-22-49-49 0-28 22-50 49-50 12 0 23 5 32 12l94-48c0-1 0-1 0-2 0-27 22-49 50-49 27 0 49 22 49 49 0 28-22 50-49 50z"/>
<glyph unicode="M" d="M307 287c-10-10-20-19-31-29-5 11-13 18-25 21-13 3-25 1-35-9-16-16-33-33-50-50-10-10-12-24-7-37 5-14 15-23 29-26 13-2 24 2 34 11 2 3 5 8 8 9 4 0 8-2 12-4 12-3 24-4 36 0 1 0 1 0 2 0 0 0 0 0 0 0-14-14-26-29-41-41-46-36-113-9-122 48-4 25 3 46 20 64 18 20 37 39 57 57 35 32 89 23 113-14z m-100-60c10 10 20 19 30 29 2-3 4-6 6-8 11-14 37-22 56-3 15 15 31 30 46 46 14 15 14 39-1 53-15 15-38 15-53 1-3-3-6-8-9-9-4-1-9 2-13 3-11 3-23 4-35 1 0-1-1-1-3-1 1 1 2 1 2 2 11 11 22 22 33 33 38 37 100 26 123-22 13-28 8-61-14-84-17-18-35-37-54-54-32-31-85-26-112 9-1 1-1 2-2 4z"/>
<glyph unicode="N" d="M313 371c2 0 5 0 8 0 0 0 1 0 1 0 5-1 9-1 14-2 10-3 19-8 28-15 0-1 1-1 1-1 13 3 25 7 37 12 1 1 2 1 3 2 0 0 0 0 0-1-5-13-14-23-27-31 12 1 24 4 36 9 0-1 0-1 0-1-2-2-3-3-5-5-3-5-8-9-12-12-4-4-9-8-14-11-1-1-1-1-1-2 0-9 0-17-1-25-1-4-2-9-3-13 0-4-1-8-3-12 0-2-1-4-1-6-2-6-5-11-8-17-2-4-4-8-6-12-1-2-2-3-3-4-2-4-5-8-8-12-2-3-4-5-6-8-4-4-8-9-13-13-5-5-10-10-16-14-5-4-11-8-17-11-6-4-12-7-18-9-10-5-20-8-30-10-16-4-32-6-48-6-11-1-22 0-32 2-13 1-25 4-36 8-6 2-12 4-18 7-6 2-11 5-17 8 0 0 0 0 0 1 11-1 22-1 34 0 11 2 21 4 32 8 10 4 20 9 29 16-3 0-7 0-10 1-13 2-25 8-35 16-4 4-8 9-11 14-1 2-2 4-3 6 0 1 0 2-1 3 5 0 10-1 15-1 4 0 9 1 13 2 0 1 0 1-1 1-7 1-14 4-21 8-5 3-10 7-14 11-3 4-7 9-9 14-1 2-2 4-3 6-2 6-3 11-3 17 0 1 1 1 1 1 8-4 16-6 24-7 1 0 2 0 4 0 0 0 0 0 0 0-1 1-1 1-2 2-4 2-7 5-11 8-2 3-4 5-5 8-5 5-7 11-9 18-2 10-2 20 2 29 1 3 2 6 3 9 1 2 2 2 2 4 1-1 1-1 2-1 1-2 3-4 4-5 5-5 10-9 15-13 5-4 9-7 14-11 8-5 16-9 24-13 9-4 18-8 28-10 15-5 30-7 46-8 1 0 1 0 1 2 0 3-1 6-1 9-1 4 0 8 1 12 1 6 3 12 6 17 2 3 4 6 7 9 4 5 10 10 15 13 8 4 15 7 24 8 2 1 5 1 8 1z"/>
<glyph unicode="O" d="M162 108c0 70 0 139 0 209-8 0-15 0-23 0 0 2-1 3-1 4 0 13 0 25 0 38 0 3 1 4 4 4 7 0 13 0 20 0 0 14 0 27 0 41 2 0 3 0 5 0 44 0 88 0 133 0 3 0 5-1 7-3 21-21 43-43 64-64 1-2 3-4 3-6 0-73 0-146 0-219 0-1 0-3 0-4-71 0-142 0-212 0z m132 217c1 3 1 6 2 10 1 13 2 25-1 38-3 10-8 13-18 13-31 0-62 0-92 0-2 0-3 0-5 0 0-8 0-15 0-23 33 0 65 0 97 0 0-16 0-30 0-46-32 0-65 0-97 0 0-64 0-128 0-191 59 0 117 0 176 0 0 2 0 3 0 5 0 29 0 58 0 87 0 30 0 60 0 90 0 9-3 14-12 17-4 1-8 2-12 2-12 0-25-1-38-2z m-35-76c1 4 3 9 4 13 0 0 1 0 1 0-1-6-2-12-2-18 0-3 0-6 1-8 5-12 12-22 23-30 3-2 7-3 11-2 9 0 17 0 25 0 3 0 5-1 7-2 3-1 5-3 4-7-10 7-22 5-33 4 10-5 20-10 32-8-1-3-3-5-7-5-5 1-10 1-15 3-6 2-13 5-19 7-2 1-4 2-6 1-15-3-30-6-44-10-4-1-6-2-7-5-7-11-13-21-22-29-4-2-8-3-12-1-4 1-5 4-3 7 2 3 4 7 7 10 6 4 12 8 18 12-8-9-18-16-20-28 2 1 5 2 7 4 3 3 7 7 10 11 14 21 25 42 34 65 1 2 1 5 1 7-3 12-6 23-5 35 0 8 3 10 10 9 4 0 7-5 6-11 0-1-1-2-1-4-1 6-2 11-8 15-3-13 0-24 3-35z m-20-59c14 3 28 7 43 11-10 8-18 17-23 27-7-13-13-26-20-38z"/>
<glyph unicode="P" d="M418 293l-45 0-61-162-103 274-73 0-113-298 73 0 21 60 107 0 21-60 103 0 13 37 67 0 13-37 48 0z m-285-72l37 108 38-108z m238-43l23 67 24-67z"/>
<glyph unicode="Q" d="M256 448c-106 0-192-86-192-192 0-106 86-192 192-192 106 0 192 86 192 192 0 106-86 192-192 192z m1-51c77 0 140-63 140-141 0-78-63-141-140-141z"/>
<glyph unicode="R" d="M410 399c0 6-5 11-11 11 0 0 0 0-1 0l-284 0c0 0 0 0-1 0-6 0-11-5-11-11 0-1 0-1 0-2l0-284 0 0c0 0 0 0 0 0 0-6 5-11 11-11 1 0 1 0 1 0l0 0 285 0 0 0c6 1 11 5 11 11l0 0z"/>
<glyph unicode="S" d="M212 512l-212 0 0-212 300-300 0 212 212 0z m-95-178c-34 0-61 27-61 61 0 34 27 61 61 61 34 0 61-27 61-61 0-34-27-61-61-61z"/>
<glyph unicode="T" d="M81 52l0 358 62 0c0-7 0-14 0-21 0-1-2-3-3-5-8-12-7-25 3-37 8-8 23-12 34-6 13 6 20 19 16 33 0 3-1 6-3 8-5 5-5 11-4 18 0 3 0 6 0 10l131 0c0-7 1-14 0-20 0-2-1-4-2-5-12-16-5-38 13-45 11-4 25-1 33 8 8 10 11 23 4 33-7 10-4 19-5 29l62 0 0-358-341 0z m27 29l287 0 0 241-287 0z m221 328c0 14 0 28 0 42 0 7 4 12 11 12 6 0 10-5 10-12 0-28 0-56 0-83 0-8-4-12-10-12-7 0-11 4-11 12 0 14 0 27 0 41m-175 1c0 14 0 27 0 41 0 8 4 12 10 12 6 0 10-4 10-11 0-29 0-57 0-85 0-7-4-11-10-11-6 0-10 4-10 11 0 14 0 29 0 43m82-173l34 0 0-35-34 0z m0-85l0 35 34 0c0-1 0-3 0-4 0-9 0-18 0-27 0-2 0-4-3-4-10 0-20 0-31 0m0 134l34 0 0-35-34 0z m0-148l34 0 0-35-34 0z m100 99l34 0 0-35-34 0z m-200-50l34 0 0-35-34 0z m200 0l34 0 0-35-34 0z m-200 50l34 0 0-35-34 0z m50 0l34 0 0-35-34 0z m100 0l34 0 0-35-34 0z m-100-50l34 0 0-35-34 0z m100 0l34 0 0-35-34 0z m0 99l34 0 0-35-34 0z m50 0l34 0 0-35-34 0z m-200-148l34 0 0-35-34 0z m50 0l34 0 0-35-34 0z m100 0l34 0 0-35-34 0z"/>
<glyph unicode="U" d="M255 41c-122 0-221 100-221 224 0 123 100 223 222 222 122 0 220-100 220-223 0-123-99-223-221-223m0 34c103-1 188 84 188 187 1 107-82 192-187 192-103 1-188-84-189-188 0-106 83-191 188-191m22 115l-40 0c0 2 0 3 0 5 0 14 0 29 0 43 0 11 4 21 13 27 9 7 17 12 26 19 20 13 16 38-4 46-8 3-16 4-24 2-19-3-28-14-29-34 0-5 0-11 0-16l-41 0c0 8 1 17 2 25 3 33 26 59 57 65 38 7 72-7 89-42 12-24 6-52-13-70-6-5-13-9-19-14-4-3-9-6-12-11-3-3-4-9-5-13 0-10 0-21 0-32m-40-16l40 0 0-41-40 0z"/>
<glyph unicode="V" d="M253 473c121 0 220-98 220-219 0-121-98-219-219-220-121 0-220 99-220 220 0 120 99 219 219 219m192-220c1 106-85 192-191 192-106 1-192-85-192-191-1-106 85-192 191-192 106 0 192 85 192 191m-294-102c1 3 2 4 3 6 21 42 42 84 63 126 1 3 4 5 6 7 43 21 86 42 128 64 2 0 3 1 5 2-1-2-2-4-3-6-21-42-42-84-63-126-1-3-3-5-6-6-43-22-85-43-128-65-1 0-3-1-5-2m130 102c0 15-12 28-27 28-15 0-28-12-28-27 0-15 12-27 27-28 15 0 28 12 28 27m-27 179c4-1 7-4 6-8 0-4-3-6-7-6-4 0-7 3-6 7 0 4 3 6 7 7m178-178c0-4-3-7-7-7-4 0-7 2-7 6 0 4 2 7 6 7 4 1 7-2 8-6m-348 0c0-4-3-7-7-7-4 0-6 2-6 6-1 4 2 7 6 7 4 1 7-2 7-6m170-178c-5 0-8 3-7 7 0 4 3 6 7 6 4 0 7-3 6-7 0-4-3-6-6-6m0 191c7 0 13-6 13-14 0-7-6-13-14-13-7 0-13 6-13 14 0 8 6 13 14 13"/>
<glyph unicode="W" d="M371 280l-120-121c-4-3-8-5-13-5-5 0-10 2-13 5l-84 84c-4 4-6 8-6 13 0 5 2 9 6 13l29 29c4 4 8 5 13 5 5 0 9-1 13-5l42-42 78 79c4 3 8 5 13 5 5 0 9-2 13-5l29-30c4-3 6-7 6-12 0-5-2-10-6-13z m40-24c0 28-7 54-20 78-14 24-33 43-57 57-24 13-50 20-78 20-28 0-54-7-78-20-24-14-43-33-57-57-13-24-20-50-20-78 0-28 7-54 20-78 14-24 33-43 57-57 24-13 50-20 78-20 28 0 54 7 78 20 24 14 43 33 57 57 13 24 20 50 20 78z m64 0c0-40-9-77-29-110-20-34-46-60-80-80-33-20-70-29-110-29-40 0-77 9-110 29-34 20-60 46-80 80-20 33-29 70-29 110 0 40 9 77 29 110 20 34 46 60 80 80 33 20 70 29 110 29 40 0 77-9 110-29 34-20 60-46 80-80 20-33 29-70 29-110z"/>
<glyph unicode="X" d="M350 204l-42-42c-2-2-4-3-6-3-3 0-5 1-7 3l-39 39-39-39c-2-2-4-3-7-3-2 0-4 1-6 3l-42 42c-2 2-3 4-3 6 0 3 1 5 3 7l39 39-39 39c-2 2-3 4-3 7 0 2 1 4 3 6l42 42c2 2 4 3 6 3 3 0 5-1 7-3l39-39 39 39c2 2 4 3 7 3 2 0 4-1 6-3l42-42c2-2 3-4 3-6 0-3-1-5-3-7l-39-39 39-39c2-2 3-4 3-7 0-2-1-4-3-6z m61 52c0 28-7 54-20 78-14 24-33 43-57 57-24 13-50 20-78 20-28 0-54-7-78-20-24-14-43-33-57-57-13-24-20-50-20-78 0-28 7-54 20-78 14-24 33-43 57-57 24-13 50-20 78-20 28 0 54 7 78 20 24 14 43 33 57 57 13 24 20 50 20 78z m64 0c0-40-9-77-29-110-20-34-46-60-80-80-33-20-70-29-110-29-40 0-77 9-110 29-34 20-60 46-80 80-20 33-29 70-29 110 0 40 9 77 29 110 20 34 46 60 80 80 33 20 70 29 110 29 40 0 77-9 110-29 34-20 60-46 80-80 20-33 29-70 29-110z"/>
<glyph unicode="b" d="M425 323l-44 46-123-127-128 127-43-42 171-171z"/>
<glyph unicode="c" d="M316 94l43 44-124 124 127 127-42 43-170-171z"/>
<glyph unicode="d" d="M196 94l-43 44 124 124-127 127 42 43 170-171z"/>
<glyph unicode="e" d="M87 203l44-47 123 128 128-128 43 43-171 170z"/>
</font>
</defs>
</svg>
