<?xml version="1.0" encoding="utf-8"?>
<!-- Generator: Adobe Illustrator 18.1.1, SVG Export Plug-In . SVG Version: 6.00 Build 0)  -->
<!DOCTYPE svg PUBLIC "-//W3C//DTD SVG 1.1//EN" "http://www.w3.org/Graphics/SVG/1.1/DTD/svg11.dtd">
<svg version="1.1" id="Layer_1" xmlns="http://www.w3.org/2000/svg" xmlns:xlink="http://www.w3.org/1999/xlink" x="0px" y="0px"
	 viewBox="-789 489 340 103" enable-background="new -789 489 340 103" xml:space="preserve">
<g>
	<g>
		<defs>
			<rect id="SVGID_1_" x="-1179" y="244.6" width="1098.2" height="705.4"/>
		</defs>
		<clipPath id="SVGID_2_">
			<use xlink:href="#SVGID_1_"  overflow="visible"/>
		</clipPath>
	</g>
	<g>
		<defs>
			
				<rect id="SVGID_3_" x="-1138.8" y="207.1" transform="matrix(0.7073 0.7069 -0.7069 0.7073 223.1266 580.6736)" width="1098.2" height="705.4"/>
		</defs>
		<clipPath id="SVGID_4_">
			<use xlink:href="#SVGID_3_"  overflow="visible"/>
		</clipPath>
		
			<rect x="-618.3" y="569.4" transform="matrix(0.7073 0.7069 -0.7069 0.7073 222.3331 603.4383)" clip-path="url(#SVGID_4_)" fill="#0096D6" width="1.6" height="1.6"/>
	</g>
	<g>
		<defs>
			
				<rect id="SVGID_5_" x="-1142.3" y="205.6" transform="matrix(0.7069 0.7073 -0.7073 0.7069 221.0471 583.1965)" width="1098.2" height="705.4"/>
		</defs>
		<clipPath id="SVGID_6_">
			<use xlink:href="#SVGID_5_"  overflow="visible"/>
		</clipPath>
		
			<rect x="-620.4" y="569.4" transform="matrix(0.7069 0.7073 -0.7073 0.7069 221.7056 605.3672)" clip-path="url(#SVGID_6_)" fill="#0096D6" width="1.6" height="1.6"/>
	</g>
	<g>
		<defs>
			<rect id="SVGID_7_" x="-1179" y="244.6" width="1098.2" height="705.4"/>
		</defs>
		<clipPath id="SVGID_8_">
			<use xlink:href="#SVGID_7_"  overflow="visible"/>
		</clipPath>
		<path clip-path="url(#SVGID_8_)" fill="#0096D6" d="M-616.4,570.2l-2.2,2.2l-2.2-2.2l2.1-2.1l0,0L-616.4,570.2z M-618.6,568.1
			L-618.6,568.1L-618.6,568.1z M-616.6,570.2l-2-2l-2,2l2,2L-616.6,570.2z"/>
	</g>
	<g>
		<defs>
			<rect id="SVGID_9_" x="-1179" y="244.6" width="1098.2" height="705.4"/>
		</defs>
		<clipPath id="SVGID_10_">
			<use xlink:href="#SVGID_9_"  overflow="visible"/>
		</clipPath>
		<path clip-path="url(#SVGID_10_)" fill="#0096D6" d="M-614.1,570.2l-4.5,4.5l-4.5-4.5l4.4-4.4l0.1-0.1L-614.1,570.2z
			 M-618.6,565.9L-618.6,565.9L-618.6,565.9z M-614.4,570.2l-4.1-4.1l-4.1,4.1l4.1,4.1L-614.4,570.2z"/>
	</g>
	<g>
		<defs>
			<rect id="SVGID_11_" x="-1179" y="244.6" width="1098.2" height="705.4"/>
		</defs>
		<clipPath id="SVGID_12_">
			<use xlink:href="#SVGID_11_"  overflow="visible"/>
		</clipPath>
		<path clip-path="url(#SVGID_12_)" fill="none" stroke="#0096D6" stroke-miterlimit="10" d="M-614.1,570.2l-4.5,4.5l-4.5-4.5
			l4.4-4.4l0.1-0.1L-614.1,570.2z M-618.6,565.9L-618.6,565.9L-618.6,565.9z M-614.4,570.2l-4.1-4.1l-4.1,4.1l4.1,4.1L-614.4,570.2z
			"/>
	</g>
	<g>
		<defs>
			<rect id="SVGID_13_" x="-1179" y="244.6" width="1098.2" height="705.4"/>
		</defs>
		<clipPath id="SVGID_14_">
			<use xlink:href="#SVGID_13_"  overflow="visible"/>
		</clipPath>
		<path clip-path="url(#SVGID_14_)" fill="#0096D6" d="M-618.6,565.2v-16V565.2z"/>
	</g>
	<g>
		<defs>
			<rect id="SVGID_15_" x="-1179" y="244.6" width="1098.2" height="705.4"/>
		</defs>
		<clipPath id="SVGID_16_">
			<use xlink:href="#SVGID_15_"  overflow="visible"/>
		</clipPath>
		
			<line clip-path="url(#SVGID_16_)" fill="none" stroke="#B5B5B5" stroke-miterlimit="10" x1="-618.6" y1="549.2" x2="-618.6" y2="565.2"/>
	</g>
	<g>
		<defs>
			<rect id="SVGID_17_" x="-1179" y="244.6" width="1098.2" height="705.4"/>
		</defs>
		<clipPath id="SVGID_18_">
			<use xlink:href="#SVGID_17_"  overflow="visible"/>
		</clipPath>
		<path clip-path="url(#SVGID_18_)" fill="#0096D6" d="M-618.6,591.2v-16V591.2z"/>
	</g>
	<g>
		<defs>
			<rect id="SVGID_19_" x="-1179" y="244.6" width="1098.2" height="705.4"/>
		</defs>
		<clipPath id="SVGID_20_">
			<use xlink:href="#SVGID_19_"  overflow="visible"/>
		</clipPath>
		
			<line clip-path="url(#SVGID_20_)" fill="none" stroke="#B5B5B5" stroke-miterlimit="10" x1="-618.6" y1="575.2" x2="-618.6" y2="591.2"/>
	</g>
	<g>
		<defs>
			<rect id="SVGID_21_" x="-1179" y="244.6" width="1098.2" height="705.4"/>
		</defs>
		<clipPath id="SVGID_22_">
			<use xlink:href="#SVGID_21_"  overflow="visible"/>
		</clipPath>
	</g>
	<g>
		<defs>
			<rect id="SVGID_23_" x="-1179" y="244.6" width="1098.2" height="705.4"/>
		</defs>
		<clipPath id="SVGID_24_">
			<use xlink:href="#SVGID_23_"  overflow="visible"/>
		</clipPath>
	</g>
	<g>
		<defs>
			<rect id="SVGID_25_" x="-1179" y="244.6" width="1098.2" height="705.4"/>
		</defs>
		<clipPath id="SVGID_26_">
			<use xlink:href="#SVGID_25_"  overflow="visible"/>
		</clipPath>
	</g>
	<g>
		<defs>
			<rect id="SVGID_27_" x="-1179" y="244.6" width="1098.2" height="705.4"/>
		</defs>
		<clipPath id="SVGID_28_">
			<use xlink:href="#SVGID_27_"  overflow="visible"/>
		</clipPath>
	</g>
	<g>
		<defs>
			<rect id="SVGID_29_" x="-1179" y="244.6" width="1098.2" height="705.4"/>
		</defs>
		<clipPath id="SVGID_30_">
			<use xlink:href="#SVGID_29_"  overflow="visible"/>
		</clipPath>
	</g>
	<g>
		<defs>
			<rect id="SVGID_31_" x="-1179" y="244.6" width="1098.2" height="705.4"/>
		</defs>
		<clipPath id="SVGID_32_">
			<use xlink:href="#SVGID_31_"  overflow="visible"/>
		</clipPath>
	</g>
	<rect x="-1179" y="244.6" fill="none" width="1098.2" height="705.4"/>
	<g>
		<defs>
			<rect id="SVGID_33_" x="-1179" y="244.6" width="1098.2" height="705.4"/>
		</defs>
		<clipPath id="SVGID_34_">
			<use xlink:href="#SVGID_33_"  overflow="visible"/>
		</clipPath>
		<g clip-path="url(#SVGID_34_)">
			<path fill="#0096D6" d="M-750.5,508.5h-5.2v4h5.8v2h-8.2v-13.6h7.9v2h-5.5v3.5h5.2V508.5z"/>
			<path fill="#0096D6" d="M-747.7,500.9h7.9v2h-5.4v3.7h5.1v2h-5.1v5.8h-2.5V500.9z"/>
			<path fill="#0096D6" d="M-737.5,511.8c0.8,0.5,2,0.9,3.3,0.9c1.6,0,2.5-0.7,2.5-1.8c0-1-0.7-1.6-2.4-2.2c-2.2-0.8-3.6-2-3.6-3.9
				c0-2.2,1.8-3.9,4.8-3.9c1.5,0,2.5,0.3,3.2,0.7l-0.6,2c-0.5-0.3-1.4-0.6-2.7-0.6c-1.6,0-2.2,0.8-2.2,1.6c0,1,0.8,1.5,2.6,2.2
				c2.3,0.9,3.5,2.1,3.5,4c0,2.2-1.6,4-5.2,4c-1.4,0-2.9-0.4-3.6-0.8L-737.5,511.8z"/>
			<path fill="#0096D6" d="M-724.2,510.6l-1.2,3.8h-2.5l4.3-13.6h3.1l4.4,13.6h-2.6l-1.2-3.8L-724.2,510.6L-724.2,510.6z
				 M-720.3,508.8l-1.1-3.3c-0.3-0.8-0.5-1.7-0.7-2.5l0,0c-0.2,0.8-0.4,1.7-0.6,2.5l-1,3.3H-720.3z"/>
			<path fill="#0096D6" d="M-713.4,500.7l-0.4,5.2h-1.5l-0.4-5.2H-713.4z"/>
			<path fill="#0096D6" d="M-711.2,511.8c0.8,0.5,2,0.9,3.3,0.9c1.6,0,2.5-0.7,2.5-1.8c0-1-0.7-1.6-2.4-2.2c-2.2-0.8-3.6-2-3.6-3.9
				c0-2.2,1.8-3.9,4.8-3.9c1.5,0,2.5,0.3,3.2,0.7l-0.6,2c-0.5-0.3-1.4-0.6-2.7-0.6c-1.6,0-2.2,0.8-2.2,1.6c0,1,0.8,1.5,2.6,2.2
				c2.3,0.9,3.5,2.1,3.5,4c0,2.2-1.6,4-5.2,4c-1.4,0-2.9-0.4-3.6-0.8L-711.2,511.8z"/>
			<path fill="#0096D6" d="M-696.5,511.8c0.8,0.5,2,0.9,3.3,0.9c1.6,0,2.5-0.7,2.5-1.8c0-1-0.7-1.6-2.4-2.2c-2.2-0.8-3.6-2-3.6-3.9
				c0-2.2,1.8-3.9,4.8-3.9c1.5,0,2.5,0.3,3.2,0.7l-0.6,2c-0.5-0.3-1.4-0.6-2.7-0.6c-1.6,0-2.2,0.8-2.2,1.6c0,1,0.8,1.5,2.6,2.2
				c2.3,0.9,3.5,2.1,3.5,4c0,2.2-1.6,4-5.2,4c-1.4,0-2.9-0.4-3.6-0.8L-696.5,511.8z"/>
			<path fill="#0096D6" d="M-683.5,500.9v8c0,2.6,1.1,3.9,2.8,3.9c1.8,0,2.8-1.2,2.8-3.9v-8h2.5v7.8c0,4.2-2.1,6.1-5.5,6.1
				c-3.1,0-5.2-1.7-5.2-6.1v-7.8H-683.5z"/>
			<path fill="#0096D6" d="M-672.5,501.1c0.9-0.2,2.1-0.3,3.8-0.3c1.8,0,3.1,0.4,4,1.1c0.8,0.7,1.3,1.7,1.3,3c0,1.3-0.4,2.3-1.2,3.1
				c-1,1-2.5,1.4-4.3,1.4c-0.5,0-0.9,0-1.2-0.1v5.2h-2.4L-672.5,501.1L-672.5,501.1z M-670.1,507.4c0.3,0.1,0.7,0.1,1.2,0.1
				c1.8,0,3-0.9,3-2.5c0-1.5-1-2.3-2.7-2.3c-0.7,0-1.2,0.1-1.4,0.1v4.6H-670.1z"/>
			<path fill="#0096D6" d="M-661.3,501.1c0.9-0.2,2.1-0.3,3.8-0.3c1.8,0,3.1,0.4,4,1.1c0.8,0.7,1.3,1.7,1.3,3c0,1.3-0.4,2.3-1.2,3.1
				c-1,1-2.5,1.4-4.3,1.4c-0.5,0-0.9,0-1.2-0.1v5.2h-2.4L-661.3,501.1L-661.3,501.1z M-658.8,507.4c0.3,0.1,0.7,0.1,1.2,0.1
				c1.8,0,3-0.9,3-2.5c0-1.5-1-2.3-2.7-2.3c-0.7,0-1.2,0.1-1.4,0.1v4.6H-658.8z"/>
			<path fill="#0096D6" d="M-637.8,507.6c0,4.5-2.7,7.2-6.6,7.2c-3.8,0-6.3-2.9-6.3-7c0-4.1,2.6-7.2,6.5-7.2
				C-640.2,500.7-637.8,503.6-637.8,507.6z M-648,507.8c0,2.7,1.4,5,3.7,5c2.4,0,3.7-2.2,3.7-5.1c0-2.5-1.3-5-3.7-5
				C-646.7,502.6-648,504.9-648,507.8z"/>
			<path fill="#0096D6" d="M-635.7,501.1c0.9-0.2,2.3-0.3,3.7-0.3c1.9,0,3.3,0.3,4.2,1.1c0.7,0.6,1.2,1.6,1.2,2.7
				c0,1.7-1.2,2.9-2.4,3.4v0.1c1,0.4,1.5,1.3,1.9,2.6c0.4,1.7,0.8,3.2,1.1,3.8h-2.5c-0.2-0.4-0.5-1.5-0.9-3.2
				c-0.4-1.8-1-2.3-2.4-2.4h-1.2v5.6h-2.4v-13.4H-635.7z M-633.3,507.1h1.5c1.7,0,2.7-0.9,2.7-2.2c0-1.5-1-2.2-2.6-2.2
				c-0.8,0-1.3,0.1-1.5,0.1v4.3H-633.3z"/>
			<path fill="#0096D6" d="M-621.5,502.9h-3.8v-2.1h10.3v2.1h-3.9v11.5h-2.5V502.9z"/>
			<path fill="#0096D6" d="M-606.8,500.9v13.6h-2.5v-13.6H-606.8z"/>
			<path fill="#0096D6" d="M-604,514.5v-13.6h2.8l3.5,5.9c0.9,1.5,1.7,3.1,2.3,4.5l0,0c-0.2-1.8-0.2-3.5-0.2-5.7v-4.7h2.3v13.6h-2.5
				l-3.5-6c-0.9-1.5-1.8-3.1-2.4-4.7h-0.1c0.1,1.7,0.1,3.5,0.1,5.8v4.8h-2.3V514.5z"/>
			<path fill="#0096D6" d="M-587.8,500.9v13.6h-2.5v-13.6H-587.8z"/>
			<path fill="#0096D6" d="M-582.4,502.9h-3.8v-2.1h10.3v2.1h-3.9v11.5h-2.5V502.9z"/>
			<path fill="#0096D6" d="M-571.9,500.9v13.6h-2.5v-13.6H-571.9z"/>
			<path fill="#0096D6" d="M-566.3,510.6l-1.2,3.8h-2.5l4.3-13.6h3.1l4.4,13.6h-2.6l-1.2-3.8L-566.3,510.6L-566.3,510.6z
				 M-562.5,508.8l-1.1-3.3c-0.3-0.8-0.5-1.7-0.7-2.5l0,0c-0.2,0.8-0.4,1.7-0.6,2.5l-1,3.3H-562.5z"/>
			<path fill="#0096D6" d="M-555.2,502.9h-3.8v-2.1h10.3v2.1h-3.9v11.5h-2.5V502.9z"/>
			<path fill="#0096D6" d="M-544.8,500.9v13.6h-2.5v-13.6H-544.8z"/>
			<path fill="#0096D6" d="M-538.8,514.5l-4.4-13.6h2.7l1.8,6.2c0.5,1.7,1,3.3,1.3,5l0,0c0.4-1.6,0.8-3.2,1.4-5l2-6.3h2.6l-4.7,13.6
				h-2.7V514.5z"/>
			<path fill="#0096D6" d="M-522.2,508.5h-5.2v4h5.8v2h-8.2v-13.6h7.9v2h-5.5v3.5h5.2V508.5z"/>
			<path fill="#0096D6" d="M-519.4,511.8c0.8,0.5,2,0.9,3.3,0.9c1.6,0,2.5-0.7,2.5-1.8c0-1-0.7-1.6-2.4-2.2c-2.2-0.8-3.6-2-3.6-3.9
				c0-2.2,1.8-3.9,4.8-3.9c1.5,0,2.5,0.3,3.2,0.7l-0.6,2c-0.5-0.3-1.4-0.6-2.7-0.6c-1.6,0-2.2,0.8-2.2,1.6c0,1,0.8,1.5,2.6,2.2
				c2.3,0.9,3.5,2.1,3.5,4c0,2.2-1.6,4-5.2,4c-1.4,0-2.9-0.4-3.6-0.8L-519.4,511.8z"/>
			<path fill="#0096D6" d="M-492.6,507.6c0,4.5-2.7,7.2-6.6,7.2c-3.8,0-6.3-2.9-6.3-7c0-4.1,2.6-7.2,6.5-7.2
				C-495,500.7-492.6,503.6-492.6,507.6z M-502.8,507.8c0,2.7,1.4,5,3.7,5c2.4,0,3.7-2.2,3.7-5.1c0-2.5-1.3-5-3.7-5
				C-501.4,502.6-502.8,504.9-502.8,507.8z"/>
			<path fill="#0096D6" d="M-490.4,514.5v-13.6h2.8l3.5,5.9c0.9,1.5,1.7,3.1,2.3,4.5l0,0c-0.2-1.8-0.2-3.5-0.2-5.7v-4.7h2.3v13.6
				h-2.5l-3.5-6c-0.9-1.5-1.8-3.1-2.4-4.7h-0.1c0.1,1.7,0.1,3.5,0.1,5.8v4.8h-2.3V514.5z"/>
		</g>
	</g>
	<g>
		<defs>
			<rect id="SVGID_35_" x="-1179" y="244.6" width="1098.2" height="705.4"/>
		</defs>
		<clipPath id="SVGID_36_">
			<use xlink:href="#SVGID_35_"  overflow="visible"/>
		</clipPath>
		<g clip-path="url(#SVGID_36_)">
			<path fill="#E2631A" d="M-725.4,527.8c1-0.2,2.4-0.3,3.9-0.3c2,0,3.4,0.3,4.4,1.1c0.8,0.7,1.2,1.6,1.2,2.8c0,1.8-1.2,3.1-2.6,3.5
				v0.1c1,0.4,1.6,1.4,2,2.7c0.4,1.8,0.8,3.4,1.1,3.9h-2.7c-0.2-0.4-0.5-1.6-0.9-3.3c-0.4-1.8-1.1-2.4-2.5-2.5h-1.3v5.8h-2.6
				L-725.4,527.8L-725.4,527.8z M-722.9,534.1h1.5c1.7,0,2.8-0.9,2.8-2.3c0-1.6-1.1-2.3-2.8-2.3c-0.8,0-1.3,0.1-1.6,0.1
				C-722.9,529.6-722.9,534.1-722.9,534.1z"/>
			<path fill="#E2631A" d="M-705.6,535.5h-5.3v4.2h6v2.1h-8.5v-14.2h8.2v2.1h-5.6v3.7h5.3V535.5z"/>
			<path fill="#E2631A" d="M-691.3,541.1c-0.9,0.3-2.7,0.8-4.6,0.8c-2.4,0-4.2-0.6-5.5-1.9c-1.3-1.2-2-3.1-2-5.2
				c0-4.5,3.2-7.3,7.9-7.3c1.7,0,3.1,0.4,3.8,0.7l-0.6,2.1c-0.8-0.3-1.7-0.6-3.2-0.6c-3,0-5.1,1.8-5.1,5.1c0,3.2,2,5.1,4.9,5.1
				c0.9,0,1.6-0.1,2-0.3V536h-2.5v-2h5L-691.3,541.1L-691.3,541.1z"/>
			<path fill="#E2631A" d="M-686.1,527.6v8.3c0,2.8,1.2,4.1,2.9,4.1c1.9,0,3-1.3,3-4.1v-8.3h2.6v8.1c0,4.4-2.2,6.3-5.6,6.3
				c-3.3,0-5.4-1.8-5.4-6.3v-8.1C-688.7,527.6-686.1,527.6-686.1,527.6z"/>
			<path fill="#E2631A" d="M-674.7,527.6h2.6v12h5.8v2.2h-8.4L-674.7,527.6L-674.7,527.6z"/>
			<path fill="#E2631A" d="M-661.4,537.8l-1.2,4h-2.7l4.5-14.2h3.3l4.6,14.2h-2.8l-1.3-4C-656.9,537.8-661.4,537.8-661.4,537.8z
				 M-657.4,535.8l-1.1-3.5c-0.3-0.9-0.5-1.8-0.7-2.6h0c-0.2,0.8-0.4,1.8-0.7,2.6l-1.1,3.5H-657.4z"/>
			<path fill="#E2631A" d="M-649.9,529.8h-4v-2.2h10.7v2.2h-4.1v12h-2.6V529.8z"/>
			<path fill="#E2631A" d="M-633.7,535.5h-5.3v4.2h6v2.1h-8.5v-14.2h8.2v2.1h-5.6v3.7h5.3V535.5z"/>
			<path fill="#E2631A" d="M-630.8,527.8c1.1-0.2,2.6-0.3,4.1-0.3c2.6,0,4.5,0.5,5.8,1.6c1.4,1.1,2.2,2.8,2.2,5.2
				c0,2.5-0.9,4.4-2.2,5.6c-1.4,1.3-3.7,1.9-6.4,1.9c-1.5,0-2.6-0.1-3.5-0.2V527.8z M-628.2,539.8c0.4,0.1,0.9,0.1,1.4,0.1
				c3.4,0,5.4-1.8,5.4-5.4c0-3.1-1.8-4.9-5-4.9c-0.8,0-1.4,0.1-1.8,0.1L-628.2,539.8L-628.2,539.8z"/>
			<path fill="#E2631A" d="M-612.1,527.8c0.9-0.2,2.2-0.3,3.9-0.3c1.9,0,3.3,0.4,4.2,1.2c0.8,0.7,1.4,1.8,1.4,3.1
				c0,1.3-0.4,2.5-1.2,3.2c-1,1-2.6,1.5-4.5,1.5c-0.5,0-0.9,0-1.3-0.1v5.3h-2.6V527.8z M-609.5,534.4c0.3,0.1,0.7,0.1,1.3,0.1
				c1.9,0,3.1-0.9,3.1-2.6c0-1.6-1.1-2.4-2.9-2.4c-0.7,0-1.2,0.1-1.5,0.1V534.4L-609.5,534.4z"/>
			<path fill="#E2631A" d="M-600.4,527.8c1-0.2,2.4-0.3,3.9-0.3c2,0,3.4,0.3,4.4,1.1c0.8,0.7,1.2,1.6,1.2,2.8c0,1.8-1.2,3.1-2.6,3.5
				v0.1c1,0.4,1.6,1.4,2,2.7c0.4,1.8,0.8,3.4,1.1,3.9h-2.7c-0.2-0.4-0.5-1.6-0.9-3.3c-0.4-1.8-1.1-2.4-2.5-2.5h-1.3v5.8h-2.6
				L-600.4,527.8L-600.4,527.8z M-597.8,534.1h1.5c1.7,0,2.8-0.9,2.8-2.3c0-1.6-1.1-2.3-2.8-2.3c-0.8,0-1.3,0.1-1.6,0.1
				L-597.8,534.1L-597.8,534.1z"/>
			<path fill="#E2631A" d="M-575.9,534.6c0,4.7-2.9,7.5-6.8,7.5c-4,0-6.5-3-6.5-7.2c0-4.3,2.7-7.4,6.7-7.4
				C-578.3,527.4-575.9,530.5-575.9,534.6z M-586.4,534.8c0,2.9,1.4,5.2,3.9,5.2c2.5,0,3.9-2.3,3.9-5.3c0-2.7-1.3-5.2-3.9-5.2
				C-585.1,529.5-586.4,531.9-586.4,534.8z"/>
			<path fill="#E2631A" d="M-573.6,527.8c1.1-0.2,2.6-0.3,4.1-0.3c2.6,0,4.5,0.5,5.8,1.6c1.4,1.1,2.2,2.8,2.2,5.2
				c0,2.5-0.9,4.4-2.2,5.6c-1.4,1.3-3.7,1.9-6.4,1.9c-1.5,0-2.6-0.1-3.5-0.2V527.8z M-571.1,539.8c0.4,0.1,0.9,0.1,1.4,0.1
				c3.4,0,5.4-1.8,5.4-5.4c0-3.1-1.8-4.9-5-4.9c-0.8,0-1.4,0.1-1.8,0.1V539.8L-571.1,539.8z"/>
			<path fill="#E2631A" d="M-556.7,527.6v8.3c0,2.8,1.2,4.1,2.9,4.1c1.9,0,3-1.3,3-4.1v-8.3h2.6v8.1c0,4.4-2.2,6.3-5.6,6.3
				c-3.3,0-5.4-1.8-5.4-6.3v-8.1C-559.3,527.6-556.7,527.6-556.7,527.6z"/>
			<path fill="#E2631A" d="M-535.2,541.4c-0.6,0.3-2,0.6-3.7,0.6c-4.5,0-7.2-2.8-7.2-7.1c0-4.7,3.2-7.5,7.6-7.5
				c1.7,0,2.9,0.4,3.4,0.6l-0.6,2.1c-0.7-0.3-1.6-0.5-2.8-0.5c-2.9,0-5,1.8-5,5.2c0,3.1,1.8,5.1,4.9,5.1c1,0,2.1-0.2,2.8-0.5
				L-535.2,541.4z"/>
			<path fill="#E2631A" d="M-529.9,529.8h-4v-2.2h10.7v2.2h-4.1v12h-2.6L-529.9,529.8L-529.9,529.8z"/>
			<path fill="#E2631A" d="M-521.8,539c0.8,0.5,2.1,0.9,3.4,0.9c1.7,0,2.6-0.8,2.6-1.9c0-1.1-0.7-1.7-2.5-2.4
				c-2.3-0.8-3.8-2.1-3.8-4.1c0-2.3,1.9-4.1,5-4.1c1.5,0,2.7,0.3,3.4,0.7l-0.6,2.1c-0.5-0.3-1.5-0.7-2.8-0.7c-1.6,0-2.4,0.9-2.4,1.7
				c0,1.1,0.8,1.6,2.7,2.3c2.5,0.9,3.7,2.2,3.7,4.2c0,2.3-1.7,4.2-5.4,4.2c-1.5,0-3-0.4-3.8-0.9L-521.8,539z"/>
		</g>
	</g>
	<g>
		<defs>
			<rect id="SVGID_37_" x="-1179" y="244.6" width="1098.2" height="705.4"/>
		</defs>
		<clipPath id="SVGID_38_">
			<use xlink:href="#SVGID_37_"  overflow="visible"/>
		</clipPath>
		
			<rect x="-766" y="492.8" clip-path="url(#SVGID_38_)" fill="none" stroke="#B5B5B5" stroke-miterlimit="10" width="294.9" height="56.7"/>
	</g>
	<g>
		<defs>
			<rect id="SVGID_39_" x="-1179" y="244.6" width="1098.2" height="705.4"/>
		</defs>
		<clipPath id="SVGID_40_">
			<use xlink:href="#SVGID_39_"  overflow="visible"/>
		</clipPath>
		
			<line clip-path="url(#SVGID_40_)" fill="none" stroke="#B5B5B5" stroke-miterlimit="10" x1="-461.1" y1="521.7" x2="-776.1" y2="521.7"/>
	</g>
	<g>
		<defs>
			
				<rect id="SVGID_41_" x="-828.7" y="238.3" transform="matrix(0.7069 0.7073 -0.7073 0.7069 336.1035 370.9676)" width="1098.2" height="705.4"/>
		</defs>
		<clipPath id="SVGID_42_">
			<use xlink:href="#SVGID_41_"  overflow="visible"/>
		</clipPath>
		
			<rect x="-456.8" y="520.8" transform="matrix(0.7069 0.7073 -0.7073 0.7069 235.2619 475.4091)" clip-path="url(#SVGID_42_)" fill="#0096D6" width="1.6" height="1.6"/>
	</g>
	<g>
		<defs>
			
				<rect id="SVGID_43_" x="-832.2" y="236.9" transform="matrix(0.7069 0.7073 -0.7073 0.7069 334.0213 373.0487)" width="1098.2" height="705.4"/>
		</defs>
		<clipPath id="SVGID_44_">
			<use xlink:href="#SVGID_43_"  overflow="visible"/>
		</clipPath>
		
			<rect x="-458.9" y="520.8" transform="matrix(0.7069 0.7073 -0.7073 0.7069 234.652 476.8812)" clip-path="url(#SVGID_44_)" fill="#0096D6" width="1.6" height="1.6"/>
	</g>
	<g>
		<defs>
			<rect id="SVGID_45_" x="-1179" y="244.6" width="1098.2" height="705.4"/>
		</defs>
		<clipPath id="SVGID_46_">
			<use xlink:href="#SVGID_45_"  overflow="visible"/>
		</clipPath>
		<path clip-path="url(#SVGID_46_)" fill="#0096D6" d="M-454.9,521.6l-2.2,2.2l-2.2-2.2l2.1-2.1l0,0L-454.9,521.6z M-457.1,519.5
			L-457.1,519.5L-457.1,519.5z M-455,521.6l-2-2l-2,2l2,2L-455,521.6z"/>
	</g>
	<g>
		<defs>
			<rect id="SVGID_47_" x="-1179" y="244.6" width="1098.2" height="705.4"/>
		</defs>
		<clipPath id="SVGID_48_">
			<use xlink:href="#SVGID_47_"  overflow="visible"/>
		</clipPath>
		<path clip-path="url(#SVGID_48_)" fill="#0096D6" d="M-452.6,521.6l-4.5,4.5l-4.5-4.5l4.4-4.4l0.1-0.1L-452.6,521.6z
			 M-457.1,517.3L-457.1,517.3L-457.1,517.3z M-452.9,521.6l-4.1-4.1l-4.1,4.1l4.1,4.1L-452.9,521.6z"/>
	</g>
	<g>
		<defs>
			<rect id="SVGID_49_" x="-1179" y="244.6" width="1098.2" height="705.4"/>
		</defs>
		<clipPath id="SVGID_50_">
			<use xlink:href="#SVGID_49_"  overflow="visible"/>
		</clipPath>
		<path clip-path="url(#SVGID_50_)" fill="none" stroke="#0096D6" stroke-miterlimit="10" d="M-452.6,521.6l-4.5,4.5l-4.5-4.5
			l4.4-4.4l0.1-0.1L-452.6,521.6z M-457.1,517.3L-457.1,517.3L-457.1,517.3z M-452.9,521.6l-4.1-4.1l-4.1,4.1l4.1,4.1L-452.9,521.6z
			"/>
	</g>
	<g>
		<defs>
			
				<rect id="SVGID_51_" x="-1380.9" y="9.5" transform="matrix(0.7071 0.7071 -0.7071 0.7071 12.5205 694.2754)" width="1098.2" height="705.4"/>
		</defs>
		<clipPath id="SVGID_52_">
			<use xlink:href="#SVGID_51_"  overflow="visible"/>
		</clipPath>
		
			<rect x="-780.3" y="520.8" transform="matrix(0.7071 0.7071 -0.7071 0.7071 140.5016 703.976)" clip-path="url(#SVGID_52_)" fill="#0096D6" width="1.6" height="1.6"/>
	</g>
	<g>
		<defs>
			
				<rect id="SVGID_53_" x="-1384.5" y="8.1" transform="matrix(0.7071 0.7071 -0.7071 0.7071 10.44 696.3559)" width="1098.2" height="705.4"/>
		</defs>
		<clipPath id="SVGID_54_">
			<use xlink:href="#SVGID_53_"  overflow="visible"/>
		</clipPath>
		
			<rect x="-782.4" y="520.8" transform="matrix(0.7071 0.7071 -0.7071 0.7071 139.8918 705.4473)" clip-path="url(#SVGID_54_)" fill="#0096D6" width="1.6" height="1.6"/>
	</g>
	<g>
		<defs>
			<rect id="SVGID_55_" x="-1179" y="244.6" width="1098.2" height="705.4"/>
		</defs>
		<clipPath id="SVGID_56_">
			<use xlink:href="#SVGID_55_"  overflow="visible"/>
		</clipPath>
		<path clip-path="url(#SVGID_56_)" fill="#0096D6" d="M-778.4,521.6l-2.2,2.2l-2.2-2.2l2.1-2.1l0,0L-778.4,521.6z M-780.6,519.5
			L-780.6,519.5L-780.6,519.5z M-778.5,521.6l-2-2l-2,2l2,2L-778.5,521.6z"/>
	</g>
	<g>
		<defs>
			<rect id="SVGID_57_" x="-1179" y="244.6" width="1098.2" height="705.4"/>
		</defs>
		<clipPath id="SVGID_58_">
			<use xlink:href="#SVGID_57_"  overflow="visible"/>
		</clipPath>
		<path clip-path="url(#SVGID_58_)" fill="#0096D6" d="M-776.1,521.6l-4.5,4.5l-4.5-4.5l4.4-4.4l0.1-0.1L-776.1,521.6z
			 M-780.6,517.3L-780.6,517.3L-780.6,517.3z M-776.4,521.6l-4.1-4.1l-4.1,4.1l4.1,4.1L-776.4,521.6z"/>
	</g>
	<g>
		<defs>
			<rect id="SVGID_59_" x="-1179" y="244.6" width="1098.2" height="705.4"/>
		</defs>
		<clipPath id="SVGID_60_">
			<use xlink:href="#SVGID_59_"  overflow="visible"/>
		</clipPath>
		<path clip-path="url(#SVGID_60_)" fill="none" stroke="#0096D6" stroke-miterlimit="10" d="M-776.1,521.6l-4.5,4.5l-4.5-4.5
			l4.4-4.4l0.1-0.1L-776.1,521.6z M-780.6,517.3L-780.6,517.3L-780.6,517.3z M-776.4,521.6l-4.1-4.1l-4.1,4.1l4.1,4.1L-776.4,521.6z
			"/>
	</g>
</g>
</svg>
