<?xml version="1.0" encoding="utf-8"?>
<!-- Generator: Adobe Illustrator 16.0.0, SVG Export Plug-In . SVG Version: 6.00 Build 0)  -->
<!DOCTYPE svg PUBLIC "-//W3C//DTD SVG 1.1//EN" "http://www.w3.org/Graphics/SVG/1.1/DTD/svg11.dtd">
<svg version="1.1" id="Layer_1" xmlns="http://www.w3.org/2000/svg" xmlns:xlink="http://www.w3.org/1999/xlink" x="0px" y="0px"
	 width="1010px" height="194px" viewBox="0 0 1010 194" enable-background="new 0 0 1010 194" xml:space="preserve">
<g>
	<defs>
		<rect id="SVGID_1_" x="-110" y="-9766.08" width="1280" height="14363.7"/>
	</defs>
	<clipPath id="SVGID_2_">
		<use xlink:href="#SVGID_1_"  overflow="visible"/>
	</clipPath>
	<g clip-path="url(#SVGID_2_)">
		<defs>
			<rect id="SVGID_3_" x="-110" y="-9766.05" width="1280" height="14363.67"/>
		</defs>
		<clipPath id="SVGID_4_">
			<use xlink:href="#SVGID_3_"  overflow="visible"/>
		</clipPath>
	</g>
	<g clip-path="url(#SVGID_2_)">
		<path fill="#0E2B7F" d="M13.795,36.462c2.16-7.28,5.6-15.521,8.64-20.48l6-0.56c-2.08,5.84-4.16,13.84-5.2,20.32L13.795,36.462z
			 M27.716,36.462c2.16-7.28,5.6-15.521,8.64-20.48l6.08-0.56c-2.16,5.84-4.24,13.84-5.2,20.32L27.716,36.462z"/>
		<path fill="#0E2B7F" d="M86.116,68.623c-2.32,1.199-7.44,2.399-13.92,2.399c-17.121,0-27.521-10.72-27.521-27.12
			c0-17.761,12.32-28.48,28.801-28.48c6.48,0,11.12,1.359,13.121,2.399l-2.16,7.841c-2.56-1.12-6.08-2.08-10.561-2.08
			c-10.96,0-18.88,6.88-18.88,19.84c0,11.841,6.96,19.44,18.8,19.44c4,0,8.161-0.8,10.721-2L86.116,68.623z"/>
		<path fill="#0E2B7F" d="M129.956,50.382c0,14.32-10.08,20.721-20,20.721c-11.04,0-19.52-7.6-19.52-20.08
			c0-12.801,8.4-20.641,20.16-20.641C122.196,30.382,129.956,38.542,129.956,50.382z M100.596,50.782c0,7.521,3.68,13.2,9.68,13.2
			c5.6,0,9.52-5.521,9.52-13.36c0-6.08-2.72-13.04-9.44-13.04C103.396,37.582,100.596,44.302,100.596,50.782z"/>
		<path fill="#0E2B7F" d="M138.035,42.862c0-4.48-0.08-8.24-0.32-11.601h8.48l0.4,5.76h0.24c1.92-3.04,5.44-6.64,12-6.64
			c5.12,0,9.12,2.88,10.8,7.2h0.16c1.36-2.16,2.96-3.76,4.8-4.88c2.16-1.521,4.64-2.32,7.84-2.32c6.48,0,13.041,4.4,13.041,16.88
			v22.961h-9.601V48.702c0-6.48-2.24-10.32-6.96-10.32c-3.36,0-5.84,2.4-6.88,5.2c-0.24,0.96-0.48,2.16-0.48,3.28v23.36h-9.6V47.662
			c0-5.44-2.16-9.28-6.72-9.28c-3.68,0-6.16,2.88-7.04,5.601c-0.4,0.96-0.56,2.08-0.56,3.2v23.04h-9.6V42.862z"/>
		<path fill="#0E2B7F" d="M205.875,42.862c0-4.48-0.08-8.24-0.32-11.601h8.48l0.4,5.76h0.24c1.92-3.04,5.44-6.64,12-6.64
			c5.12,0,9.12,2.88,10.8,7.2h0.16c1.36-2.16,2.96-3.76,4.8-4.88c2.16-1.521,4.64-2.32,7.84-2.32c6.48,0,13.04,4.4,13.04,16.88
			v22.961h-9.6V48.702c0-6.48-2.24-10.32-6.96-10.32c-3.36,0-5.84,2.4-6.88,5.2c-0.24,0.96-0.48,2.16-0.48,3.28v23.36h-9.6V47.662
			c0-5.44-2.16-9.28-6.72-9.28c-3.68,0-6.16,2.88-7.04,5.601c-0.4,0.96-0.56,2.08-0.56,3.2v23.04h-9.6V42.862z"/>
		<path fill="#0E2B7F" d="M284.194,20.382c0,2.96-2.16,5.28-5.6,5.28c-3.28,0-5.44-2.32-5.44-5.28c0-3.04,2.24-5.36,5.52-5.36
			C282.034,15.021,284.114,17.342,284.194,20.382z M273.714,70.223V31.262h9.92v38.961H273.714z"/>
		<path fill="#0E2B7F" d="M305.474,20.142v11.12h9.36v7.36h-9.36v17.2c0,4.72,1.28,7.2,5.04,7.2c1.68,0,2.96-0.24,3.84-0.48
			l0.16,7.521c-1.44,0.561-4,0.96-7.12,0.96c-3.6,0-6.64-1.2-8.48-3.2c-2.08-2.239-3.04-5.76-3.04-10.88v-18.32h-5.6v-7.36h5.6v-8.8
			L305.474,20.142z"/>
		<path fill="#0E2B7F" d="M333.554,20.142v11.12h9.36v7.36h-9.36v17.2c0,4.72,1.28,7.2,5.04,7.2c1.68,0,2.96-0.24,3.84-0.48
			l0.16,7.521c-1.44,0.561-4,0.96-7.12,0.96c-3.6,0-6.64-1.2-8.48-3.2c-2.08-2.239-3.04-5.76-3.04-10.88v-18.32h-5.6v-7.36h5.6v-8.8
			L333.554,20.142z"/>
		<path fill="#0E2B7F" d="M356.833,53.502c0.24,7.04,5.76,10.08,12,10.08c4.56,0,7.84-0.64,10.8-1.76l1.44,6.801
			c-3.36,1.359-8,2.399-13.601,2.399c-12.64,0-20.08-7.76-20.08-19.681c0-10.8,6.56-20.96,19.04-20.96
			c12.641,0,16.801,10.4,16.801,18.96c0,1.841-0.16,3.28-0.32,4.16H356.833z M373.954,46.622c0.08-3.6-1.52-9.521-8.081-9.521
			c-6.08,0-8.64,5.521-9.04,9.521H373.954z"/>
		<path fill="#0E2B7F" d="M427.073,13.421v45.842c0,4,0.16,8.32,0.32,10.96h-8.8l-0.4-6.16h-0.16c-2.32,4.32-7.04,7.04-12.72,7.04
			c-9.28,0-16.64-7.92-16.64-19.92c-0.08-13.041,8.08-20.801,17.44-20.801c5.36,0,9.2,2.24,10.96,5.12h0.16V13.421H427.073z
			 M417.233,47.502c0-0.8-0.08-1.76-0.24-2.56c-0.88-3.841-4-6.961-8.48-6.961c-6.32,0-9.84,5.601-9.84,12.881
			c0,7.12,3.52,12.32,9.76,12.32c4,0,7.52-2.72,8.48-6.96c0.24-0.88,0.32-1.841,0.32-2.881V47.502z"/>
		<path fill="#0E2B7F" d="M465.471,20.142v11.12h9.36v7.36h-9.36v17.2c0,4.72,1.28,7.2,5.04,7.2c1.68,0,2.96-0.24,3.84-0.48
			l0.16,7.521c-1.44,0.561-4,0.96-7.12,0.96c-3.6,0-6.64-1.2-8.48-3.2c-2.08-2.239-3.04-5.76-3.04-10.88v-18.32h-5.6v-7.36h5.6v-8.8
			L465.471,20.142z"/>
		<path fill="#0E2B7F" d="M518.831,50.382c0,14.32-10.08,20.721-20,20.721c-11.04,0-19.52-7.6-19.52-20.08
			c0-12.801,8.4-20.641,20.16-20.641C511.071,30.382,518.831,38.542,518.831,50.382z M489.471,50.782c0,7.521,3.68,13.2,9.68,13.2
			c5.6,0,9.52-5.521,9.52-13.36c0-6.08-2.72-13.04-9.44-13.04C492.271,37.582,489.471,44.302,489.471,50.782z"/>
		<path fill="#0E2B7F" d="M550.429,53.502c0.24,7.04,5.76,10.08,12,10.08c4.561,0,7.841-0.64,10.801-1.76l1.439,6.801
			c-3.359,1.359-8,2.399-13.6,2.399c-12.641,0-20.081-7.76-20.081-19.681c0-10.8,6.561-20.96,19.041-20.96
			c12.64,0,16.8,10.4,16.8,18.96c0,1.841-0.16,3.28-0.319,4.16H550.429z M567.549,46.622c0.08-3.6-1.52-9.521-8.08-9.521
			c-6.08,0-8.64,5.521-9.04,9.521H567.549z"/>
		<path fill="#0E2B7F" d="M584.748,42.862c0-4.48-0.08-8.24-0.32-11.601h8.641l0.479,5.84h0.24c1.68-3.04,5.92-6.72,12.4-6.72
			c6.8,0,13.84,4.4,13.84,16.721v23.12h-9.84V48.222c0-5.6-2.08-9.84-7.44-9.84c-3.92,0-6.64,2.8-7.68,5.76
			c-0.32,0.881-0.4,2.08-0.4,3.2v22.881h-9.92V42.862z"/>
		<path fill="#0E2B7F" d="M630.027,61.183c2.24,1.359,6.48,2.8,10.001,2.8c4.319,0,6.239-1.76,6.239-4.32c0-2.64-1.6-4-6.399-5.68
			c-7.601-2.641-10.801-6.8-10.721-11.36c0-6.88,5.681-12.24,14.721-12.24c4.32,0,8.08,1.12,10.32,2.32l-1.92,6.96
			c-1.681-0.96-4.801-2.24-8.24-2.24c-3.521,0-5.44,1.68-5.44,4.08c0,2.48,1.84,3.68,6.8,5.44c7.04,2.56,10.32,6.16,10.4,11.92
			c0,7.04-5.52,12.16-15.84,12.16c-4.721,0-8.961-1.12-11.841-2.72L630.027,61.183z"/>
		<path fill="#0E2B7F" d="M698.748,58.542c0,4.641,0.16,8.48,0.319,11.681h-8.64l-0.48-5.92h-0.159c-1.681,2.8-5.521,6.8-12.48,6.8
			c-7.12,0-13.601-4.24-13.601-16.96V31.262h9.84v21.2c0,6.48,2.08,10.641,7.28,10.641c3.92,0,6.48-2.8,7.521-5.28
			c0.32-0.88,0.56-1.92,0.56-3.04V31.262h9.841V58.542z"/>
		<path fill="#0E2B7F" d="M709.386,43.822c0-5.28-0.08-9.04-0.32-12.561h8.561l0.319,7.44h0.32c1.92-5.521,6.48-8.32,10.641-8.32
			c0.96,0,1.52,0.08,2.32,0.24v9.28c-0.801-0.16-1.681-0.32-2.881-0.32c-4.72,0-7.92,3.04-8.8,7.44c-0.16,0.88-0.32,1.92-0.32,3.04
			v20.16h-9.84V43.822z"/>
		<path fill="#0E2B7F" d="M748.345,20.382c0,2.96-2.16,5.28-5.601,5.28c-3.28,0-5.44-2.32-5.44-5.28c0-3.04,2.24-5.36,5.521-5.36
			C746.185,15.021,748.265,17.342,748.345,20.382z M737.864,70.223V31.262h9.92v38.961H737.864z"/>
		<path fill="#0E2B7F" d="M758.345,42.862c0-4.48-0.08-8.24-0.32-11.601h8.641l0.479,5.84h0.24c1.68-3.04,5.92-6.72,12.4-6.72
			c6.8,0,13.84,4.4,13.84,16.721v23.12h-9.84V48.222c0-5.6-2.08-9.84-7.44-9.84c-3.92,0-6.64,2.8-7.68,5.76
			c-0.32,0.881-0.4,2.08-0.4,3.2v22.881h-9.92V42.862z"/>
		<path fill="#0E2B7F" d="M839.704,31.262c-0.16,2.64-0.32,5.84-0.32,11.2v22.081c0,8.16-1.68,14-5.76,17.68
			c-4.08,3.601-9.681,4.721-15.04,4.721c-4.96,0-10.24-1.04-13.601-3.12l2.16-7.44c2.479,1.44,6.64,2.96,11.36,2.96
			c6.4,0,11.2-3.36,11.2-11.76v-3.36h-0.16c-2.24,3.44-6.24,5.76-11.36,5.76c-9.68,0-16.561-8-16.561-19.04
			c0-12.801,8.32-20.561,17.681-20.561c5.92,0,9.44,2.88,11.28,6.08h0.16l0.399-5.2H839.704z M829.544,46.862
			c0-0.88-0.08-1.84-0.32-2.641c-1.04-3.6-3.84-6.319-8-6.319c-5.52,0-9.601,4.8-9.601,12.72c0,6.641,3.36,12,9.521,12
			c3.681,0,6.88-2.399,8-5.92c0.24-1.04,0.4-2.399,0.4-3.52V46.862z"/>
		<path fill="#0E2B7F" d="M877.783,20.142v11.12h9.36v7.36h-9.36v17.2c0,4.72,1.28,7.2,5.04,7.2c1.68,0,2.96-0.24,3.84-0.48
			l0.16,7.521c-1.44,0.561-4,0.96-7.12,0.96c-3.601,0-6.641-1.2-8.48-3.2c-2.08-2.239-3.04-5.76-3.04-10.88v-18.32h-5.6v-7.36h5.6
			v-8.8L877.783,20.142z"/>
		<path fill="#0E2B7F" d="M894.582,13.421h9.92v23.201h0.16c1.2-1.84,2.8-3.36,4.88-4.48c1.92-1.12,4.24-1.76,6.721-1.76
			c6.64,0,13.6,4.4,13.6,16.88v22.961h-9.84V48.382c0-5.68-2.08-9.92-7.521-9.92c-3.84,0-6.56,2.561-7.6,5.521
			c-0.32,0.8-0.4,1.84-0.4,2.96v23.28h-9.92V13.421z"/>
		<path fill="#0E2B7F" d="M962.262,70.223l-0.64-4.32h-0.24c-2.399,3.04-6.479,5.2-11.52,5.2c-7.841,0-12.241-5.68-12.241-11.601
			c0-9.84,8.721-14.8,23.121-14.72v-0.641c0-2.56-1.04-6.8-7.92-6.8c-3.841,0-7.841,1.2-10.48,2.88l-1.92-6.399
			c2.88-1.761,7.92-3.44,14.08-3.44c12.48,0,16.08,7.92,16.08,16.4v14.08c0,3.521,0.16,6.96,0.561,9.36H962.262z M960.982,51.183
			c-6.961-0.16-13.601,1.359-13.601,7.279c0,3.841,2.48,5.601,5.601,5.601c3.92,0,6.8-2.56,7.68-5.36c0.24-0.72,0.32-1.52,0.32-2.16
			V51.183z"/>
		<path fill="#0E2B7F" d="M991.781,20.142v11.12h9.36v7.36h-9.36v17.2c0,4.72,1.28,7.2,5.04,7.2c1.68,0,2.96-0.24,3.84-0.48
			l0.16,7.521c-1.44,0.561-4,0.96-7.12,0.96c-3.601,0-6.641-1.2-8.48-3.2c-2.08-2.239-3.04-5.76-3.04-10.88v-18.32h-5.6v-7.36h5.6
			v-8.8L991.781,20.142z"/>
	</g>
	<g clip-path="url(#SVGID_2_)">
		<path fill="#0E2B7F" d="M191.316,142.302h-20.32v15.841h22.72v8.08h-32.561v-53.921h31.361v8.08h-21.521v13.92h20.32V142.302z"/>
		<path fill="#0E2B7F" d="M236.117,154.542c0,4.641,0.16,8.48,0.32,11.681h-8.64l-0.48-5.92h-0.16c-1.68,2.8-5.52,6.8-12.48,6.8
			c-7.12,0-13.6-4.24-13.6-16.96v-22.881h9.84v21.2c0,6.48,2.08,10.641,7.28,10.641c3.92,0,6.48-2.8,7.52-5.28
			c0.32-0.88,0.56-1.92,0.56-3.04v-23.521h9.84V154.542z"/>
		<path fill="#0E2B7F" d="M246.754,139.822c0-5.28-0.08-9.04-0.32-12.561h8.561l0.32,7.44h0.32c1.92-5.521,6.48-8.32,10.641-8.32
			c0.96,0,1.52,0.08,2.32,0.24v9.28c-0.8-0.16-1.68-0.32-2.88-0.32c-4.72,0-7.92,3.04-8.8,7.44c-0.16,0.88-0.32,1.92-0.32,3.04
			v20.16h-9.84V139.822z"/>
		<path fill="#0E2B7F" d="M311.634,146.382c0,14.32-10.08,20.721-20,20.721c-11.04,0-19.52-7.6-19.52-20.08
			c0-12.801,8.4-20.641,20.16-20.641C303.874,126.382,311.634,134.542,311.634,146.382z M282.274,146.782
			c0,7.521,3.68,13.2,9.68,13.2c5.6,0,9.52-5.521,9.52-13.36c0-6.08-2.72-13.04-9.44-13.04
			C285.074,133.582,282.274,140.302,282.274,146.782z"/>
		<path fill="#0E2B7F" d="M319.713,140.222c0-5.12-0.16-9.28-0.32-12.96h8.64l0.48,6h0.16c2.88-4.4,7.44-6.88,13.36-6.88
			c8.96,0,16.4,7.68,16.4,19.841c0,14.08-8.88,20.88-17.76,20.88c-4.88,0-8.96-2.08-10.96-5.2h-0.16v20.161h-9.84V140.222z
			 M329.553,149.902c0,0.96,0.08,1.84,0.32,2.72c0.96,4,4.48,6.881,8.64,6.881c6.24,0,9.92-5.2,9.92-12.881
			c0-6.88-3.36-12.48-9.68-12.48c-4.081,0-7.84,2.96-8.8,7.28c-0.24,0.8-0.4,1.681-0.4,2.48V149.902z"/>
		<path fill="#0E2B7F" d="M373.473,149.502c0.24,7.04,5.76,10.08,12,10.08c4.56,0,7.84-0.64,10.8-1.76l1.44,6.801
			c-3.36,1.359-8,2.399-13.601,2.399c-12.64,0-20.08-7.76-20.08-19.681c0-10.8,6.56-20.96,19.04-20.96
			c12.641,0,16.801,10.4,16.801,18.96c0,1.841-0.16,3.28-0.32,4.16H373.473z M390.593,142.622c0.08-3.6-1.52-9.521-8.081-9.521
			c-6.08,0-8.64,5.521-9.04,9.521H390.593z"/>
		<path fill="#0E2B7F" d="M417.712,111.422c-2.16,7.279-5.6,15.52-8.64,20.48l-6,0.56c2.08-5.84,4.16-13.841,5.12-20.32
			L417.712,111.422z"/>
		<path fill="#0E2B7F" d="M417.711,157.183c2.24,1.359,6.48,2.8,10,2.8c4.32,0,6.24-1.76,6.24-4.32c0-2.64-1.6-4-6.4-5.68
			c-7.6-2.641-10.8-6.8-10.72-11.36c0-6.88,5.68-12.24,14.721-12.24c4.32,0,8.08,1.12,10.32,2.32l-1.92,6.96
			c-1.68-0.96-4.8-2.24-8.24-2.24c-3.52,0-5.44,1.68-5.44,4.08c0,2.48,1.84,3.68,6.8,5.44c7.04,2.56,10.32,6.16,10.4,11.92
			c0,7.04-5.52,12.16-15.84,12.16c-4.72,0-8.96-1.12-11.84-2.72L417.711,157.183z"/>
		<path fill="#0E2B7F" d="M469.229,166.223v-31.601h-5.28v-7.36h5.28v-1.68c0-5.04,1.36-10.08,4.72-13.28
			c2.88-2.721,6.8-3.761,10.16-3.761c2.64,0,4.72,0.4,6.32,0.96l-0.72,7.601c-1.04-0.4-2.4-0.72-4.16-0.72
			c-4.88,0-6.561,4.08-6.561,8.88v2h8.561v7.36h-8.48v31.601H469.229z"/>
		<path fill="#0E2B7F" d="M529.869,146.382c0,14.32-10.08,20.721-20.001,20.721c-11.04,0-19.52-7.6-19.52-20.08
			c0-12.801,8.4-20.641,20.16-20.641C522.108,126.382,529.869,134.542,529.869,146.382z M500.508,146.782
			c0,7.521,3.68,13.2,9.68,13.2c5.601,0,9.521-5.521,9.521-13.36c0-6.08-2.721-13.04-9.44-13.04
			C503.308,133.582,500.508,140.302,500.508,146.782z"/>
		<path fill="#0E2B7F" d="M574.989,146.382c0,14.32-10.08,20.721-20.001,20.721c-11.04,0-19.521-7.6-19.521-20.08
			c0-12.801,8.4-20.641,20.161-20.641C567.229,126.382,574.989,134.542,574.989,146.382z M545.628,146.782
			c0,7.521,3.681,13.2,9.681,13.2c5.6,0,9.521-5.521,9.521-13.36c0-6.08-2.721-13.04-9.44-13.04
			C548.429,133.582,545.628,140.302,545.628,146.782z"/>
		<path fill="#0E2B7F" d="M618.988,109.421v45.842c0,4,0.16,8.32,0.319,10.96h-8.8l-0.4-6.16h-0.159
			c-2.32,4.32-7.041,7.04-12.721,7.04c-9.28,0-16.641-7.92-16.641-19.92c-0.08-13.041,8.08-20.801,17.44-20.801
			c5.36,0,9.2,2.24,10.961,5.12h0.159v-22.081H618.988z M609.147,143.502c0-0.8-0.08-1.76-0.239-2.56
			c-0.881-3.841-4-6.961-8.48-6.961c-6.32,0-9.84,5.601-9.84,12.881c0,7.12,3.52,12.32,9.76,12.32c4,0,7.521-2.72,8.48-6.96
			c0.239-0.88,0.319-1.841,0.319-2.881V143.502z"/>
		<path fill="#0E2B7F" d="M656.586,116.382c0,2.96-2.16,5.28-5.601,5.28c-3.28,0-5.44-2.32-5.44-5.28c0-3.04,2.24-5.36,5.521-5.36
			C654.426,111.021,656.506,113.342,656.586,116.382z M646.105,166.223v-38.961h9.92v38.961H646.105z"/>
		<path fill="#0E2B7F" d="M666.105,157.183c2.24,1.359,6.48,2.8,10.001,2.8c4.319,0,6.239-1.76,6.239-4.32c0-2.64-1.6-4-6.399-5.68
			c-7.601-2.641-10.801-6.8-10.721-11.36c0-6.88,5.681-12.24,14.721-12.24c4.32,0,8.08,1.12,10.32,2.32l-1.92,6.96
			c-1.681-0.96-4.801-2.24-8.24-2.24c-3.521,0-5.44,1.68-5.44,4.08c0,2.48,1.84,3.68,6.8,5.44c7.04,2.56,10.32,6.16,10.4,11.92
			c0,7.04-5.52,12.16-15.84,12.16c-4.721,0-8.961-1.12-11.841-2.72L666.105,157.183z"/>
		<path fill="#0E2B7F" d="M716.023,157.183c2.24,1.359,6.48,2.8,10.001,2.8c4.319,0,6.239-1.76,6.239-4.32c0-2.64-1.6-4-6.399-5.68
			c-7.601-2.641-10.801-6.8-10.721-11.36c0-6.88,5.681-12.24,14.721-12.24c4.32,0,8.08,1.12,10.32,2.32l-1.92,6.96
			c-1.681-0.96-4.801-2.24-8.24-2.24c-3.521,0-5.44,1.68-5.44,4.08c0,2.48,1.84,3.68,6.8,5.44c7.04,2.56,10.32,6.16,10.4,11.92
			c0,7.04-5.52,12.16-15.84,12.16c-4.721,0-8.961-1.12-11.841-2.72L716.023,157.183z"/>
		<path fill="#0E2B7F" d="M771.783,166.223l-0.64-4.32h-0.24c-2.399,3.04-6.479,5.2-11.52,5.2c-7.841,0-12.241-5.68-12.241-11.601
			c0-9.84,8.721-14.8,23.121-14.72v-0.641c0-2.56-1.04-6.8-7.92-6.8c-3.841,0-7.841,1.2-10.48,2.88l-1.92-6.399
			c2.88-1.761,7.92-3.44,14.08-3.44c12.48,0,16.08,7.92,16.08,16.4v14.08c0,3.521,0.16,6.96,0.561,9.36H771.783z M770.504,147.183
			c-6.961-0.16-13.601,1.359-13.601,7.279c0,3.841,2.48,5.601,5.601,5.601c3.92,0,6.8-2.56,7.68-5.36c0.24-0.72,0.32-1.52,0.32-2.16
			V147.183z"/>
		<path fill="#0E2B7F" d="M791.623,166.223v-31.601h-5.28v-7.36h5.28v-1.68c0-5.04,1.359-10.08,4.72-13.28
			c2.88-2.721,6.8-3.761,10.16-3.761c2.641,0,4.721,0.4,6.32,0.96l-0.72,7.601c-1.04-0.4-2.4-0.72-4.16-0.72
			c-4.88,0-6.561,4.08-6.561,8.88v2h8.561v7.36h-8.48v31.601H791.623z"/>
		<path fill="#0E2B7F" d="M822.182,149.502c0.24,7.04,5.76,10.08,12,10.08c4.561,0,7.841-0.64,10.801-1.76l1.439,6.801
			c-3.359,1.359-8,2.399-13.6,2.399c-12.641,0-20.081-7.76-20.081-19.681c0-10.8,6.561-20.96,19.041-20.96
			c12.64,0,16.8,10.4,16.8,18.96c0,1.841-0.16,3.28-0.319,4.16H822.182z M839.302,142.622c0.08-3.6-1.52-9.521-8.08-9.521
			c-6.08,0-8.64,5.521-9.04,9.521H839.302z"/>
		<path fill="#0E2B7F" d="M866.421,111.422c-2.239,7.279-5.68,15.52-8.64,20.48l-6.08,0.56c2.08-5.84,4.16-13.841,5.2-20.32
			L866.421,111.422z M880.342,111.422c-2.16,7.279-5.681,15.52-8.641,20.48l-6.08,0.56c2.08-5.84,4.24-13.841,5.2-20.32
			L880.342,111.422z"/>
	</g>
	<g clip-path="url(#SVGID_2_)">
		<defs>
			<rect id="SVGID_90_" x="-110" y="-9766.05" width="1280" height="14363.67"/>
		</defs>
		<clipPath id="SVGID_6_">
			<use xlink:href="#SVGID_90_"  overflow="visible"/>
		</clipPath>
	</g>
	<g clip-path="url(#SVGID_2_)">
		<defs>
			<rect id="SVGID_96_" x="-110" y="-9766.05" width="1280" height="14363.67"/>
		</defs>
		<clipPath id="SVGID_8_">
			<use xlink:href="#SVGID_96_"  overflow="visible"/>
		</clipPath>
	</g>
	<g clip-path="url(#SVGID_2_)">
		<defs>
			<rect id="SVGID_103_" x="-110" y="-9766.05" width="1280" height="14363.67"/>
		</defs>
		<clipPath id="SVGID_10_">
			<use xlink:href="#SVGID_103_"  overflow="visible"/>
		</clipPath>
	</g>
</g>
</svg>
